<svg xmlns="http://www.w3.org/2000/svg" viewBox="0 0 185.45 185.44"><defs><style>.a{fill:#4f4f4f;}.b{fill:#65964a;}.c{fill:#90c861;}.d{fill:#222;}.e{fill:#fefefe;}.f{fill:#c27030;}.g{fill:#784f2d;}.h{fill:#fcf2e2;}.i{fill:#fbe5bb;}.j{fill:#f0534a;}.k{fill:#f58e83;}.l{fill:#f26a61;}.m{fill:#ffcc1f;}.n{fill:#d9a379;}.o{fill:#ce8c57;}.p{fill:#fcde78;}</style></defs><path class="a" d="M172.69,48.29c1.59,3.55,3.35,7,4.74,10.67q15.06,39.46-4.41,77c-.39.75-.86,1.46-1.3,2.18a32,32,0,0,1-4.65-4.58,3,3,0,0,0,.37-.45,86.85,86.85,0,0,0,10.14-36.65,79.58,79.58,0,0,0-1.84-21.36,84.36,84.36,0,0,0-49.42-60.34,86.27,86.27,0,0,0-30.9-6.91A84.23,84.23,0,0,0,86,8.15a76.3,76.3,0,0,0-14.22,2.32A84.4,84.4,0,0,0,14.74,59.21,87.48,87.48,0,0,0,7.85,89.72a86.69,86.69,0,0,0,.72,13.66,84.22,84.22,0,0,0,28,52.94,87.44,87.44,0,0,0,16.16,11.29,85.8,85.8,0,0,0,36.1,9.95A79.7,79.7,0,0,0,111,175.62a80.79,80.79,0,0,0,22.6-8.57c1.17,1.37,2.67,1.2,4.24,1a40.25,40.25,0,0,1,7.1-.66,86.86,86.86,0,0,1-35.19,14.9c-21,3.91-41,.75-60-9.14-.45-.23-.85-.63-1.43-.49a13.68,13.68,0,0,0-5.47-3.31c-.19-.74-.91-.89-1.42-1.24A94.62,94.62,0,0,1,20.19,148c-1.38-1.78-2.39-3.85-4.1-5.38a15.36,15.36,0,0,0-3.31-5.47c-1.47-3.9-3.55-7.52-5.08-11.41C-6.84,88.87,4.91,45.63,36.09,21.25a91.23,91.23,0,0,1,98.6-9.52,5.36,5.36,0,0,0,2.48,1,17.17,17.17,0,0,0,5.48,3.31c.15.68.8.82,1.26,1.14A94,94,0,0,1,165.4,37.58c1.34,1.74,2.31,3.75,4,5.23A15.34,15.34,0,0,0,172.69,48.29Z"/><path class="b" d="M162.63,151.31l3.31,3.6L158.3,156c-4.05.15-8.06.72-12.07,1.23-.45-.38-.93-.73-1.34-1.14q-13.17-13.14-26.32-26.31c-.41-.41-.75-.89-1.13-1.33a27.25,27.25,0,0,0,7.78-6.09,26.73,26.73,0,0,0,11.88,3.24,6.42,6.42,0,0,0,.66,1c6.13,6.15,12.29,12.28,18.4,18.45a3.14,3.14,0,0,0,2.28.87c-.51.31-1,.53-.25,1.2C159.71,148.42,161.15,149.88,162.63,151.31Z"/><path class="c" d="M117.44,128.43c.38.44.72.92,1.13,1.33q13.16,13.17,26.32,26.31c.41.41.89.76,1.34,1.14a41.76,41.76,0,0,0,5.29,5.18l3.2,3.61c-3.31.74-6.63.57-9.79,1.4a40.25,40.25,0,0,0-7.1.66c-1.57.19-3.07.36-4.24-1-3.29-3.57-6.76-7-10.27-10.31-.2-2.1.79-4,.83-6.12.18-9.2-3.73-16.08-11.63-20.75A33.79,33.79,0,0,0,117.44,128.43Z"/><path class="d" d="M12.78,137.16a15.36,15.36,0,0,1,3.31,5.47l-7.43,7.53c-3,3.06-3,6.61,0,9.66q8.45,8.48,16.92,16.92c3.05,3,6.6,3,9.67,0,2.52-2.46,5-4.95,7.53-7.42a13.68,13.68,0,0,1,5.47,3.31C45.2,175.78,42.19,179,39,182a12.19,12.19,0,0,1-16.9.1q-9.59-9.15-18.75-18.74a12.18,12.18,0,0,1,.12-16.9C6.48,143.26,9.67,140.25,12.78,137.16Z"/><path class="d" d="M172.69,48.29a15.34,15.34,0,0,1-3.32-5.48c2.53-2.55,5.06-5.09,7.57-7.67,2.81-2.9,2.81-6.51-.05-9.38q-8.49-8.57-17-17.06c-3.06-3-6.6-3-9.66,0-2.52,2.47-5,4.95-7.53,7.42a17.17,17.17,0,0,1-5.48-3.31c3.09-3.11,6.11-6.29,9.29-9.3a12.18,12.18,0,0,1,16.9-.12q9.58,9.15,18.74,18.74A12.22,12.22,0,0,1,182,39C179,42.19,175.8,45.2,172.69,48.29Z"/><path class="c" d="M158.44,145.85a3.14,3.14,0,0,1-2.28-.87c-6.11-6.17-12.27-12.3-18.4-18.45a6.42,6.42,0,0,1-.66-1c6.85.28,13.69.38,20.38-1.5l9.59,9.49a32,32,0,0,0,4.65,4.58c1.68,1.81,3.37,3.6,5.29,5.66l-9.67,1.24Z"/><path class="a" d="M151.52,162.39a41.76,41.76,0,0,1-5.29-5.18c4-.51,8-1.08,12.07-1.23A59.57,59.57,0,0,1,151.52,162.39Z"/><path class="a" d="M158.44,145.85l8.9-.8a70.11,70.11,0,0,1-4.71,6.26c-1.48-1.43-2.92-2.89-4.44-4.26C157.44,146.38,157.93,146.16,158.44,145.85Z"/><path class="d" d="M167.07,133.57l-9.59-9.49c.46-.25.91-.51,1.37-.75a21.2,21.2,0,0,0,11.39-14,62.79,62.79,0,0,0-.11-33.67,20.61,20.61,0,0,0-7.5-11.21,21.37,21.37,0,0,0-12.74-4.41c-2.62-.07-2.65-.13-2.56-2.68a65.74,65.74,0,0,0-1.2-14.62c-1-5-2.41-9.91-6.13-13.76-4.38-4.53-9.75-6.48-16-6.75-7.53-.33-15-.69-22.23,2.15-1.15-2.34-2.92-3.93-5.61-3.95q-12.87-.11-25.73,0a6.13,6.13,0,0,0-6,6.07c0,1.64,0,3.27,0,4.91,0,2-.09,4.11-.14,6.17q-2.3-2.25-4.6-4.49c-3-2.93-6.51-3-9.48-.05-1,1-1.88,2-2.81,3a8.69,8.69,0,0,0-1.08.81c-4.45,4.42-8.9,8.84-13.31,13.31-3.07,3.09-3,6.67.08,9.83q3.71,3.78,7.4,7.55l-6,.12H27.49c-4.33-.19-7.06,2.38-7.07,6.7,0,5.93,0,11.87,0,17.8,0,4.13,2.19,6.48,6.38,6.92,0,6.7-.09,13.41-.08,20.11,0,4.12,2.83,6.69,7,6.51l5.53.07c0,6.65,0,13.3,0,20,0,4.31,2.76,6.89,7.07,6.7h7.09l7.53.12a4,4,0,0,1-.33.47c-4.24,4.63-2.72,9.78,3.4,11.34,7,1.79,13.13.07,18.62-4.42.36.45.76.88,1.08,1.36,4.12,6.14,9.91,9.71,17.22,10,9.86.35,17.07-4.2,21.39-13.16.24-.49.18-1.23,1-1.33,3.51,3.35,7,6.74,10.27,10.31a80.79,80.79,0,0,1-22.6,8.57,79.7,79.7,0,0,1-22.14,1.94,85.8,85.8,0,0,1-36.1-9.95,87.44,87.44,0,0,1-16.16-11.29,84.22,84.22,0,0,1-28-52.94,86.69,86.69,0,0,1-.72-13.66,87.48,87.48,0,0,1,6.89-30.51A84.76,84.76,0,0,1,71.81,10.47,76.3,76.3,0,0,1,86,8.15a84.23,84.23,0,0,1,9.39-.29,86.27,86.27,0,0,1,30.9,6.91,84.81,84.81,0,0,1,49.42,60.34,79.58,79.58,0,0,1,1.84,21.36,86.85,86.85,0,0,1-10.14,36.65A3,3,0,0,1,167.07,133.57Z"/><path class="e" d="M117.44,128.43a33.79,33.79,0,0,1-4.92,1.44,23.72,23.72,0,0,0-15.4-2.11,21.5,21.5,0,0,0-3.6-2c-4.12-2.06-8.26-2.32-12.43-.16l-.35,0c-.24-.18-.43-.08-.61.1l-4.69.88a23.67,23.67,0,0,1-7.49-.79.53.53,0,0,0-.35-.1,29.22,29.22,0,0,1-6.23-3.63,27.78,27.78,0,0,1-4.31-5.47,19.32,19.32,0,0,1-.62-16.1,22.15,22.15,0,0,1,3.21-5.12,12.52,12.52,0,0,0,3-8.71,32.19,32.19,0,0,1,4.46-19.09c3.1-4,6.59-7.49,11.18-9.77.15-.07.24-.29.35-.45,3.26-.9,6.45-2.08,9.85-2.4l6.25.14a53.36,53.36,0,0,1,7.08,2,30.56,30.56,0,0,1,12.46,10l.49.78.25.42,2.07,3.91A60.71,60.71,0,0,0,114,99.51c1,8.94,2.9,17.49,11.24,22.83A27.25,27.25,0,0,1,117.44,128.43ZM111.6,92.82a18.87,18.87,0,1,0-18.92,18.76A18.88,18.88,0,0,0,111.6,92.82Z"/><path class="f" d="M125.22,122.34C116.88,117,115,108.45,114,99.51a60.71,60.71,0,0,1,3.08-27.22c.57-.49.61-1.24.88-1.88l3.92-4.78c.94-.69,1.9-1.36,2.83-2.06,4.07-3.06,8.92-3.32,13.69-3.83,2.75-.3,2.75-.29,2.62-3.22a21.49,21.49,0,0,0-.31-6.25,33.25,33.25,0,0,0-2.58-12.77,14.06,14.06,0,0,0-12.25-8.82,85.43,85.43,0,0,0-14.66-.11c-4.9.36-8.8,2.13-11.8,6a11.93,11.93,0,0,0-2.74,6.3,47.73,47.73,0,0,0-1.9,12.62c0,.54,0,1.09-.05,1.64L88.46,55a68,68,0,0,1,2.83-19,23.75,23.75,0,0,1,10.48-11.57c7.21-2.84,14.7-2.48,22.23-2.15,6.25.27,11.62,2.22,16,6.75,3.72,3.85,5.17,8.71,6.13,13.76a65.74,65.74,0,0,1,1.2,14.62c-.09,2.55-.06,2.61,2.56,2.68a21.37,21.37,0,0,1,12.74,4.41,20.61,20.61,0,0,1,7.5,11.21,62.79,62.79,0,0,1,.11,33.67,21.2,21.2,0,0,1-11.39,14c-.46.24-.91.5-1.37.75-6.69,1.88-13.53,1.78-20.38,1.5A26.73,26.73,0,0,1,125.22,122.34ZM165.84,88a33.24,33.24,0,0,0-2.57-12.77A14.08,14.08,0,0,0,151,66.41a85.3,85.3,0,0,0-14.65-.11c-4.9.35-8.81,2.13-11.81,6a12.08,12.08,0,0,0-2.74,6.3,47.31,47.31,0,0,0-1.89,12.62c.09,2.1-.45,4.23.28,6.29a31.39,31.39,0,0,0,.87,6.77c.92,5.09,2.73,9.64,7.38,12.6,3.38,2.15,7.16,2.34,10.91,2.54a97.1,97.1,0,0,0,10.37-.25,15.17,15.17,0,0,0,11.79-6,12.08,12.08,0,0,0,2.74-6.3,47.32,47.32,0,0,0,1.9-12.62C166.18,92.16,166.43,90.06,165.84,88Z"/><path class="g" d="M97.12,127.76a23.72,23.72,0,0,1,15.4,2.11c7.9,4.67,11.81,11.55,11.63,20.75,0,2.08-1,4-.83,6.12-.79.1-.73.84-1,1.33-4.32,9-11.53,13.51-21.39,13.16-7.31-.26-13.1-3.83-17.22-10-.32-.48-.72-.91-1.08-1.36-1.13-3-2.32-6.05-2.48-9.36-.3-6.08,1.82-11.31,5.52-16l3.17-2.85a35.54,35.54,0,0,1,5.4-2.91Zm5,7.64A22.27,22.27,0,0,0,98.7,144c-.21,1.3-.71,1.66-1.94,1.89a19.87,19.87,0,0,0-8.43,3.49,20.48,20.48,0,0,0,8.32,3.38c1.49.24,1.83.85,2.1,2.2a19.13,19.13,0,0,0,3.46,8.22,20.6,20.6,0,0,0,3.37-8.32c.24-1.49.84-1.85,2.19-2.11a19.16,19.16,0,0,0,8.26-3.47,21.88,21.88,0,0,0-8.53-3.4c-1.31-.21-1.67-.72-1.89-1.94A21.15,21.15,0,0,0,102.13,135.4Z"/><path class="h" d="M40.56,67.51q-3.69-3.78-7.4-7.55c-3.09-3.16-3.15-6.74-.08-9.83,4.41-4.47,8.86-8.89,13.31-13.31A8.69,8.69,0,0,1,47.47,36c.46.55.88,1.13,1.38,1.64,5.32,5.33,10.61,10.67,16,15.94,1.08,1.07,1.16,1.68,0,2.78C61.11,60,57.47,63.78,53.79,67.5l0,.1-7.48,0Z"/><path class="h" d="M85.7,134.53c-3.7,4.7-5.82,9.93-5.52,16,.16,3.31,1.35,6.32,2.48,9.36C77.17,164.39,71,166.11,64,164.32c-6.12-1.56-7.64-6.71-3.4-11.34a4,4,0,0,0,.33-.47c2.69-2.26,2.69-2.26.29-4.66-.6-.6-1.21-1.19-1.79-1.8-1.78-1.86-1.78-3.39.05-5.26s3.89-3.86,5.8-5.83a3.52,3.52,0,0,1,4.24-1c1.19,1.16,2.49,2.23,3.56,3.5,1.26,1.5,2.2,1.43,3.13-.24a14.1,14.1,0,0,0,1.16-1C79.78,133.69,82.52,133,85.7,134.53Z"/><path class="i" d="M53.79,67.5c3.68-3.72,7.32-7.48,11.07-11.13,1.14-1.1,1.06-1.71,0-2.78-5.38-5.27-10.67-10.61-16-15.94-.5-.51-.92-1.09-1.38-1.64.93-1,1.83-2,2.81-3,3-2.91,6.45-2.88,9.48.05q2.31,2.24,4.6,4.49c4,4.5,8.4,8.56,12.63,12.81a6.39,6.39,0,0,1,1.62,7c-.11.16-.2.38-.35.45-4.59,2.28-8.08,5.79-11.18,9.77Z"/><path class="h" d="M78.61,57.37a6.39,6.39,0,0,0-1.62-7c-4.23-4.25-8.66-8.31-12.63-12.81,0-2.06.09-4.12.14-6.17H87.29c3.71,0,3.7,0,3.89,3.77a7,7,0,0,0,.11.78,68,68,0,0,0-2.83,19C85.06,55.29,81.87,56.47,78.61,57.37Z"/><path class="j" d="M40.56,67.51l5.78.12c.21.4.39.82.63,1.19a25.88,25.88,0,0,1,2.93,23c-.85,2.58-2.39,4.76-3.57,7.15l-3.1.06-6.75,0L35,99a2.76,2.76,0,0,1,.36-1.5c4.71-10.07,4.49-20-.74-29.86Z"/><path class="i" d="M91.29,36a7,7,0,0,1-.11-.78c-.19-3.77-.18-3.77-3.89-3.77H64.5c0-1.64-.1-3.27,0-4.91a6.13,6.13,0,0,1,6-6.07q12.87-.11,25.73,0c2.69,0,4.46,1.61,5.61,3.95A23.75,23.75,0,0,0,91.29,36Z"/><path class="j" d="M26.79,99.05c-4.19-.44-6.37-2.79-6.38-6.92,0-5.93,0-11.87,0-17.8,0-4.32,2.74-6.89,7.07-6.7,0,.51.36.82.6,1.2a25.77,25.77,0,0,1,2.94,23c-.85,2.58-2.39,4.76-3.57,7.15Z"/><path class="j" d="M46.35,152.39c-4.31.19-7.06-2.39-7.07-6.7,0-6.65,0-13.3,0-20l1.62,0,8.17.08c.19.62.36,1.25.59,1.86a25.63,25.63,0,0,1,0,18.39C48.8,148.31,47.34,150.22,46.35,152.39Z"/><path class="k" d="M26.79,99.05l.67-.08L35,99l1.52.06c2.07,5.46,3.05,11,1.63,16.83a35.38,35.38,0,0,1-4.35,9.79c-4.22.18-7-2.39-7-6.51C26.7,112.46,26.76,105.75,26.79,99.05Z"/><path class="l" d="M46.35,152.39c1-2.17,2.45-4.08,3.28-6.37a25.63,25.63,0,0,0,0-18.39c-.23-.61-.4-1.24-.59-1.86,2.74.54,4.33-.81,5.34-3.2.84-2,1.76-4,2.64-6a27.78,27.78,0,0,0,4.31,5.47c-.53,1.2-1.06,2.41-1.6,3.61-.84,0-1.69.08-2.54,0-1.32-.08-1.46.39-1.13,1.62,2.38,8.68,1.77,17.08-2.66,25Z"/><path class="l" d="M35,99l-7.5,0c1.18-2.39,2.72-4.57,3.57-7.15a25.77,25.77,0,0,0-2.94-23c-.24-.38-.6-.69-.6-1.2h7.09c5.23,9.83,5.45,19.79.74,29.86A2.76,2.76,0,0,0,35,99Z"/><path class="j" d="M53.44,152.39c4.43-8,5-16.37,2.66-25-.33-1.23-.19-1.7,1.13-1.62.85,0,1.7,0,2.54,0l7.83,0a.53.53,0,0,1,.35.1,45.12,45.12,0,0,1,1.43,4.45c.26,1.2,1.14,2.44.18,3.71a3.52,3.52,0,0,0-4.24,1c-1.91,2-3.89,3.87-5.8,5.83s-1.83,3.4-.05,5.26c.58.61,1.19,1.2,1.79,1.8,2.4,2.4,2.4,2.4-.29,4.66Z"/><path class="l" d="M33.76,125.67a35.38,35.38,0,0,0,4.35-9.79c1.42-5.82.44-11.37-1.63-16.83l6.75,0a16.07,16.07,0,0,0,.47,2.08,26.37,26.37,0,0,1,1.27,9,31.43,31.43,0,0,1-4.06,15.53l-1.62,0Z"/><path class="m" d="M111.6,92.82a18.87,18.87,0,1,1-18.72-19A18.89,18.89,0,0,1,111.6,92.82ZM92.73,89.58a6.29,6.29,0,1,0-6.39,6.28A6.39,6.39,0,0,0,92.73,89.58Z"/><path class="k" d="M40.91,125.69A31.43,31.43,0,0,0,45,110.16a26.37,26.37,0,0,0-1.27-9A16.07,16.07,0,0,1,43.23,99l3.1-.06,7.5,0c1.45-.49,1.64,1.19,2.61,1.52a19.32,19.32,0,0,0,.62,16.1c-.88,2-1.8,4-2.64,6-1,2.39-2.6,3.74-5.34,3.2Z"/><path class="j" d="M56.44,100.51c-1-.33-1.16-2-2.61-1.52-.12-.91.46-1.6.79-2.37a32.27,32.27,0,0,0,0-26.65,4.59,4.59,0,0,1-.81-2.37l0-.1,13.29.09a32.19,32.19,0,0,0-4.46,19.09,12.52,12.52,0,0,1-3,8.71A22.15,22.15,0,0,0,56.44,100.51Z"/><path class="n" d="M94.71,55.11c0-.55,0-1.1.05-1.64,4.16-.09,8.28-.17,12.37,1,6.39,1.83,10.47,6.59,14.73,11.16l-3.92,4.78c-1.09-.51-1.5-2-3-2l-.25-.42c0-.33-.1-.66-.49-.78a30.56,30.56,0,0,0-12.46-10A53.36,53.36,0,0,0,94.71,55.11Z"/><path class="j" d="M85.7,134.53c-3.18-1.5-5.92-.84-8.29,1.68a14.1,14.1,0,0,1-1.16,1,36.71,36.71,0,0,0-.52-7.32c-.2-1.08-1.08-2.13-.29-3.31l4.69-.88.61-.1.35,0a7.8,7.8,0,0,0,3.87,0c1.33-.43,1.78.18,2.17,1.19.64,1.61.87,3.37,1.74,4.9Z"/><path class="l" d="M75.44,126.6c-.79,1.18.09,2.23.29,3.31a36.71,36.71,0,0,1,.52,7.32c-.93,1.67-1.87,1.74-3.13.24-1.07-1.27-2.37-2.34-3.56-3.5,1-1.27.08-2.51-.18-3.71A45.12,45.12,0,0,0,68,125.81,23.67,23.67,0,0,0,75.44,126.6Z"/><path class="l" d="M88.87,131.68c-.87-1.53-1.1-3.29-1.74-4.9-.39-1-.84-1.62-2.17-1.19a7.8,7.8,0,0,1-3.87,0c4.17-2.17,8.31-1.91,12.43.15l.75,3A35.54,35.54,0,0,0,88.87,131.68Z"/><path class="k" d="M67.6,125.71l-7.83,0c.54-1.2,1.07-2.41,1.6-3.61A29.22,29.22,0,0,0,67.6,125.71Z"/><path class="j" d="M94.27,128.77l-.75-3a21.5,21.5,0,0,1,3.6,2Z"/><path class="o" d="M115,68.38c1.45,0,1.86,1.52,3,2-.27.64-.31,1.39-.88,1.88Z"/><path class="o" d="M114.25,67.18c.39.12.44.45.49.78Z"/><path class="l" d="M80.74,125.62l-.61.1C80.31,125.54,80.5,125.44,80.74,125.62Z"/><path class="o" d="M119.92,91.19a47.31,47.31,0,0,1,1.89-12.62c2.43,0,4.86-.12,7.27,0a17.45,17.45,0,0,1,12.61,6.19,27,27,0,0,0,10.21,7.73c4.65,1.9,9.42,1.83,14.26,1.73a47.32,47.32,0,0,1-1.9,12.62c-2.42,0-4.85.12-7.27,0a17.47,17.47,0,0,1-12.61-6.19,26.68,26.68,0,0,0-10.2-7.74C129.52,91,124.75,91.09,119.92,91.19Z"/><path class="o" d="M161.52,113.17a15.17,15.17,0,0,1-11.79,6,97.1,97.1,0,0,1-10.37.25c-3.75-.2-7.53-.39-10.91-2.54-4.65-3-6.46-7.51-7.38-12.6a31.39,31.39,0,0,1-.87-6.77c1.57,0,3.14-.06,4.71,0a17.7,17.7,0,0,1,13.85,6.45A25.78,25.78,0,0,0,149,111.51C153.1,113.08,157.28,113.23,161.52,113.17Z"/><path class="o" d="M99.4,34.55c3-3.85,6.9-5.62,11.8-6a85.43,85.43,0,0,1,14.66.11,14.06,14.06,0,0,1,12.25,8.82,33.25,33.25,0,0,1,2.58,12.77h-4.51a17.73,17.73,0,0,1-14-6.48,25.78,25.78,0,0,0-10.26-7.6C107.81,34.63,103.64,34.49,99.4,34.55Z"/><path class="o" d="M124.55,72.27c3-3.84,6.91-5.62,11.81-6a85.3,85.3,0,0,1,14.65.11,14.08,14.08,0,0,1,12.26,8.82A33.24,33.24,0,0,1,165.84,88h-4.51a17.67,17.67,0,0,1-14-6.48A25.88,25.88,0,0,0,137,73.93C133,72.36,128.8,72.22,124.55,72.27Z"/><path class="o" d="M121.86,65.63c-4.26-4.57-8.34-9.33-14.73-11.16-4.09-1.17-8.21-1.09-12.37-1a47.73,47.73,0,0,1,1.9-12.62c2.42,0,4.85-.13,7.27,0a17.5,17.5,0,0,1,12.61,6.19,27,27,0,0,0,10.2,7.74c4.65,1.89,9.43,1.83,14.26,1.72.13,2.93.13,2.92-2.62,3.22-4.77.51-9.62.77-13.69,3.83C123.76,64.27,122.8,64.94,121.86,65.63Z"/><path class="n" d="M141,56.52c-4.83.11-9.61.17-14.26-1.72a27,27,0,0,1-10.2-7.74,17.5,17.5,0,0,0-12.61-6.19c-2.42-.15-4.85,0-7.27,0a11.93,11.93,0,0,1,2.74-6.3c4.24-.06,8.41.08,12.49,1.65a25.78,25.78,0,0,1,10.26,7.6,17.73,17.73,0,0,0,14,6.48h4.51A21.49,21.49,0,0,1,141,56.52Z"/><path class="n" d="M161.52,113.17c-4.24.06-8.42-.09-12.5-1.66a25.78,25.78,0,0,1-10.26-7.62,17.7,17.7,0,0,0-13.85-6.45c-1.57,0-3.14,0-4.71,0-.73-2.06-.19-4.19-.28-6.29,4.83-.1,9.6-.16,14.26,1.72a26.68,26.68,0,0,1,10.2,7.74A17.47,17.47,0,0,0,157,106.84c2.42.15,4.85,0,7.27,0A12.08,12.08,0,0,1,161.52,113.17Z"/><path class="n" d="M124.55,72.27c4.25,0,8.42.09,12.49,1.66a25.88,25.88,0,0,1,10.27,7.59,17.67,17.67,0,0,0,14,6.48h4.51c.59,2.06.34,4.16.32,6.25-4.84.1-9.61.17-14.26-1.73a27,27,0,0,1-10.21-7.73,17.45,17.45,0,0,0-12.61-6.19c-2.41-.15-4.84,0-7.27,0A12.08,12.08,0,0,1,124.55,72.27Z"/><path class="p" d="M102.13,135.4a21.15,21.15,0,0,1,3.48,8.51c.22,1.22.58,1.73,1.89,1.94a21.88,21.88,0,0,1,8.53,3.4,19.16,19.16,0,0,1-8.26,3.47c-1.35.26-2,.62-2.19,2.11a20.6,20.6,0,0,1-3.37,8.32,19.13,19.13,0,0,1-3.46-8.22c-.27-1.35-.61-2-2.1-2.2a20.48,20.48,0,0,1-8.32-3.38,19.87,19.87,0,0,1,8.43-3.49c1.23-.23,1.73-.59,1.94-1.89A22.27,22.27,0,0,1,102.13,135.4Z"/><path class="l" d="M53.82,67.6A4.59,4.59,0,0,0,54.63,70a32.27,32.27,0,0,1,0,26.65c-.33.77-.91,1.46-.79,2.37l-7.5,0c1.18-2.39,2.72-4.57,3.57-7.15a25.88,25.88,0,0,0-2.93-23c-.24-.37-.42-.79-.63-1.19Z"/><path class="p" d="M92.73,89.58a6.29,6.29,0,1,1-6.19-6.29A6.38,6.38,0,0,1,92.73,89.58Z"/></svg>