<?xml version="1.0" encoding="UTF-8" standalone="no"?>
<!-- Generator: Adobe Illustrator 24.3.0, SVG Export Plug-In . SVG Version: 6.00 Build 0)  -->

<svg
   version="1.1"
   id="Слой_1"
   x="0px"
   y="0px"
   width="3804.2639"
   height="2300.0662"
   viewBox="0 0 3804.2639 2300.0662"
   enable-background="new 0 0 5000 3500"
   xml:space="preserve"
   sodipodi:docname="rodzina.svg"
   inkscape:version="1.1.1 (3bf5ae0d25, 2021-09-20)"
   xmlns:inkscape="http://www.inkscape.org/namespaces/inkscape"
   xmlns:sodipodi="http://sodipodi.sourceforge.net/DTD/sodipodi-0.dtd"
   xmlns="http://www.w3.org/2000/svg"
   xmlns:svg="http://www.w3.org/2000/svg"
   xmlns:i="&amp;ns_ai;"><defs
   id="defs488">
	
	

		
		
		
		
		
		
		
		
		
	</defs><sodipodi:namedview
   id="namedview486"
   pagecolor="#ffffff"
   bordercolor="#666666"
   borderopacity="1.0"
   inkscape:pageshadow="2"
   inkscape:pageopacity="0.0"
   inkscape:pagecheckerboard="0"
   showgrid="false"
   inkscape:zoom="0.20514286"
   inkscape:cx="1898.6769"
   inkscape:cy="1094.3593"
   inkscape:window-width="1920"
   inkscape:window-height="991"
   inkscape:window-x="-9"
   inkscape:window-y="-9"
   inkscape:window-maximized="1"
   inkscape:current-layer="Слой_1" />
<g
   id="SOFA"
   transform="translate(-597.868,-658.72932)">
			<path
   fill="#fcd4d0"
   d="m 4402.132,1653.402 v 1056.305 c 0,133.701 -108.377,242.089 -242.078,242.089 h -679.427 c -117.027,0 -214.662,-83.044 -237.192,-193.417 -0.323,-6.805 -1.413,-13.535 -3.235,-20.2 -18.42,-67.05 -111.677,-126.583 -250.641,-168.546 -130.788,-39.505 -302.074,-63.448 -489.559,-63.448 -187.485,0 -358.77,23.943 -489.559,63.448 -138.952,41.953 -232.199,101.486 -250.63,168.525 -1.833,6.676 -2.933,13.417 -3.246,20.233 -22.53,110.372 -120.165,193.406 -237.192,193.406 H 839.957 c -133.7,0 -242.089,-108.378 -242.089,-242.078 V 1653.402 c 0,-182.782 148.184,-330.967 330.978,-330.967 h 103.05 c 42.902,-59.327 98.401,-106.986 161.471,-140.322 66.856,-35.342 142.21,-54.593 220.087,-54.593 h 192.51 c 101.615,-107.946 281.27,-179.665 485.935,-179.665 155.022,0 295.689,41.144 398.966,108 105.401,-66.866 248.958,-108 407.162,-108 208.871,0 392.225,71.708 495.933,179.655 h 192.597 c 77.867,0 153.232,19.251 220.076,54.593 63.081,33.347 118.591,81.006 161.482,140.333 h 103.05 c 182.793,-10e-4 330.967,148.173 330.967,330.966 z"
   id="path3" />
			<g
   id="g19">
				
					<path
   fill="none"
   stroke="#ffffff"
   stroke-width="6"
   stroke-linecap="round"
   stroke-linejoin="round"
   stroke-miterlimit="10"
   d="m 3090.308,2543.504 c -32.156,-14.477 -68.258,-27.773 -107.21,-39.659 -129.428,-39.505 -298.933,-63.448 -484.468,-63.448 -185.535,0 -355.04,23.943 -484.468,63.448 -52.42,15.993 -99.363,34.541 -138.399,55.085"
   id="path5" />
				
					<path
   fill="none"
   stroke="#ffffff"
   stroke-width="6"
   stroke-linecap="round"
   stroke-linejoin="round"
   stroke-miterlimit="10"
   d="m 1020.244,1319.199 c 77.87,0 150.447,39.418 192.841,104.737"
   id="path7" />
				
					<path
   fill="none"
   stroke="#ffffff"
   stroke-width="6"
   stroke-linecap="round"
   stroke-linejoin="round"
   stroke-miterlimit="10"
   d="m 1565.989,1123.136 c 77.87,0 150.447,39.418 192.841,104.736"
   id="path9" />
				
					<path
   fill="none"
   stroke="#ffffff"
   stroke-width="6"
   stroke-linecap="round"
   stroke-linejoin="round"
   stroke-miterlimit="10"
   d="m 4021.423,1319.199 c -77.87,0 -150.447,39.418 -192.841,104.737"
   id="path11" />
				
					<path
   fill="none"
   stroke="#ffffff"
   stroke-width="6"
   stroke-linecap="round"
   stroke-linejoin="round"
   stroke-miterlimit="10"
   d="m 4147.795,2093.771 h -532.47 c -122.527,0 -221.854,99.328 -221.854,221.854"
   id="path13" />
				
					<path
   fill="none"
   stroke="#ffffff"
   stroke-width="6"
   stroke-linecap="round"
   stroke-linejoin="round"
   stroke-miterlimit="10"
   d="m 3419.79,1123.136 c -77.87,0 -150.447,39.418 -192.841,104.736"
   id="path15" />
				
					<path
   fill="none"
   stroke="#ffffff"
   stroke-width="6"
   stroke-linecap="round"
   stroke-linejoin="round"
   stroke-miterlimit="10"
   d="m 828.581,2134.753 h 570.218 c 122.527,0 221.854,99.327 221.854,221.854"
   id="path17" />
			</g>
		</g><g
   id="WOMAN"
   transform="translate(-597.868,-658.72932)">
			<path
   id="DRESS"
   fill="#ff6e00"
   d="m 3859.78,1215.41 -125.8,417.14 c 0,0 52.31,46.39 79.02,109.59 69.48,164.47 -51.26,346.55 -229.79,346.55 h -327.15 c 18.61,-260.51 -100.59,-435.78 -100.59,-435.78 h 186.98 v -143.97 l -19.95,-45.9 c -23.07,-53.1 -17.9,-114.24 13.77,-162.71 l 109.58,-167.72 c 9.15,-14.01 24.76,-22.46 41.5,-22.46 h 288.13 c 55.32,0 96.39,51.28 84.3,105.26 z" />
			<g
   id="LEGS_5_">
				<path
   fill="#f1b104"
   d="m 2969.849,2864.996 56.484,-63.33 c 0,0 134.547,-452.468 153.155,-712.974 18.608,-260.506 -100.394,-435.431 -100.394,-435.431 h -113.773 c -120.714,0 -216.197,102.198 -207.995,222.634 20.168,296.147 161.976,886.127 160.935,922.909 -2.147,75.862 -34.353,108.783 -34.353,108.783 0,0 50.861,-3.258 85.941,-42.591 z"
   id="path23" />
				<path
   fill="#f1b104"
   d="m 2883.908,2907.587 c 0,0 32.206,-32.921 34.353,-108.783 1.041,-36.781 -31.839,-626.762 -52.008,-922.909 -8.202,-120.435 87.281,-222.634 207.995,-222.634 h 81.419 c 0,0 119.001,174.924 100.394,435.431 -18.607,260.507 -153.155,712.974 -153.155,712.974 l -56.484,63.33 c -24.167,27.096 -58.748,42.59 -95.055,42.59 h -67.459 z"
   id="path25" />
				
					<path
   fill="none"
   stroke="#ffffff"
   stroke-width="6"
   stroke-linecap="round"
   stroke-linejoin="round"
   stroke-miterlimit="10"
   d="m 2913.947,2798.803 c 1.041,-36.781 -27.525,-626.762 -47.694,-922.909 -8.202,-120.435 87.281,-222.634 207.995,-222.634"
   id="path27" />
				<path
   fill="#ff6e00"
   d="m 3051.7,2953.39 43.574,-60.907 c 4.466,-6.242 11.669,-9.945 19.343,-9.945 v 0 c 13.135,0 23.784,10.648 23.784,23.784 v 47.068 h 6.063 v -93.863 c 0,-26.207 -16.724,-49.492 -41.559,-57.861 v 0 l -56.688,63.559 c -24.037,26.95 -58.432,42.361 -94.544,42.361 h -67.766 l -50.054,32.535 c -4.491,2.919 -7.2,7.912 -7.2,13.269 z"
   id="path29" />
			</g>
			<g
   id="CLUTCH">
				<path
   fill="#f1b104"
   d="m 4099.44,2089.457 h -243.197 v -131.662 h 236.34 l 31.842,97.182 c 5.571,17.001 -7.095,34.48 -24.985,34.48 z"
   id="path32" />
				<path
   fill="#573240"
   d="m 3863.1,2089.457 h -13.712 c -17.89,0 -30.556,-17.479 -24.986,-34.48 l 31.842,-97.182 31.842,97.182 c 5.57,17.001 -7.096,34.48 -24.986,34.48 z"
   id="path34" />
				<g
   id="g40">
					<path
   fill="none"
   stroke="#573240"
   stroke-width="4"
   stroke-linecap="round"
   stroke-miterlimit="10"
   d="m 3856.243,1957.795 h 120.734 l -20.485,-32.178 c -2.551,-3.808 -6.833,-6.094 -11.416,-6.094 h -12.665"
   id="path36" />
					
						<circle
   fill="none"
   stroke="#573240"
   stroke-width="4"
   stroke-linecap="round"
   stroke-miterlimit="10"
   cx="3932.9431"
   cy="1928.683"
   r="9.1599998"
   id="circle38" />
				</g>
				<g
   id="g46">
					<path
   fill="none"
   stroke="#573240"
   stroke-width="4"
   stroke-linecap="round"
   stroke-miterlimit="10"
   d="m 4092.376,1957.795 h -120.734 l 20.486,-32.178 c 2.551,-3.808 6.833,-6.094 11.416,-6.094 h 12.665"
   id="path42" />
					
						<circle
   fill="none"
   stroke="#573240"
   stroke-width="4"
   stroke-linecap="round"
   stroke-miterlimit="10"
   cx="4015.676"
   cy="1928.683"
   r="9.1599998"
   id="circle44" />
				</g>
				<g
   id="g138">
					<g
   id="g64">
						<circle
   fill="#ffffff"
   cx="3883.5171"
   cy="1976.671"
   r="6.1960001"
   id="circle48" />
						<circle
   fill="#ffffff"
   cx="3911.104"
   cy="1976.671"
   r="6.1960001"
   id="circle50" />
						<circle
   fill="#ffffff"
   cx="3938.6909"
   cy="1976.671"
   r="6.1960001"
   id="circle52" />
						<circle
   fill="#ffffff"
   cx="3966.2791"
   cy="1976.671"
   r="6.1960001"
   id="circle54" />
						<circle
   fill="#ffffff"
   cx="3993.866"
   cy="1976.671"
   r="6.1960001"
   id="circle56" />
						<circle
   fill="#ffffff"
   cx="4021.4529"
   cy="1976.671"
   r="6.1960001"
   id="circle58" />
						<circle
   fill="#ffffff"
   cx="4049.04"
   cy="1976.671"
   r="6.1960001"
   id="circle60" />
						<circle
   fill="#ffffff"
   cx="4076.627"
   cy="1976.671"
   r="6.1960001"
   id="circle62" />
					</g>
					<g
   id="g82">
						<circle
   fill="#ffffff"
   cx="3890.606"
   cy="1997.937"
   r="6.1960001"
   id="circle66" />
						<circle
   fill="#ffffff"
   cx="3918.1931"
   cy="1997.937"
   r="6.1960001"
   id="circle68" />
						<circle
   fill="#ffffff"
   cx="3945.78"
   cy="1997.937"
   r="6.1960001"
   id="circle70" />
						<circle
   fill="#ffffff"
   cx="3973.3669"
   cy="1997.937"
   r="6.1960001"
   id="circle72" />
						<circle
   fill="#ffffff"
   cx="4000.9541"
   cy="1997.937"
   r="6.1960001"
   id="circle74" />
						<circle
   fill="#ffffff"
   cx="4028.542"
   cy="1997.937"
   r="6.1960001"
   id="circle76" />
						<circle
   fill="#ffffff"
   cx="4056.1289"
   cy="1997.937"
   r="6.1960001"
   id="circle78" />
						<circle
   fill="#ffffff"
   cx="4083.7161"
   cy="1997.937"
   r="6.1960001"
   id="circle80" />
					</g>
					<g
   id="g100">
						<circle
   fill="#ffffff"
   cx="3898.707"
   cy="2020.215"
   r="6.1960001"
   id="circle84" />
						<circle
   fill="#ffffff"
   cx="3926.2939"
   cy="2020.215"
   r="6.1960001"
   id="circle86" />
						<circle
   fill="#ffffff"
   cx="3953.8811"
   cy="2020.215"
   r="6.1960001"
   id="circle88" />
						<circle
   fill="#ffffff"
   cx="3981.469"
   cy="2020.215"
   r="6.1960001"
   id="circle90" />
						<circle
   fill="#ffffff"
   cx="4009.0559"
   cy="2020.215"
   r="6.1960001"
   id="circle92" />
						<circle
   fill="#ffffff"
   cx="4036.6431"
   cy="2020.215"
   r="6.1960001"
   id="circle94" />
						<circle
   fill="#ffffff"
   cx="4064.23"
   cy="2020.215"
   r="6.1960001"
   id="circle96" />
						<circle
   fill="#ffffff"
   cx="4091.8169"
   cy="2020.215"
   r="6.1960001"
   id="circle98" />
					</g>
					<g
   id="g118">
						<circle
   fill="#ffffff"
   cx="3904.783"
   cy="2042.494"
   r="6.1960001"
   id="circle102" />
						<circle
   fill="#ffffff"
   cx="3932.3701"
   cy="2042.494"
   r="6.1960001"
   id="circle104" />
						<circle
   fill="#ffffff"
   cx="3959.957"
   cy="2042.494"
   r="6.1960001"
   id="circle106" />
						<circle
   fill="#ffffff"
   cx="3987.5439"
   cy="2042.494"
   r="6.1960001"
   id="circle108" />
						<circle
   fill="#ffffff"
   cx="4015.1321"
   cy="2042.494"
   r="6.1960001"
   id="circle110" />
						<circle
   fill="#ffffff"
   cx="4042.719"
   cy="2042.494"
   r="6.1960001"
   id="circle112" />
						<circle
   fill="#ffffff"
   cx="4070.3059"
   cy="2042.494"
   r="6.1960001"
   id="circle114" />
						<circle
   fill="#ffffff"
   cx="4097.8931"
   cy="2042.494"
   r="6.1960001"
   id="circle116" />
					</g>
					<g
   id="g136">
						<circle
   fill="#ffffff"
   cx="3907.821"
   cy="2065.7849"
   r="6.1960001"
   id="circle120" />
						<circle
   fill="#ffffff"
   cx="3935.408"
   cy="2065.7849"
   r="6.1960001"
   id="circle122" />
						<circle
   fill="#ffffff"
   cx="3962.9951"
   cy="2065.7849"
   r="6.1960001"
   id="circle124" />
						<circle
   fill="#ffffff"
   cx="3990.582"
   cy="2065.7849"
   r="6.1960001"
   id="circle126" />
						<circle
   fill="#ffffff"
   cx="4018.1689"
   cy="2065.7849"
   r="6.1960001"
   id="circle128" />
						<circle
   fill="#ffffff"
   cx="4045.7571"
   cy="2065.7849"
   r="6.1960001"
   id="circle130" />
						<circle
   fill="#ffffff"
   cx="4073.344"
   cy="2065.7849"
   r="6.1960001"
   id="circle132" />
						<circle
   fill="#ffffff"
   cx="4100.9312"
   cy="2065.7849"
   r="6.1960001"
   id="circle134" />
					</g>
				</g>
			</g>
			<g
   id="HEAD_4_">
				<path
   id="NECK_1_"
   fill="#f1b104"
   d="m 3648.968,955.058 49.656,155.089 c 0,0 -88.306,154.8 -211.702,154.8 -104.489,0 10.323,-154.8 10.323,-154.8 v 0 c 33.418,0 60.51,-27.091 60.51,-60.51 v -94.58 h 91.213 z" />
				<g
   id="HAIR_1_">
					<path
   fill="#573240"
   d="m 3557.75,936.68 v 112.96 c 0,16.71 -6.77,31.84 -17.72,42.79 -10.95,10.95 -26.08,17.72 -42.79,17.72 0,0 -0.27,0.37 -0.79,1.07 -46.17,-0.25 -83.5,-31.24 -83.5,-69.42 0,-34.02 29.63,-62.32 68.76,-68.27 5.18,-23.96 26.9,-41.93 52.9,-41.93 8.28,0 16.13,1.82 23.14,5.08 z"
   id="path142" />
					<path
   fill="#573240"
   d="m 3683.27,886.25 c -1.09,25.17 -19.96,33.76 -45.84,33.76 -19.32,0 -36.47,-13.17 -43.94,-30.33 -12.89,9.92 -31.53,14.44 -50.93,10.81 -32.35,-6.06 -54.55,-32.5 -49.57,-59.06 4.97,-26.56 35.23,-43.17 67.58,-37.11 21.19,3.97 38.02,16.67 45.71,32.43 7.48,-4.19 17.71,-6.01 31.15,-4.75 25.78,2.42 47.25,21.8 45.84,54.25 z"
   id="path144" />
					<path
   fill="#573240"
   d="m 3812.88,1044.38 c 0,39.77 -36.64,72.01 -81.84,72.01 -45.2,0 -81.84,-32.24 -81.84,-72.01 0,-15.5 5.57,-29.85 15.04,-41.6 l -20.78,-64.91 c 8.91,-8.74 21.55,-14.19 35.56,-14.19 27.01,0 48.91,20.27 48.91,45.28 0,1.17 -0.05,2.33 -0.14,3.48 1.08,-0.04 2.16,-0.06 3.25,-0.06 45.2,0 81.84,32.24 81.84,72 z"
   id="path146" />
				</g>
				<path
   id="HEAD_3_"
   fill="#f1b104"
   d="m 3693.33,929.32 v 3.96 c 0,13.92 -11.29,25.21 -25.21,25.21 h -24.99 c -2.22,14.63 -12.15,27.17 -26.28,32.52 l -40.06,15.17 c -14.24,5.39 -30.02,-2.68 -33.97,-17.39 l -5.78,-21.47 c -2.19,-8.14 -3.3,-16.53 -3.3,-24.96 V 906.7 c 0,-26.06 21.13,-47.19 47.18,-47.19 h 9.71 c -0.75,3.63 -1.1,7.53 -1.1,11.64 0,25.2 22.01,48.86 47.9,48.86 1.67,0 3.32,-0.04 4.93,-0.12 0.27,-8.77 7.46,-15.79 16.3,-15.79 h 9.46 c 13.92,0 25.21,11.29 25.21,25.22 z" />
				<g
   id="FACE_1_">
					<path
   fill="none"
   stroke="#573240"
   stroke-width="5"
   stroke-linecap="round"
   stroke-miterlimit="10"
   d="m 3653.136,932.47 c 0,-9.712 7.873,-17.585 17.585,-17.585"
   id="path150" />
					<path
   fill="none"
   stroke="#573240"
   stroke-width="5"
   stroke-linecap="round"
   stroke-miterlimit="10"
   d="m 3585.553,960.156 c 0,0 -9.107,8.8 -24.09,6.178"
   id="path152" />
					<path
   fill="none"
   stroke="#573240"
   stroke-width="5"
   stroke-linecap="round"
   stroke-miterlimit="10"
   d="m 3532.865,900.626 c 5.741,-2.92 13.05,-2.776 19.674,0.19 12.456,5.576 8.639,50.187 8.639,50.187"
   id="path154" />
					<path
   fill="none"
   stroke="#573240"
   stroke-width="5"
   stroke-linecap="round"
   stroke-miterlimit="10"
   d="m 3540.662,989.872 c 3.955,14.701 19.736,22.776 33.972,17.384 l 42.212,-14.094 c 16.103,-6.099 26.624,-15.757 26.624,-32.976"
   id="path156" />
					<ellipse
   fill="#573240"
   cx="3543.5129"
   cy="924.54199"
   rx="4.3140001"
   ry="6.8899999"
   id="ellipse158" />
					<path
   fill="none"
   stroke="#573240"
   stroke-width="5"
   stroke-linecap="round"
   stroke-miterlimit="10"
   d="m 3580.365,900.912 c 7.085,-3.815 18.503,-3.618 26.219,1.275"
   id="path160" />
					<ellipse
   fill="#573240"
   cx="3591.853"
   cy="924.54199"
   rx="4.3140001"
   ry="6.8899999"
   id="ellipse162" />
				</g>
			</g>
		</g><g
   id="MAN"
   transform="translate(-597.868,-658.72932)">
			<g
   id="LEGS_4_">
				<path
   id="LEGS_3_"
   fill="#573240"
   d="m 2296.75,2669.28 v -721.23 h 209.62 z m 469.11,-972.54 -654.33,-98.46 c -141.34,-17.53 -234.92,108.41 -207.11,248.09 l 105.43,939.82 c 19.11,-2.47 41.23,-3.77 61.8,-3.77 69.24,0 132.34,14.8 177.43,38.62 l 26.46,-78.79 0.01,-0.02 c 0,0 0.62,17.6 21.2,34.67 11.84,9.81 30.3,19.46 59.05,25.47 58.28,12.19 137.73,-29.34 208.18,11.76 1.82,1.06 3.57,2.16 5.26,3.3 l 327.78,-900.67 c 38.48,-98.56 -26.15,-206.99 -131.16,-220.02 z" />
				<g
   id="SHOES_3_">
					<g
   id="g170">
						<path
   id="RIGHT_1_"
   fill="#b2ddda"
   d="m 1945.157,2859.323 c -12.316,11.755 -4.498,33.503 12.039,33.503 H 2259.9 c 19.222,0 35.19,-15.278 37.558,-35.223 -38.643,-44.327 -125.817,-75.18 -225.803,-75.18 -20.637,0 -42.823,1.311 -61.979,3.791 z" />
						<path
   id="RIGHT_3_"
   fill="none"
   stroke="#573240"
   stroke-width="7"
   stroke-linecap="round"
   stroke-miterlimit="10"
   d="m 1934.879,2874.01 c 0.737,9.241 7.667,17.737 18.002,17.737 h 302.705 c 19.222,0 39.171,-18.285 38.636,-40.615" />
					</g>
					<g
   id="g176">
						<path
   fill="#b2ddda"
   d="m 2615.748,2891.747 h -251.402 l -114.198,-73.904 25.402,-75.618 c 0,0 1.533,43.686 80.248,60.147 58.283,12.188 137.731,-29.343 208.177,11.753 45.659,26.636 51.773,77.622 51.773,77.622 z"
   id="path172" />
						<polyline
   fill="none"
   stroke="#573240"
   stroke-width="7"
   stroke-linecap="round"
   stroke-miterlimit="10"
   points="        2615.748,2891.747 2364.346,2891.747 2251.227,2817.843       "
   id="polyline174" />
					</g>
				</g>
			</g>
			<g
   id="HEAD">
				<polygon
   id="NECK"
   fill="#ffffff"
   stroke="#573240"
   stroke-width="4"
   stroke-linecap="round"
   stroke-miterlimit="10"
   points="2440.42,851.62 2414.37,780.64 2280.6,788.42 2275.6,856.43 2355.93,884.6 " />
				<path
   id="HAIR"
   fill="#ff6e00"
   d="m 2414.292,743.077 -3.417,-28.896 c -1.195,-11.154 -8.777,-20.595 -19.42,-24.143 -38.989,-12.995 -132.314,-46.538 -165.164,-23.338 -37.314,26.353 26.549,69.884 26.549,69.884 0,0 60.731,15.685 77.006,14.219 16.276,-1.464 84.446,-7.726 84.446,-7.726 z" />
				<path
   id="HEAD_2_"
   fill="#ffffff"
   stroke="#573240"
   stroke-width="4"
   stroke-linecap="round"
   stroke-miterlimit="10"
   d="m 2382.882,786.624 -3.51,23.749 c -1.889,12.781 -12.287,22.603 -25.155,23.762 l -70.683,6.363 c -12.989,1.169 -24.466,-8.412 -25.635,-21.401 l -6.484,-72.021 c -2.303,-25.586 16.571,-48.194 42.156,-50.497 l 27.604,-2.485 c 13.807,-1.243 26.771,6.802 31.786,19.726 l 7.77,20.025 c 2.908,7.493 10.423,12.157 18.428,11.437 v 0 0 c -0.833,-9.251 5.992,-17.426 15.243,-18.259 l 4.812,-0.433 c 16.042,-1.444 30.217,10.39 31.661,26.432 v 0 c 1.444,16.042 -10.389,30.217 -26.431,31.661 z" />
				<g
   id="FACE">
					<path
   fill="none"
   stroke="#573240"
   stroke-width="5"
   stroke-linecap="round"
   stroke-miterlimit="10"
   d="m 2408.201,742.443 c -8.103,0.729 -14.08,7.89 -13.351,15.992"
   id="path183" />
					<path
   fill="none"
   stroke="#573240"
   stroke-width="5"
   stroke-linecap="round"
   stroke-miterlimit="10"
   d="m 2295.848,799.748 c 9.819,3.501 20.358,-0.898 23.541,-9.824"
   id="path185" />
					<path
   fill="none"
   stroke="#573240"
   stroke-width="5"
   stroke-linecap="round"
   stroke-miterlimit="10"
   d="m 2276.844,742.354 3.502,38.9 c 0.373,4.139 4.484,6.866 8.442,5.601 l 8.139,-2.238"
   id="path187" />
					<path
   fill="#ff6e00"
   d="m 2334.156,744.522 -23.785,-0.811 c -2.564,-0.087 -4.572,-2.237 -4.484,-4.801 l 0.128,-3.751 c 0.087,-2.564 2.237,-4.572 4.801,-4.484 l 23.785,0.811 c 2.564,0.087 4.572,2.237 4.484,4.801 l -0.128,3.751 c -0.087,2.564 -2.237,4.571 -4.801,4.484 z"
   id="path189" />
					<path
   fill="#ff6e00"
   d="m 2274.205,733.838 -23.525,3.605 c -2.536,0.389 -4.277,2.759 -3.888,5.295 l 0.569,3.71 c 0.388,2.536 2.759,4.277 5.295,3.888 l 23.524,-3.605 c 2.536,-0.389 4.277,-2.759 3.888,-5.295 l -0.569,-3.71 c -0.388,-2.536 -2.758,-4.276 -5.294,-3.888 z"
   id="path191" />
					
						<ellipse
   transform="matrix(0.996,-0.0897,0.0897,0.996,-58.8975,211.013)"
   fill="#573240"
   cx="2319.2539"
   cy="761.07202"
   rx="4.2940001"
   ry="6.4489999"
   id="ellipse193" />
					
						<ellipse
   transform="matrix(0.996,-0.0897,0.0897,0.996,-59.5733,206.0251)"
   fill="#573240"
   cx="2263.3989"
   cy="766.09998"
   rx="4.2940001"
   ry="6.4489999"
   id="ellipse195" />
				</g>
			</g>
			<g
   id="SHIRT">
				<path
   fill="#f1b104"
   d="m 1868.313,1561.258 c -58.128,-8.774 -95.404,-66.518 -79.469,-123.103 l 97.307,-345.535 c 18.25,-66.73 68.96,-119.74 134.81,-140.95 l 257.64,-64.82 76.45,-5 98.88,5 254.53,75.57 c 64.55,20.79 114.63,72.18 133.74,137.25 l 78.74,254.13 c 28.52,92.04 -40.27,185.36 -136.62,185.36 h -18.69 l 0.23,157.58 z"
   id="path199" />
				<path
   fill="#b2ddda"
   d="m 2489.4,896.63 -80.48,27.5 -52.91,-37.58 -50.69,36.5 -71.65,-24.87 34.93,-40 c 2.53,-3.32 6.91,-4.63 10.84,-3.22 l 76.08,24.58 82.18,-30.42 c 2.89,-1.11 6.17,-0.35 8.28,1.91 z"
   id="path201" />
			</g>
		</g><g
   id="TABLE"
   transform="translate(-597.868,-658.72932)">
			<g
   id="g211">
				<path
   fill="none"
   stroke="#f1b104"
   stroke-width="5"
   stroke-miterlimit="10"
   d="m 2600.042,2110.5 v 570.105 c 0,123.804 74.526,229.492 179.432,271.112"
   id="path205" />
				<path
   fill="none"
   stroke="#f1b104"
   stroke-width="5"
   stroke-miterlimit="10"
   d="m 2546.484,2110.5 v 570.105 c 0,128.787 -80.646,237.97 -192.243,275.823"
   id="path207" />
				<path
   fill="none"
   stroke="#f1b104"
   stroke-width="5"
   stroke-miterlimit="10"
   d="m 2546.484,2694.495 c 0,-14.79 11.99,-26.779 26.779,-26.779 v 0 c 14.79,0 26.779,11.99 26.779,26.779"
   id="path209" />
			</g>
			<ellipse
   fill="#ffffff"
   cx="2550.4519"
   cy="1804.251"
   rx="1111.627"
   ry="304.94101"
   id="ellipse213" />
		</g><g
   id="WOMAN_x27_S_HAND"
   transform="translate(-597.868,-658.72932)">
			<g
   id="MENU">
				<polygon
   fill="#b2ddda"
   points="2838.009,1264.952 3269.653,1264.952 3385.278,1652.496 2953.634,1652.496 "
   id="polygon216" />
				<polygon
   fill="#573240"
   points="2838.009,1264.952 3020.007,1123.136 3063.146,1264.952 "
   id="polygon218" />
				
					<path
   fill="none"
   stroke="#ffffff"
   stroke-width="6"
   stroke-linecap="round"
   stroke-linejoin="round"
   stroke-miterlimit="10"
   d="m 2991.592,1400.82 c 15.374,-26.003 47.093,-43.841 83.739,-43.841 36.637,0 68.355,17.838 83.73,43.841"
   id="path220" />
				
					<line
   fill="none"
   stroke="#ffffff"
   stroke-width="6"
   stroke-linecap="round"
   stroke-linejoin="round"
   stroke-miterlimit="10"
   x1="2960.605"
   y1="1423.494"
   x2="3200.5161"
   y2="1423.494"
   id="line222" />
				
					<line
   fill="none"
   stroke="#ffffff"
   stroke-width="6"
   stroke-linecap="round"
   stroke-linejoin="round"
   stroke-miterlimit="10"
   x1="2968.155"
   y1="1448.299"
   x2="3208.0649"
   y2="1448.299"
   id="line224" />
			</g>
			<g
   id="HAND_3_">
				<path
   id="HAND_4_"
   fill="#f1b104"
   d="m 3867.869,1197.639 v 0 c 0,36.844 -11.184,72.811 -32.082,103.155 -53.15,77.175 -159.73,231.931 -221.61,321.78 -29.72,43.154 -78.761,68.921 -131.158,68.921 h -440.372 c -26.974,0 -53.72,-4.948 -78.909,-14.597 l -58.158,-22.279 c -19.548,-7.489 -32.455,-26.255 -32.455,-47.188 v -112.048 c 0,-14.42 11.69,-26.11 26.11,-26.11 v 0 l 12.465,42.576 c 3.584,12.242 14.78,20.678 27.535,20.748 l 61.858,0.326 c 4.713,0.025 6.176,-6.366 1.92,-8.393 l -19.28,-9.184 c 0,0 -23.252,-13.513 -22.53,-34.975 h 91.108 c 7.234,0 14.244,2.506 19.839,7.092 l 37.76,22.242 h 311.25 c 30.078,0 58.148,-15.098 74.728,-40.193 l 212.548,-321.709 c 15.534,-23.512 41.833,-37.657 70.013,-37.657 h 1.926 c 48.323,0 87.494,39.172 87.494,87.493 z" />
				<g
   id="CONTOURS">
					<path
   fill="none"
   stroke="#573240"
   stroke-width="4"
   stroke-linecap="round"
   stroke-miterlimit="10"
   d="m 2945.127,1639.308 -41.678,-15.966 c -19.548,-7.489 -32.455,-24.749 -30.032,-71.776"
   id="path228" />
					<path
   fill="none"
   stroke="#573240"
   stroke-width="4"
   stroke-linecap="round"
   stroke-miterlimit="10"
   d="m 2946.132,1608.032 -41.679,-15.966 c -19.548,-7.489 -32.417,-28.484 -31.328,-72.935"
   id="path230" />
					<path
   fill="none"
   stroke="#573240"
   stroke-width="4"
   stroke-linecap="round"
   stroke-miterlimit="10"
   d="m 2946.839,1572.029 -43.416,-16.631 c -19.548,-7.489 -30.298,-25.176 -30.298,-46.11"
   id="path232" />
					<path
   fill="none"
   stroke="#573240"
   stroke-width="4"
   stroke-linecap="round"
   stroke-miterlimit="10"
   d="m 2873.125,1564.291 v -68.909 c 0,-14.42 11.69,-26.11 26.11,-26.11 v 0"
   id="path234" />
				</g>
			</g>
		</g><g
   id="MAN_x27_S_HAND_1_"
   transform="translate(-597.868,-658.72932)">
			<g
   id="DISH">
				
					<ellipse
   fill="#ffffff"
   stroke="#b2ddda"
   stroke-width="4"
   stroke-miterlimit="10"
   cx="2591.271"
   cy="1646.302"
   rx="201.853"
   ry="119.117"
   id="ellipse239" />
				<g
   id="g251">
					<path
   fill="none"
   stroke="#f1b104"
   stroke-width="5"
   stroke-linecap="round"
   stroke-miterlimit="10"
   d="m 2731.647,1641.504 c -31.8,37.89 -119.626,49.542 -189.454,39.172 -55.863,-8.296 -83.792,-32.568 -62.382,-54.213 17.128,-17.316 67.241,-25.974 111.931,-19.337 35.752,5.309 53.627,20.844 39.925,34.697 -10.962,11.083 -43.034,16.623 -71.636,12.376 -22.881,-3.398 -34.321,-13.34 -25.552,-22.206 7.016,-7.093 27.542,-10.639 45.847,-7.921 14.644,2.175 21.966,8.537 16.353,14.212 -4.49,4.539 -17.627,6.809 -29.342,5.069 -9.372,-1.392 -14.058,-5.464 -10.466,-9.095"
   id="path241" />
					<path
   fill="none"
   stroke="#f1b104"
   stroke-width="5"
   stroke-linecap="round"
   stroke-miterlimit="10"
   d="m 2471.505,1620.268 c 14.104,-19.857 62.159,-36.5 107.334,-37.174"
   id="path243" />
					<path
   fill="none"
   stroke="#f1b104"
   stroke-width="5"
   stroke-linecap="round"
   stroke-miterlimit="10"
   d="m 2709.698,1659.839 c -29.502,37.89 -105.591,49.542 -170.375,39.172"
   id="path245" />
					<path
   fill="none"
   stroke="#f1b104"
   stroke-width="5"
   stroke-linecap="round"
   stroke-miterlimit="10"
   d="m 2498.461,1698.548 c 22.237,-4.819 33.354,-18.919 24.832,-31.494 -6.818,-10.059 -26.766,-15.089 -44.556,-11.233 -14.231,3.084 -21.347,12.108 -15.893,20.156 4.364,6.438 17.13,9.657 28.516,7.189 9.108,-1.974 13.662,-7.749 10.171,-12.9"
   id="path247" />
					<path
   fill="none"
   stroke="#f1b104"
   stroke-width="5"
   stroke-linecap="round"
   stroke-miterlimit="10"
   d="m 2690.502,1668.444 c 17.208,-4.273 25.812,-16.777 19.217,-27.927 -5.276,-8.92 -17.478,-13.38 -31.245,-9.961 -11.013,2.735 -16.955,9.908 -13.377,16.795 3.058,5.886 8.943,7.485 17.753,5.297 7.049,-1.75 12.108,-10.573 6.793,-12.517"
   id="path249" />
				</g>
				<g
   id="g257">
					
						<line
   fill="none"
   stroke="#573240"
   stroke-width="4"
   stroke-linecap="round"
   stroke-miterlimit="10"
   x1="2583.0339"
   y1="1314.5909"
   x2="2670.1479"
   y2="1574.799"
   id="line253" />
					<path
   fill="none"
   stroke="#573240"
   stroke-width="4"
   stroke-linecap="round"
   stroke-miterlimit="10"
   d="m 2648.22,1581.823 -16.208,-37.689 c -5.093,-11.841 1.023,-25.506 13.246,-29.598 l 7.617,-2.198 c 12.223,-4.092 25.333,3.136 28.396,15.657 l 9.75,39.851"
   id="path255" />
				</g>
				<g
   id="g273">
					<circle
   fill="#ff6e00"
   cx="2508.533"
   cy="1604.95"
   r="23.187"
   id="circle259" />
					<path
   fill="none"
   stroke="#f1b104"
   stroke-width="5"
   stroke-linecap="round"
   stroke-miterlimit="10"
   d="m 2689.951,1540.109 c 3.969,0 10.594,3.494 6.31,7.515 -2.306,2.164 -16.542,5.725 -36.947,5.725 -20.405,0 -34.526,-5.849 -36.947,-7.882 -4.035,-3.39 -1.327,-7.459 2.832,-7.459"
   id="path261" />
					<path
   fill="none"
   stroke="#f1b104"
   stroke-width="5"
   stroke-linecap="round"
   stroke-miterlimit="10"
   d="m 2686.074,1550.956 c 4.998,-1.172 6.325,1.593 5.314,4.015 -1.219,2.918 -7.374,9.103 -28.155,12.212 -20.781,3.109 -38.943,-0.165 -39.553,-3.268 -0.608,-3.091 1.832,-5.367 8.065,-6.441"
   id="path263" />
					<path
   fill="none"
   stroke="#f1b104"
   stroke-width="5"
   stroke-linecap="round"
   stroke-miterlimit="10"
   d="m 2685.891,1560.379 c 5.887,-1.831 17.875,7.049 9.465,14.42 -8.409,7.371 -89.54,-4.82 -85.176,16.099 3.552,17.023 113.505,31.827 111.349,5.457 -1.124,-13.748 -32.614,-14.617 -29.851,1.804"
   id="path265" />
					<circle
   fill="#ff6e00"
   cx="2618.6121"
   cy="1654.524"
   r="21.424"
   id="circle267" />
					<circle
   fill="#ff6e00"
   cx="2576.3711"
   cy="1664.1"
   r="12.435"
   id="circle269" />
					<circle
   fill="#ff6e00"
   cx="2690.0271"
   cy="1679.567"
   r="21.910999"
   id="circle271" />
				</g>
			</g>
			<g
   id="HAND">
				<g
   id="HAND_2_">
					<path
   fill="#f1b104"
   d="m 2392.92,1333.43 -356.79,267.52 c -27.37,20.51 -60.66,31.61 -94.86,31.61 -44.84,0 -84.39,-18.33 -112.75,-47.22 -37.58,-38.32 -55.46,-95.2 -39.82,-152.56 h 0.01 c 17.04,-62.44 63.71,-112.52 124.8,-133.92 l 355.08,-124.43 c 38.28,-13.41 55.06,-19.95 88.29,-22.03 -3.02,0.37 -6.02,1 -8.99,1.9 -36.72,11.1 -54.6,58.35 -39.94,106.87 12.97,42.91 54.48,80.33 84.97,72.26 z"
   id="path276" />
					<path
   fill="none"
   stroke="#573240"
   stroke-width="4"
   stroke-linecap="round"
   stroke-miterlimit="10"
   d="m 1913.507,1298.856 355.082,-130.896 c 45.296,-15.876 100.867,-14.956 128.966,-14.118 l 11.863,167.22 -373.287,279.889"
   id="path278" />
					<path
   fill="#573240"
   d="m 2440.922,1220.992 c 14.661,48.522 1.033,77.947 -36.703,106.866 -30.446,23.332 -81.605,-18.168 -96.265,-66.69 -14.661,-48.522 3.22,-95.772 39.939,-106.866 36.717,-11.094 78.368,18.168 93.029,66.69 z"
   id="path280" />
				</g>
				<g
   id="ARM">
					<path
   fill="#ffffff"
   stroke="#573240"
   stroke-width="4"
   stroke-linecap="round"
   stroke-miterlimit="10"
   d="m 2489.83,1309.9 c 2.83,0 5.48,1.58 6.79,4.15 1.9,3.68 0.51,8.21 -3.11,10.2 l -13.79,7.57 c -2.2,1.2 -2.97,3.99 -1.7,6.15 4.97,8.44 13.87,13.14 23.01,13.14 4.53,0 9.11,-1.15 13.3,-3.57 l 68.01,-34.11 22.18,66.4 7.12,-4.24 c 9.15,-5.46 13.81,-16.12 11.58,-26.54 l -21.85,-102.23 c -4.26,-19.05 -17.85,-34.67 -36.12,-41.54 l -109.01,-40.97 c -18.66,-7.18 -38.53,-10.79 -58.54,-10.64 l -48.81,0.63 c -36.72,11.1 -55.6,58.35 -40.94,106.87 6.4,21.17 21.74,40.01 37.29,53.7 l 26.8,-21.21 c 8.55,10.9 18.71,15.86 31.39,17.17 z"
   id="path283" />
					
						<line
   fill="none"
   stroke="#573240"
   stroke-width="4"
   stroke-linecap="round"
   stroke-miterlimit="10"
   x1="2564.311"
   y1="1247.191"
   x2="2582.344"
   y2="1313.427"
   id="line285" />
					
						<line
   fill="none"
   stroke="#573240"
   stroke-width="4"
   stroke-linecap="round"
   stroke-miterlimit="10"
   x1="2556.46"
   y1="1325.29"
   x2="2538.427"
   y2="1259.0551"
   id="line287" />
					
						<line
   fill="none"
   stroke="#573240"
   stroke-width="4"
   stroke-linecap="round"
   stroke-miterlimit="10"
   x1="2533.812"
   y1="1337.1541"
   x2="2515.7791"
   y2="1270.918"
   id="line289" />
				</g>
			</g>
		</g><g
   id="FOOD__x26__DRINKS"
   transform="translate(-597.868,-658.72932)">
			<g
   id="CHEESECAKE">
				<ellipse
   fill="#b2ddda"
   cx="2873.8091"
   cy="1906.178"
   rx="137.052"
   ry="107.534"
   id="ellipse294" />
				<g
   id="g320">
					<path
   fill="#ffffff"
   d="m 2983.247,1946.655 h -198.341 c -4.166,0 -7.543,-3.377 -7.543,-7.543 v -37.833 h 205.884 z"
   id="path296" />
					<path
   fill="#ff6e00"
   d="m 2983.247,1901.278 h -205.884 c 0,0 24.337,-52.359 99.226,-66.537 z"
   id="path298" />
					<g
   id="g318">
						<circle
   fill="#fcd4d0"
   cx="2858.7261"
   cy="1840.359"
   r="8.7290001"
   id="circle300" />
						<path
   fill="#f1b104"
   d="m 2788.645,1851.179 c 9.133,-5.733 21.344,-4.214 28.819,4.115 1.164,1.297 2.146,2.665 2.946,4.135 -9.118,5.75 -21.329,4.23 -28.804,-4.098 -1.165,-1.297 -2.145,-2.697 -2.961,-4.152 z"
   id="path302" />
						<circle
   fill="#573240"
   cx="2822.782"
   cy="1844.873"
   r="15.02"
   id="circle304" />
						<path
   fill="#f1b104"
   d="m 2853.388,1826.063 c 1.7,10.648 -4.479,21.29 -15.069,24.908 -1.649,0.564 -3.292,0.932 -4.958,1.092 -1.721,-10.641 4.458,-21.282 15.047,-24.901 1.65,-0.563 3.322,-0.917 4.98,-1.099 z"
   id="path306" />
						<circle
   fill="#573240"
   cx="2798.26"
   cy="1871.3571"
   r="13.145"
   id="circle308" />
						<circle
   fill="#573240"
   cx="2842.0471"
   cy="1853.426"
   r="9.4259996"
   id="circle310" />
						<circle
   fill="#fcd4d0"
   cx="2828.376"
   cy="1859.8929"
   r="9.4259996"
   id="circle312" />
						<circle
   fill="#fcd4d0"
   cx="2820.4099"
   cy="1880.3621"
   r="7.566"
   id="circle314" />
						<circle
   fill="#573240"
   cx="2862.9709"
   cy="1868.347"
   r="8.5389996"
   id="circle316" />
					</g>
				</g>
			</g>
			<g
   id="JUICE">
				<path
   fill="none"
   stroke="#573240"
   stroke-width="4"
   stroke-linecap="round"
   stroke-miterlimit="10"
   d="m 2285.563,1453.812 c 0,22.529 -18.27,40.788 -40.799,40.788 -22.53,0 -40.789,-18.259 -40.789,-40.788 0,-22.53 18.259,-40.789 40.789,-40.789 22.529,0 40.799,18.259 40.799,40.789 z"
   id="path323" />
				<path
   fill="#ff6e00"
   d="m 2188.42,1650.74 c 6.73,-15.77 29.4,-27.37 56.34,-27.37 27,0 49.73,11.65 56.4,27.48 l 38.45,116.38 c 10.57,31.98 -13.26,64.94 -46.94,64.94 h -95.8 c -33.68,0 -57.5,-32.96 -46.93,-64.94 z"
   id="path325" />
				<path
   fill="none"
   stroke="#573240"
   stroke-width="4"
   stroke-linecap="round"
   stroke-miterlimit="10"
   d="m 2292.67,1832.167 h -95.802 c -33.681,0 -57.505,-32.959 -46.936,-64.936 l 54.043,-163.607 v -149.813 c 0,22.529 18.259,40.788 40.789,40.788 22.529,0 40.799,-18.259 40.799,-40.788 v 149.813 l 54.043,163.607 c 10.569,31.977 -13.255,64.936 -46.936,64.936 z"
   id="path327" />
				<g
   id="g347">
					<path
   fill="#ffffff"
   d="m 2259.611,1782.014 c -12.907,22.594 -37.383,24.969 -58.884,12.686 -21.501,-12.283 -31.887,-34.573 -18.98,-57.166 z"
   id="path329" />
					<path
   fill="none"
   stroke="#f1b104"
   stroke-width="4"
   stroke-linecap="round"
   stroke-miterlimit="10"
   d="m 2259.51,1784.146 c -10.017,18.052 -38.21,23.72 -59.872,11.613 -21.615,-12.082 -30.732,-37.956 -20.019,-57.173"
   id="path331" />
					<path
   fill="#f1b104"
   d="m 2214.009,1788.222 c -0.224,1.248 -1.515,2.005 -2.643,1.552 -2.061,-0.828 -4.108,-1.822 -6.125,-2.974 -2.017,-1.152 -3.913,-2.411 -5.672,-3.766 -0.963,-0.741 -0.967,-2.238 -0.01,-3.065 l 18.819,-16.174 z"
   id="path333" />
					<g
   id="g339">
						<path
   fill="#f1b104"
   d="m 2251.163,1779.72 c -1.872,2.631 -3.967,4.844 -6.24,6.656 -0.892,0.711 -2.157,0.512 -2.745,-0.423 l -13.604,-21.667 22.05,12.596 c 0.972,0.556 1.221,1.88 0.539,2.838 z"
   id="path335" />
						<path
   fill="#f1b104"
   d="m 2212.743,1755.243 -25.531,-0.692 c -1.105,-0.03 -1.92,-1.019 -1.76,-2.149 0.407,-2.878 1.249,-5.806 2.564,-8.755 0.479,-1.074 1.746,-1.532 2.718,-0.977 z"
   id="path337" />
					</g>
					<g
   id="g345">
						<path
   fill="#f1b104"
   d="m 2236.242,1791.152 c -4.964,1.708 -10.351,2.055 -15.826,1.17 -1.015,-0.164 -1.694,-1.123 -1.523,-2.176 l 4.097,-25.255 14.317,23.325 c 0.649,1.059 0.129,2.525 -1.065,2.936 z"
   id="path341" />
						<path
   fill="#f1b104"
   d="m 2214.36,1759.961 -19.436,16.16 c -0.832,0.692 -2.023,0.582 -2.672,-0.235 -3.354,-4.227 -5.64,-8.971 -6.593,-14.019 -0.232,-1.23 0.763,-2.401 1.994,-2.379 z"
   id="path343" />
					</g>
				</g>
				<g
   id="g379">
					<circle
   fill="#ffffff"
   cx="2248.5659"
   cy="1685.838"
   r="38.286999"
   id="circle349" />
					
						<circle
   fill="none"
   stroke="#f1b104"
   stroke-width="4"
   stroke-linecap="round"
   stroke-miterlimit="10"
   cx="2248.5659"
   cy="1685.838"
   r="38.722"
   id="circle351" />
					<g
   id="g377">
						<g
   id="g355">
							<path
   fill="#efaf00"
   d="m 2257.425,1657.879 -7.264,21.751 c -0.352,1.054 -2.365,1.09 -2.786,0.05 l -8.733,-21.611 c -0.58,-1.234 0.375,-2.553 2.068,-2.932 2.295,-0.512 4.678,-0.779 7.12,-0.779 2.606,0 5.151,0.306 7.595,0.888 1.483,0.354 2.332,1.509 2,2.633 z"
   id="path353" />
						</g>
						<g
   id="g359">
							<path
   fill="#efaf00"
   d="m 2257.425,1715.208 -7.264,-21.751 c -0.352,-1.054 -2.365,-1.09 -2.786,-0.05 l -8.733,21.611 c -0.58,1.234 0.375,2.553 2.068,2.932 2.295,0.512 4.678,0.779 7.12,0.779 2.606,0 5.151,-0.306 7.595,-0.888 1.483,-0.354 2.332,-1.509 2,-2.633 z"
   id="path357" />
						</g>
						<path
   fill="#efaf00"
   d="m 2281.453,1686.316 c 0,1.97 -0.162,3.904 -0.468,5.784 -0.241,1.479 -2.272,2.41 -4.156,1.877 l -21.827,-6.661 c -1.246,-0.38 -1.169,-1.701 0.116,-2.001 l 21.925,-5.121 c 1.921,-0.544 3.99,0.433 4.167,1.947 0.16,1.367 0.243,2.761 0.243,4.175 z"
   id="path361" />
						<g
   id="g367">
							<path
   fill="#efaf00"
   d="m 2276.197,1700.863 c -1.801,3.732 -4.241,7.077 -7.166,9.89 -1.371,1.319 -4.15,1.111 -5.17,-0.371 l -11.704,-17.816 c -0.59,-0.898 0.667,-1.849 1.898,-1.435 l 20.393,6.859 c 1.529,0.456 2.302,1.726 1.749,2.873 z"
   id="path363" />
							<path
   fill="#efaf00"
   d="m 2276.485,1674.422 -20.922,7.026 c -1.203,0.404 -2.448,-0.499 -1.923,-1.394 l 11.26,-19.183 c 0.932,-1.521 3.726,-1.822 5.153,-0.527 3.432,3.112 6.241,6.937 8.201,11.249 0.517,1.138 -0.262,2.38 -1.769,2.829 z"
   id="path365" />
						</g>
						<path
   fill="#efaf00"
   d="m 2216.969,1686.316 c 0,1.97 0.162,3.904 0.468,5.784 0.241,1.479 2.272,2.41 4.156,1.877 l 21.827,-6.661 c 1.246,-0.38 1.169,-1.701 -0.116,-2.001 l -21.925,-5.121 c -1.921,-0.544 -3.99,0.433 -4.167,1.947 -0.16,1.367 -0.243,2.761 -0.243,4.175 z"
   id="path369" />
						<g
   id="g375">
							<path
   fill="#efaf00"
   d="m 2221.355,1700.863 c 1.801,3.732 4.241,7.077 7.166,9.89 1.371,1.319 4.15,1.111 5.17,-0.371 l 11.704,-17.816 c 0.59,-0.898 -0.667,-1.849 -1.898,-1.435 l -20.393,6.859 c -1.53,0.456 -2.303,1.726 -1.749,2.873 z"
   id="path371" />
							<path
   fill="#efaf00"
   d="m 2221.937,1674.422 20.922,7.026 c 1.203,0.404 2.448,-0.499 1.923,-1.394 l -11.26,-19.183 c -0.932,-1.521 -3.726,-1.822 -5.153,-0.527 -3.432,3.112 -6.241,6.937 -8.201,11.249 -0.518,1.138 0.262,2.38 1.769,2.829 z"
   id="path373" />
						</g>
					</g>
				</g>
			</g>
			<g
   id="ICE_CREAM">
				<circle
   fill="#b2ddda"
   cx="1909.381"
   cy="1803.1331"
   r="38.605999"
   id="circle382" />
				<circle
   fill="#f1b104"
   cx="1995.868"
   cy="1818.3879"
   r="36.370998"
   id="circle384" />
				<path
   fill="none"
   stroke="#b2ddda"
   stroke-width="4"
   stroke-miterlimit="10"
   d="m 2053.866,1778.809 c 0,26.984 -44.531,48.866 -99.458,48.866 -54.927,0 -99.447,-21.883 -99.447,-48.866 0,-0.162 0,-0.313 0.011,-0.474 0.518,-26.768 44.833,-48.381 99.437,-48.381 54.604,0 98.93,21.613 99.448,48.381 0.01,0.161 0.01,0.312 0.01,0.474 z"
   id="path386" />
				<path
   fill="#ffffff"
   stroke="#b2ddda"
   stroke-width="4"
   stroke-miterlimit="10"
   d="m 1997.52,1903.14 c -7.59,6.35 -24.03,10.76 -43.11,10.76 -19.08,0 -35.53,-4.41 -43.11,-10.76 l 8.61,-20.74 0.43,-1.03 c 10.63,3.88 22.1,5.99 34.07,5.99 11.97,0 23.44,-2.11 34.07,-5.99 l 0.43,1.03 z"
   id="path388" />
				<circle
   fill="#fcd4d0"
   cx="1963.415"
   cy="1749.256"
   r="35.470001"
   id="circle390" />
				<path
   fill="#573240"
   d="m 1872.547,1643.225 c 1.381,-0.846 3.15,-0.31 3.839,1.122 l 65.992,137.187 c 3.24,6.735 9.378,11.562 16.645,13.307 7.634,1.834 15.016,7.883 19.284,16.757 6.679,13.884 3.198,29.408 -7.768,34.683 -10.966,5.275 -25.267,-1.695 -31.946,-15.579 -4.269,-8.874 -4.388,-18.417 -1.055,-25.526 3.172,-6.767 3.232,-14.576 -0.01,-21.31 l -65.929,-137.056 c -0.608,-1.264 -0.251,-2.852 0.946,-3.585 z"
   id="path392" />
				<path
   fill="#ffffff"
   stroke="#b2ddda"
   stroke-width="4"
   stroke-miterlimit="10"
   d="m 2053.87,1778.81 v 9.1 c 0,42.96 -27.24,79.56 -65.39,93.46 -10.63,3.88 -22.1,5.99 -34.07,5.99 -11.97,0 -23.44,-2.11 -34.07,-5.99 -38.15,-13.9 -65.38,-50.5 -65.38,-93.46 v -9.1 c 0,26.98 44.52,48.87 99.45,48.87 54.93,0 99.46,-21.89 99.46,-48.87 z"
   id="path394" />
			</g>
			<g
   id="COFFEE">
				<g
   id="g407">
					
						<ellipse
   fill="#ffffff"
   stroke="#b2ddda"
   stroke-width="4"
   stroke-miterlimit="10"
   cx="3148.0139"
   cy="1794.774"
   rx="99.889"
   ry="96.227997"
   id="ellipse397" />
					<path
   fill="#ffffff"
   stroke="#b2ddda"
   stroke-width="4"
   stroke-miterlimit="10"
   d="m 3095.396,1699.486 v 74.552 c 0,25.968 21.051,47.02 47.02,47.02 h 11.196 c 25.968,0 47.02,-21.051 47.02,-47.02 v -74.552 z"
   id="path399" />
					
						<ellipse
   fill="#ffffff"
   stroke="#b2ddda"
   stroke-width="4"
   stroke-miterlimit="10"
   cx="3148.0139"
   cy="1699.486"
   rx="52.618"
   ry="43.202999"
   id="ellipse401" />
					<circle
   fill="none"
   stroke="#b2ddda"
   stroke-width="4"
   stroke-miterlimit="10"
   cx="3219.0039"
   cy="1725.942"
   r="18.488001"
   id="circle403" />
					<path
   fill="#573240"
   d="m 3196.45,1710.547 c -6.1,17.235 -25.486,29.828 -48.439,29.828 -23.211,0 -42.752,-12.862 -48.625,-30.376 12.583,-11.879 29.56,-19.169 48.243,-19.169 18.972,0 36.177,7.506 48.821,19.717 z"
   id="path405" />
				</g>
				<path
   fill="#f1b104"
   d="m 3413.116,1835.236 c 0.164,1.616 -1.088,2.98 -2.682,2.98 h -152.599 c -7.491,0 -14.519,3.448 -19.253,9.253 -4.974,6.099 -13.646,10.138 -23.517,10.138 -15.444,0 -27.954,-9.89 -27.954,-22.087 0,-12.197 12.511,-22.087 27.954,-22.087 9.871,0 18.543,4.039 23.517,10.138 4.734,5.805 11.762,9.253 19.253,9.253 h 152.452 c 1.408,0 2.687,1.013 2.829,2.412 z"
   id="path409" />
			</g>
		</g><g
   id="GIRL"
   transform="translate(-597.868,-658.72932)">
			<g
   id="DRINK">
				<path
   fill="#ff6e00"
   d="m 1752.785,1867.288 h -100.299 l 0.011,-79.603 c 0.345,-22.346 22.659,-40.389 50.139,-40.389 27.48,0 49.794,18.043 50.139,40.389 z"
   id="path413" />
				<path
   fill="none"
   stroke="#573240"
   stroke-width="4"
   stroke-linecap="round"
   stroke-miterlimit="10"
   d="m 1752.785,1668.5 v 198.787 H 1652.486 V 1668.5 c 0,22.595 22.454,40.907 50.15,40.907 27.694,10e-4 50.149,-18.312 50.149,-40.907 z"
   id="path415" />
				<path
   fill="none"
   stroke="#573240"
   stroke-width="4"
   stroke-linecap="round"
   stroke-miterlimit="10"
   d="m 1752.785,1668.5 c 0,22.595 -22.454,40.907 -50.15,40.907 -27.696,0 -50.15,-18.313 -50.15,-40.907 0,-0.172 0,-0.355 0.011,-0.528 0.345,-22.347 22.659,-40.389 50.139,-40.389 27.48,0 49.794,18.042 50.139,40.389 0.011,0.173 0.011,0.356 0.011,0.528 z"
   id="path417" />
				<g
   id="g423">
					<path
   fill="none"
   stroke="#ff6e00"
   stroke-width="4"
   stroke-linecap="round"
   stroke-miterlimit="10"
   d="m 1702.635,1703.145 v -117.166 c 0,-20.357 -15.681,-37.278 -35.979,-38.825 l -128.392,-9.783"
   id="path419" />
					<circle
   fill="none"
   stroke="#ff6e00"
   stroke-width="4"
   stroke-miterlimit="10"
   cx="1608.958"
   cy="1558.304"
   r="15.572"
   id="circle421" />
				</g>
				
					<line
   fill="none"
   stroke="#ff6e00"
   stroke-width="4"
   stroke-linecap="round"
   stroke-miterlimit="10"
   x1="1702.635"
   y1="1715.406"
   x2="1702.635"
   y2="1756.438"
   id="line425" />
			</g>
			<g
   id="LEGS">
				<g
   id="RIGHT">
					<path
   id="PANTS_1_"
   fill="#b2ddda"
   d="m 1728.87,2188.9 c -69.42,85.14 -165.06,97.39 -170.87,98.06 l -79.42,-138.67 c -5.11,-8.72 -14.45,-14.07 -24.55,-14.04 l -78.33,0.3 0.78,-195.35 h 126.65 c 56.07,0 107.63,30.75 134.28,80.09 z" />
					<g
   id="LEG_1_">
						<path
   fill="#f1b104"
   d="m 1787.55,2299.17 c -72.67,54.17 -149.16,74.36 -165.5,78.22 l -64.33,-90.4 c 0,0 0.09,-0.01 0.28,-0.03 5.81,-0.67 101.45,-12.92 170.87,-98.06 0.12,-0.15 0.25,-0.3 0.37,-0.45 l 25.7,48.8 z"
   id="path429" />
						<path
   fill="#f1b104"
   d="m 1814.67,2350.67 c -20.93,9.69 -47.74,17.13 -73.8,22.26 -8.05,1.59 -11.84,-9.55 -4.51,-13.24 35.57,-17.91 63.12,-37.86 63.12,-37.86 z"
   id="path431" />
					</g>
					
						<path
   id="CONTOUR_1_"
   fill="none"
   stroke="#ffffff"
   stroke-width="5"
   stroke-linecap="round"
   stroke-linejoin="round"
   stroke-miterlimit="10"
   d="m 1557.715,2291.307 c 0,0 99.873,-14.605 171.528,-102.858" />
					<g
   id="SHOES_2_">
						<path
   fill="#ffffff"
   d="m 1855.09,2409.37 -188.44,30.06 -7.03,-9.56 201.83,-32.26 c 2.69,-0.31 4.28,-2.59 4.21,-4.89 2.19,7.49 -2.67,15.39 -10.57,16.65 z"
   id="path435" />
						<path
   fill="#573240"
   d="m 1861.449,2397.609 -201.834,32.261 -38.456,-52.27 c 14.241,-3.301 92.297,-23.198 166.391,-78.434 l 11.931,22.66 c 0,0 -27.547,19.949 -63.124,37.861 -7.327,3.689 -3.535,14.834 4.513,13.247 26.058,-5.138 52.877,-12.578 73.805,-22.266 l 0.227,0.436 48.924,38.035 c 3.367,2.61 1.853,7.995 -2.377,8.47 z"
   id="path437" />
					</g>
				</g>
				<g
   id="LEFT">
					<path
   id="PANTS"
   fill="#b2ddda"
   d="m 1600.777,2137.094 -22.594,149.899 c -110.017,28.623 -199.154,0 -199.154,0 v -133.452 c 0,-10.494 -8.498,-18.992 -18.981,-18.992 h -150.255 c -88.749,0 -160.684,-71.946 -160.684,-160.684 v -34.663 h 381.375 c 105.336,-10e-4 185.996,93.72 170.293,197.892 z" />
					<g
   id="LEG">
						<path
   fill="#f1b104"
   d="m 1482.44,2429.14 c 39.27,6.65 73.28,6.91 73.28,6.91 l -4.86,32.24 c -22.59,-4.6 -48.61,-14.5 -72.64,-25.81 -7.42,-3.49 -3.87,-14.71 4.22,-13.34 z"
   id="path442" />
						<path
   fill="#f1b104"
   d="m 1578.18,2286.99 -18.64,123.74 c -92.42,0.58 -167.08,-29.65 -180.51,-35.43 v -88.31 c 0,0 89.14,28.63 199.15,0 z"
   id="path444" />
					</g>
					
						<path
   id="CONTOUR"
   fill="none"
   stroke="#ffffff"
   stroke-width="5"
   stroke-linecap="round"
   stroke-linejoin="round"
   stroke-miterlimit="10"
   d="m 1049.108,1941.358 v 32.506 c 0,88.738 71.935,160.684 160.684,160.684 h 150.255 c 10.483,0 18.981,8.498 18.981,18.992 v 133.452 c 0,0 89.137,28.623 199.154,0 l 22.594,-149.899 c 15.703,-104.171 -64.957,-197.892 -170.294,-197.892 H 1400.4" />
					<g
   id="SHOES_1_">
						<path
   fill="#ffffff"
   d="m 1567.42,2531.67 -0.02,0.27 c -0.58,7.88 -9.02,12.61 -16.04,8.99 l -172.33,-88.87 v -11.87 l 181.69,93.63 c 2.62,1.51 5.61,0.2 6.7,-2.15 z"
   id="path448" />
						<path
   fill="#573240"
   d="m 1567.66,2528.4 -0.24,3.27 c -1.09,2.35 -4.08,3.66 -6.7,2.15 l -181.69,-93.63 v -64.89 c 13.43,5.78 88.09,36.01 180.51,35.43 l -3.82,25.32 c 0,0 -34.01,-0.26 -73.28,-6.91 -8.09,-1.37 -11.64,9.85 -4.22,13.34 24.03,11.31 50.05,21.21 72.64,25.81 l -0.07,0.48 z"
   id="path450" />
					</g>
				</g>
			</g>
			<path
   id="HAND_1_"
   fill="#f1b104"
   d="m 1490.063,1711.713 c 16.12,17.286 100.465,89.866 237.756,85.514 0,0 3.563,14.314 -6.257,20.039 -6.027,3.514 -34.307,13.991 -35.148,25.764 -0.477,6.68 31.49,6.68 44.372,-4.771 12.882,-11.451 14.791,-39.457 42.131,-35.64 l -11.353,78.184 c -8.699,26.41 -48.186,45.37 -75.831,48.357 -74.135,8.009 -195.699,10.569 -293.448,-75.469 z" />
			<g
   id="HEAD_1_">
				<path
   fill="#573240"
   d="m 1255.09,1563.83 c -10.45,17.99 -31.25,30.26 -55.21,30.26 -34.45,0 -62.38,-25.36 -62.38,-56.64 0,-29.94 25.6,-54.46 58.01,-56.49 3.93,-20.75 22.17,-36.45 44.07,-36.45 11.48,0 21.96,4.32 29.9,11.42 v -15.11 c 0,-33.97 28.85,-60.78 62.73,-58.29 l 47.77,3.56 c 25.72,1.92 43.61,26.4 37.63,51.49 l -18.81,72.98 h 0.22 c 26.4,0 47.8,21.4 47.8,47.8 0,26.4 -21.4,47.8 -47.8,47.8 -8.656,0 -16.774,-2.3 -23.777,-6.323 z"
   id="path456" />
				<path
   fill="#f1b104"
   d="m 1374.92,1533.08 v 59.08 c -20.21,-19.32 -46.4,-31.07 -74.16,-33.37 8.47,-7.39 13.83,-18.26 13.83,-30.39 0,-7.94 -2.29,-15.33 -6.26,-21.56 h -20.8 c -11.71,0 -21.21,-9.49 -21.21,-21.21 v -3.33 c 0,-11.71 9.5,-21.2 21.21,-21.2 h 5.67 c 8.67,0 15.7,7.03 15.7,15.7 v 3.49 c 0,-9.97 7.74,-18.15 17.68,-18.86 19.71,-1.4 51.25,-9.25 70.03,-42.7 1.57,-2.81 5.82,-1.95 6.14,1.26 l 7.31,72.05 c 2.16,21.33 -14.01,39.93 -35.14,41.04 z"
   id="path458" />
				<g
   id="g472">
					<path
   fill="none"
   stroke="#573240"
   stroke-width="4"
   stroke-linecap="round"
   stroke-miterlimit="10"
   d="m 1376.164,1535.184 h -20.261 c -19.427,0 -39.422,-10.41 -49.06,-27.279"
   id="path460" />
					<path
   fill="none"
   stroke="#573240"
   stroke-width="4"
   stroke-linecap="round"
   stroke-miterlimit="10"
   d="m 1298.755,1485.378 c 0,-7.16 -5.804,-12.965 -12.965,-12.965"
   id="path462" />
					
						<path
   fill="none"
   stroke="#573240"
   stroke-width="4"
   stroke-linecap="round"
   stroke-linejoin="round"
   stroke-miterlimit="10"
   d="m 1382.432,1503.673 c -6.917,1.852 -15.104,-2.253 -16.956,-9.17 l -5.578,4.277"
   id="path464" />
					<path
   fill="none"
   stroke="#573240"
   stroke-width="4"
   stroke-linecap="round"
   stroke-miterlimit="10"
   d="m 1408.656,1455.48 c -3.143,-7.251 -10.048,-10.206 -18.164,-6.789 -4.533,1.908 -16.537,19.204 -8.255,36.686"
   id="path466" />
					<ellipse
   fill="#573240"
   cx="1395.123"
   cy="1469.715"
   rx="3.698"
   ry="5.9640002"
   id="ellipse468" />
					<ellipse
   fill="#573240"
   cx="1357.376"
   cy="1469.715"
   rx="3.698"
   ry="5.9640002"
   id="ellipse470" />
				</g>
			</g>
			<g
   id="T-SHIRT">
				<path
   fill="#ff6e00"
   d="m 1490.063,1711.713 -111.494,-115.925 c -23,-23.914 -54.748,-37.428 -87.928,-37.428 v 0 c -45.725,0 -87.61,25.569 -108.508,66.239 L 1020.476,1942.2 h 379.926 l -8.116,-88.509 z"
   id="path475" />
				<path
   fill="none"
   stroke="#573240"
   stroke-width="4"
   stroke-linecap="round"
   stroke-miterlimit="10"
   d="m 1392.286,1853.691 c -20.173,-15.432 -82.676,-58.85 -109.394,-107.516"
   id="path477" />
			</g>
		</g>
</svg>
