<?xml version="1.0" encoding="utf-8"?>
<!-- Generator: Adobe Illustrator 26.1.0, SVG Export Plug-In . SVG Version: 6.00 Build 0)  -->
<svg version="1.1" id="Layer_1" xmlns="http://www.w3.org/2000/svg" xmlns:xlink="http://www.w3.org/1999/xlink" x="0px" y="0px"
	 viewBox="0 0 1332.8 402.9" enable-background="new 0 0 1332.8 402.9" xml:space="preserve">
<path fill="#FFFFFF" d="M1276.9,402.9H55.9C25,402.9,0,377.9,0,347V55.9C0,25,25,0,55.9,0h1220.9c30.9,0,55.9,25,55.9,55.9V347
	C1332.8,377.9,1307.7,402.9,1276.9,402.9z"/>
<g>
	<path fill="#4F4F4F" d="M371,93.4c1.6,3.6,3.3,7,4.7,10.7c10,26.3,8.6,52-4.4,77c-0.4,0.8-0.9,1.5-1.3,2.2
		c-1.7-1.3-3.2-2.9-4.6-4.6c0.1-0.2,0.3-0.3,0.4-0.5c6.1-11.5,9.5-23.7,10.1-36.6c0.4-7.2-0.3-14.3-1.8-21.4
		c-1.9-8.7-4.9-16.9-9.4-24.6c-5.1-8.8-11.5-16.6-19.4-23.1c-6.3-5.2-13.2-9.4-20.7-12.6c-9.9-4.2-20.2-6.5-30.9-6.9
		c-3.1-0.1-6.3,0.1-9.4,0.3c-4.8,0.3-9.6,1.1-14.2,2.3c-7.5,2-14.6,4.7-21.4,8.7c-8.8,5.2-16.6,11.5-23.1,19.4
		c-5.2,6.3-9.4,13.2-12.6,20.7c-4.2,9.8-6.4,19.9-6.9,30.5c-0.2,4.6,0.2,9.1,0.7,13.7c1.1,9.2,3.7,18,7.8,26.3
		c4.9,10.2,11.6,19.1,20.2,26.6c5,4.3,10.3,8.2,16.2,11.3c11.3,6,23.4,9.3,36.1,9.9c7.4,0.4,14.9-0.3,22.1-1.9
		c7.9-1.8,15.5-4.5,22.6-8.6c1.2,1.4,2.7,1.2,4.2,1c2.4-0.3,4.7-0.8,7.1-0.7c-10.6,7.6-22.4,12.5-35.2,14.9c-21,3.9-41.1,0.7-60-9.1
		c-0.5-0.2-0.8-0.6-1.4-0.5c-1.5-1.6-3.4-2.6-5.5-3.3c-0.2-0.7-0.9-0.9-1.4-1.2c-8.1-5.6-15.2-12.3-21.2-20.1
		c-1.4-1.8-2.4-3.9-4.1-5.4c-0.8-2-1.7-4-3.3-5.5c-1.5-3.9-3.6-7.5-5.1-11.4c-14.5-36.9-2.8-80.1,28.4-104.5
		c12.9-10.1,27.4-16.5,43.6-18.8c19.3-2.7,37.6,0.4,55,9.3c0.8,0.4,1.5,1.1,2.5,1c1.6,1.4,3.4,2.6,5.5,3.3c0.2,0.7,0.8,0.8,1.3,1.1
		c8.3,5.6,15.4,12.5,21.5,20.4c1.3,1.7,2.3,3.8,4,5.2C368.5,89.9,369.3,91.9,371,93.4z"/>
	<path fill="#65964A" d="M360.9,196.4c1,1.1,2.1,2.3,3.3,3.6c-2.7,0.4-5.2,0.7-7.6,1.1c-4.1,0.1-8.1,0.7-12.1,1.2
		c-0.4-0.4-0.9-0.7-1.3-1.1c-8.8-8.8-17.6-17.5-26.3-26.3c-0.4-0.4-0.8-0.9-1.1-1.3c2.9-1.6,5.6-3.5,7.8-6.1c3.7,2.1,7.7,3,11.9,3.2
		c0.2,0.3,0.4,0.7,0.7,1c6.1,6.2,12.3,12.3,18.4,18.4c0.7,0.7,1.4,0.8,2.3,0.9c-0.5,0.3-1,0.5-0.3,1.2
		C358,193.5,359.4,195,360.9,196.4z"/>
	<path fill="#90C861" d="M315.7,173.5c0.4,0.4,0.7,0.9,1.1,1.3c8.8,8.8,17.5,17.6,26.3,26.3c0.4,0.4,0.9,0.8,1.3,1.1
		c1.7,1.8,3.3,3.7,5.3,5.2c1,1.2,2,2.3,3.2,3.6c-3.3,0.7-6.6,0.6-9.8,1.4c-2.4-0.1-4.7,0.4-7.1,0.7c-1.6,0.2-3.1,0.4-4.2-1
		c-3.3-3.6-6.8-7-10.3-10.3c-0.2-2.1,0.8-4,0.8-6.1c0.2-9.2-3.7-16.1-11.6-20.8C312.5,174.8,314.1,174,315.7,173.5z"/>
	<path fill="#222222" d="M211.1,182.2c1.6,1.5,2.5,3.5,3.3,5.5c-2.5,2.5-5,5-7.4,7.5c-3,3.1-3,6.6,0,9.7
		c5.6,5.7,11.3,11.3,16.9,16.9c3.1,3,6.6,3,9.7,0c2.5-2.5,5-4.9,7.5-7.4c2.1,0.7,3.9,1.7,5.5,3.3c-3.1,3.1-6.1,6.3-9.3,9.3
		c-4.8,4.5-12.1,4.7-16.9,0.1c-6.4-6.1-12.6-12.3-18.7-18.7c-4.6-4.8-4.4-12.1,0.1-16.9C204.8,188.3,208,185.3,211.1,182.2z"/>
	<path fill="#222222" d="M371,93.4c-1.6-1.5-2.5-3.5-3.3-5.5c2.5-2.6,5.1-5.1,7.6-7.7c2.8-2.9,2.8-6.5,0-9.4
		c-5.7-5.7-11.4-11.4-17.1-17.1c-3.1-3-6.6-3-9.7,0c-2.5,2.5-5,5-7.5,7.4c-2-0.8-3.8-1.9-5.5-3.3c3.1-3.1,6.1-6.3,9.3-9.3
		c4.8-4.5,12.1-4.7,16.9-0.1c6.4,6.1,12.6,12.3,18.7,18.7c4.5,4.8,4.4,12.1-0.1,16.9C377.3,87.3,374.1,90.3,371,93.4z"/>
	<path fill="#90C861" d="M356.7,190.9c-0.9,0-1.6-0.2-2.3-0.9c-6.1-6.2-12.3-12.3-18.4-18.4c-0.3-0.3-0.4-0.6-0.7-1
		c6.9,0.3,13.7,0.4,20.4-1.5c3.2,3.2,6.4,6.3,9.6,9.5c1.4,1.7,2.9,3.2,4.6,4.6c1.7,1.8,3.4,3.6,5.3,5.7c-3.4,0.4-6.5,0.8-9.7,1.2
		C362.7,190.4,359.7,190.7,356.7,190.9z"/>
	<path fill="#4F4F4F" d="M349.8,207.5c-2-1.5-3.6-3.3-5.3-5.2c4-0.5,8-1.1,12.1-1.2C354.6,203.4,352.2,205.5,349.8,207.5z"/>
	<path fill="#4F4F4F" d="M356.7,190.9c3-0.3,5.9-0.5,8.9-0.8c-1.4,2.2-3.1,4.2-4.7,6.3c-1.5-1.4-2.9-2.9-4.4-4.3
		C355.7,191.5,356.2,191.3,356.7,190.9z"/>
	<path fill="#222222" d="M365.4,178.7c-3.2-3.2-6.4-6.3-9.6-9.5c0.5-0.3,0.9-0.5,1.4-0.7c5.9-3,9.7-7.6,11.4-14
		c3.1-11.2,3-22.5-0.1-33.7c-1.2-4.5-3.7-8.3-7.5-11.2c-3.8-2.9-8-4.3-12.7-4.4c-2.6-0.1-2.6-0.1-2.6-2.7c0.2-4.9-0.3-9.8-1.2-14.6
		c-1-5.1-2.4-9.9-6.1-13.8c-4.4-4.5-9.7-6.5-16-6.7c-7.5-0.3-15-0.7-22.2,2.1c-1.2-2.3-2.9-3.9-5.6-4c-8.6-0.1-17.2-0.1-25.7,0
		c-3.3,0-5.9,2.7-6,6.1c-0.1,1.6,0,3.3,0,4.9c0,2.1-0.1,4.1-0.1,6.2c-1.5-1.5-3.1-3-4.6-4.5c-3-2.9-6.5-3-9.5,0c-1,1-1.9,2-2.8,3
		c-0.4,0.3-0.8,0.5-1.1,0.8c-4.4,4.4-8.9,8.8-13.3,13.3c-3.1,3.1-3,6.7,0.1,9.8c2.5,2.5,4.9,5,7.4,7.5c-2,0-4,0.1-6,0.1
		c-2.4,0-4.7,0-7.1,0c-4.3-0.2-7.1,2.4-7.1,6.7c0,5.9,0,11.9,0,17.8c0,4.1,2.2,6.5,6.4,6.9c0,6.7-0.1,13.4-0.1,20.1
		c0,4.1,2.8,6.7,7,6.5c1.8,0,3.7,0,5.5,0.1c0,6.7,0,13.3,0,20c0,4.3,2.8,6.9,7.1,6.7c2.4,0,4.7,0,7.1,0c2.5,0,5,0.1,7.5,0.1
		c-0.1,0.2-0.2,0.3-0.3,0.5c-4.2,4.6-2.7,9.8,3.4,11.3c7,1.8,13.1,0.1,18.6-4.4c0.4,0.5,0.8,0.9,1.1,1.4c4.1,6.1,9.9,9.7,17.2,10
		c9.9,0.3,17.1-4.2,21.4-13.2c0.2-0.5,0.2-1.2,1-1.3c3.5,3.3,7,6.7,10.3,10.3c-7.1,4.1-14.7,6.8-22.6,8.6
		c-7.3,1.7-14.7,2.4-22.1,1.9c-12.7-0.7-24.8-3.9-36.1-9.9c-5.8-3.1-11.2-6.9-16.2-11.3c-8.6-7.5-15.3-16.4-20.2-26.6
		c-4-8.3-6.7-17.1-7.8-26.3c-0.5-4.5-0.9-9.1-0.7-13.7c0.5-10.6,2.7-20.8,6.9-30.5c3.2-7.5,7.4-14.4,12.6-20.7
		c6.5-7.9,14.3-14.3,23.1-19.4c6.7-3.9,13.9-6.7,21.4-8.7c4.6-1.2,9.4-2,14.2-2.3c3.1-0.2,6.3-0.4,9.4-0.3c10.7,0.4,21,2.7,30.9,6.9
		c7.5,3.2,14.4,7.4,20.7,12.6c7.9,6.5,14.3,14.3,19.4,23.1c4.5,7.7,7.5,15.9,9.4,24.6c1.5,7,2.2,14.2,1.8,21.4
		c-0.7,12.9-4,25.2-10.1,36.6C365.6,178.4,365.5,178.5,365.4,178.7z"/>
	<path fill="#FEFEFE" d="M315.7,173.5c-1.7,0.4-3.2,1.3-4.9,1.4c-4.9-2.5-10-3-15.4-2.1c-1.2-0.7-2.3-1.6-3.6-2
		c-4.1-2.1-8.3-2.3-12.4-0.2c-0.1,0-0.2,0-0.3,0c-0.2-0.2-0.4-0.1-0.6,0.1c-1.6,0.3-3.1,0.6-4.7,0.9c-2.5,0.1-5-0.1-7.5-0.8
		c-0.1-0.1-0.2-0.1-0.4-0.1c-2.2-0.9-4.3-2.2-6.2-3.6c-1.7-1.6-3.1-3.5-4.3-5.5c-2.5-5.3-2.8-10.6-0.6-16.1c0.8-1.9,2-3.5,3.2-5.1
		c2-2.6,3.2-5.5,3-8.7c-0.5-6.9,1-13.2,4.5-19.1c3.1-4,6.6-7.5,11.2-9.8c0.2-0.1,0.2-0.3,0.4-0.5c3.3-0.9,6.4-2.1,9.8-2.4
		c2.1,0,4.2,0.1,6.2,0.1c2.4,0.6,4.8,1.1,7.1,2c5.1,2.2,9.1,5.7,12.5,10c0.2,0.3,0.3,0.5,0.5,0.8c0.1,0.1,0.2,0.3,0.2,0.4
		c0.7,1.3,1.4,2.6,2.1,3.9c-3.1,8.8-4.1,17.9-3.1,27.2c1,8.9,2.9,17.5,11.2,22.8C321.3,170,318.6,171.9,315.7,173.5z M309.9,137.9
		c0-10.4-8.4-18.9-18.7-19c-10.4,0-19,8.3-19,18.7c-0.1,10.5,8.4,19.1,18.8,19.1C301.4,156.7,309.9,148.3,309.9,137.9z"/>
	<path fill="#C27030" d="M323.5,167.4c-8.3-5.3-10.2-13.9-11.2-22.8c-1-9.3,0-18.4,3.1-27.2c0.6-0.5,0.6-1.2,0.9-1.9
		c1.3-1.6,2.6-3.2,3.9-4.8c0.9-0.7,1.9-1.4,2.8-2.1c4.1-3.1,8.9-3.3,13.7-3.8c2.7-0.3,2.7-0.3,2.6-3.2c0-2.1,0.3-4.2-0.3-6.2
		c0-4.4-0.9-8.8-2.6-12.8c-2.2-5.3-6.5-8.2-12.3-8.8c-4.9-0.5-9.7-0.5-14.7-0.1c-4.9,0.4-8.8,2.1-11.8,6c-1.6,1.8-2.4,3.9-2.7,6.3
		c-1.3,4.1-1.7,8.3-1.9,12.6c0,0.5,0,1.1-0.1,1.6c-2.1,0-4.2-0.1-6.2-0.1c-0.1-6.5,1.1-12.8,2.8-19c2.2-5,5.7-8.9,10.5-11.6
		c7.2-2.8,14.7-2.5,22.2-2.1c6.2,0.3,11.6,2.2,16,6.7c3.7,3.8,5.2,8.7,6.1,13.8c0.9,4.8,1.4,9.7,1.2,14.6c-0.1,2.5-0.1,2.6,2.6,2.7
		c4.7,0.1,9,1.5,12.7,4.4c3.8,2.9,6.3,6.7,7.5,11.2c3.1,11.2,3.2,22.4,0.1,33.7c-1.7,6.4-5.5,11-11.4,14c-0.5,0.2-0.9,0.5-1.4,0.7
		c-6.7,1.9-13.5,1.8-20.4,1.5C331.2,170.4,327.2,169.5,323.5,167.4z M364.1,133.1c0-4.4-0.9-8.8-2.6-12.8c-2.2-5.3-6.5-8.2-12.3-8.8
		c-4.9-0.5-9.7-0.5-14.7-0.1c-4.9,0.4-8.8,2.1-11.8,6c-1.6,1.8-2.4,3.9-2.7,6.3c-1.3,4.1-1.7,8.3-1.9,12.6c0.1,2.1-0.4,4.2,0.3,6.3
		c-0.1,2.3,0.5,4.5,0.9,6.8c0.9,5.1,2.7,9.6,7.4,12.6c3.4,2.2,7.2,2.3,10.9,2.5c3.4,0.2,6.9,0,10.4-0.2c4.9-0.3,8.8-2.1,11.8-6
		c1.6-1.8,2.4-4,2.7-6.3c1.3-4.1,1.7-8.3,1.9-12.6C364.5,137.2,364.7,135.1,364.1,133.1z"/>
	<path fill="#784F2D" d="M295.4,172.9c5.4-0.9,10.5-0.4,15.4,2.1c7.9,4.7,11.8,11.6,11.6,20.8c0,2.1-1,4-0.8,6.1
		c-0.8,0.1-0.7,0.8-1,1.3c-4.3,9-11.5,13.5-21.4,13.2c-7.3-0.3-13.1-3.8-17.2-10c-0.3-0.5-0.7-0.9-1.1-1.4c-1.1-3-2.3-6.1-2.5-9.4
		c-0.3-6.1,1.8-11.3,5.5-16c1.1-1,2.1-1.9,3.2-2.9c1.8-1,3.5-2.2,5.4-2.9C293.5,173.5,294.5,173.2,295.4,172.9z M300.4,180.5
		c-1.8,2.8-2.9,5.6-3.4,8.6c-0.2,1.3-0.7,1.7-1.9,1.9c-3,0.6-5.8,1.5-8.4,3.5c2.7,1.8,5.4,2.9,8.3,3.4c1.5,0.2,1.8,0.8,2.1,2.2
		c0.6,2.9,1.5,5.7,3.5,8.2c1.8-2.7,2.9-5.4,3.4-8.3c0.2-1.5,0.8-1.8,2.2-2.1c2.9-0.6,5.7-1.5,8.3-3.5c-2.8-1.8-5.6-2.9-8.5-3.4
		c-1.3-0.2-1.7-0.7-1.9-1.9C303.4,186,302.3,183.2,300.4,180.5z"/>
	<path fill="#FCF2E2" d="M238.8,112.6c-2.5-2.5-4.9-5-7.4-7.5c-3.1-3.2-3.2-6.7-0.1-9.8c4.4-4.5,8.9-8.9,13.3-13.3
		c0.3-0.3,0.7-0.5,1.1-0.8c0.5,0.5,0.9,1.1,1.4,1.6c5.3,5.3,10.6,10.7,16,15.9c1.1,1.1,1.2,1.7,0,2.8c-3.8,3.6-7.4,7.4-11.1,11.1
		c0,0,0,0.1,0,0.1c-2.5,0-5,0-7.5,0C242.7,112.7,240.8,112.6,238.8,112.6z"/>
	<path fill="#FCF2E2" d="M284,179.6c-3.7,4.7-5.8,9.9-5.5,16c0.2,3.3,1.4,6.3,2.5,9.4c-5.5,4.5-11.7,6.2-18.6,4.4
		c-6.1-1.6-7.6-6.7-3.4-11.3c0.1-0.1,0.2-0.3,0.3-0.5c2.7-2.3,2.7-2.3,0.3-4.7c-0.6-0.6-1.2-1.2-1.8-1.8c-1.8-1.9-1.8-3.4,0.1-5.3
		c1.9-2,3.9-3.9,5.8-5.8c1.2-1.3,2.6-1.7,4.2-1c1.2,1.2,2.5,2.2,3.6,3.5c1.3,1.5,2.2,1.4,3.1-0.2c0.4-0.3,0.8-0.6,1.2-1
		C278.1,178.8,280.8,178.1,284,179.6z"/>
	<path fill="#FBE5BB" d="M252.1,112.6c3.7-3.7,7.3-7.5,11.1-11.1c1.1-1.1,1.1-1.7,0-2.8c-5.4-5.3-10.7-10.6-16-15.9
		c-0.5-0.5-0.9-1.1-1.4-1.6c0.9-1,1.8-2,2.8-3c3-2.9,6.5-2.9,9.5,0c1.5,1.5,3.1,3,4.6,4.5c4,4.5,8.4,8.6,12.6,12.8
		c2,2,2.5,4.3,1.6,7c-0.1,0.2-0.2,0.4-0.4,0.5c-4.6,2.3-8.1,5.8-11.2,9.8C260.9,112.7,256.5,112.6,252.1,112.6z"/>
	<path fill="#FCF2E2" d="M276.9,102.5c0.8-2.6,0.4-4.9-1.6-7c-4.2-4.3-8.7-8.3-12.6-12.8c0-2.1,0.1-4.1,0.1-6.2c7.6,0,15.2,0,22.8,0
		c3.7,0,3.7,0,3.9,3.8c0,0.3,0.1,0.5,0.1,0.8c-1.7,6.2-2.9,12.5-2.8,19C283.3,100.4,280.2,101.6,276.9,102.5z"/>
	<path fill="#F0534A" d="M238.8,112.6c1.9,0,3.9,0.1,5.8,0.1c0.2,0.4,0.4,0.8,0.6,1.2c4.6,7.2,5.6,14.8,2.9,23
		c-0.9,2.6-2.4,4.8-3.6,7.2c-1,0-2.1,0-3.1,0.1c-2.2,0-4.5,0-6.7,0c-0.5,0-1,0-1.5-0.1c-0.1-0.5,0.1-1,0.4-1.5
		c4.7-10.1,4.5-20-0.7-29.9C234.9,112.7,236.9,112.6,238.8,112.6z"/>
	<path fill="#FBE5BB" d="M289.6,81c0-0.3-0.1-0.5-0.1-0.8c-0.2-3.8-0.2-3.8-3.9-3.8c-7.6,0-15.2,0-22.8,0c0-1.6-0.1-3.3,0-4.9
		c0.1-3.3,2.7-6,6-6.1c8.6-0.1,17.1-0.1,25.7,0c2.7,0,4.5,1.6,5.6,4C295.3,72.2,291.8,76,289.6,81z"/>
	<path fill="#F0534A" d="M225.1,144.1c-4.2-0.4-6.4-2.8-6.4-6.9c0-5.9,0-11.9,0-17.8c0-4.3,2.7-6.9,7.1-6.7c0,0.5,0.4,0.8,0.6,1.2
		c4.6,7.2,5.6,14.8,2.9,23c-0.9,2.6-2.4,4.8-3.6,7.2C225.5,144.1,225.3,144.1,225.1,144.1z"/>
	<path fill="#F0534A" d="M244.6,197.5c-4.3,0.2-7.1-2.4-7.1-6.7c0-6.7,0-13.3,0-20c0.5,0,1.1,0,1.6,0c2.7,0,5.4,0.1,8.2,0.1
		c0.2,0.6,0.4,1.2,0.6,1.9c2.3,6.1,2.2,12.2,0,18.4C247.1,193.4,245.6,195.3,244.6,197.5z"/>
	<path fill="#F58E83" d="M225.1,144.1c0.2,0,0.4-0.1,0.7-0.1c2.5,0,5,0,7.5,0c0.5,0,1,0,1.5,0.1c2.1,5.5,3,11,1.6,16.8
		c-0.9,3.5-2.5,6.7-4.4,9.8c-4.2,0.2-7-2.4-7-6.5C225,157.5,225,150.8,225.1,144.1z"/>
	<path fill="#F26A61" d="M244.6,197.5c1-2.2,2.4-4.1,3.3-6.4c2.2-6.2,2.4-12.3,0-18.4c-0.2-0.6-0.4-1.2-0.6-1.9
		c2.7,0.5,4.3-0.8,5.3-3.2c0.8-2,1.8-4,2.6-6c1.2,2,2.6,3.8,4.3,5.5c-0.5,1.2-1.1,2.4-1.6,3.6c-0.8,0-1.7,0.1-2.5,0
		c-1.3-0.1-1.5,0.4-1.1,1.6c2.4,8.7,1.8,17.1-2.7,25.1C249.4,197.5,247,197.5,244.6,197.5z"/>
	<path fill="#F26A61" d="M233.2,144.1c-2.5,0-5,0-7.5,0c1.2-2.4,2.7-4.6,3.6-7.2c2.7-8.2,1.6-15.8-2.9-23c-0.2-0.4-0.6-0.7-0.6-1.2
		c2.4,0,4.7,0,7.1,0c5.2,9.8,5.4,19.8,0.7,29.9C233.4,143.1,233.2,143.5,233.2,144.1z"/>
	<path fill="#F0534A" d="M251.7,197.5c4.4-8,5-16.4,2.7-25.1c-0.3-1.2-0.2-1.7,1.1-1.6c0.8,0.1,1.7,0,2.5,0c2.6,0,5.2,0,7.8,0
		c0.1,0,0.2,0,0.4,0.1c0.5,1.5,1.1,2.9,1.4,4.5c0.3,1.2,1.1,2.4,0.2,3.7c-1.7-0.7-3-0.3-4.2,1c-1.9,2-3.9,3.9-5.8,5.8
		c-1.8,1.9-1.8,3.4-0.1,5.3c0.6,0.6,1.2,1.2,1.8,1.8c2.4,2.4,2.4,2.4-0.3,4.7C256.7,197.6,254.2,197.5,251.7,197.5z"/>
	<path fill="#F26A61" d="M232,170.8c1.8-3.1,3.5-6.2,4.4-9.8c1.4-5.8,0.4-11.4-1.6-16.8c2.2,0,4.5,0,6.7,0c0.2,0.7,0.2,1.4,0.5,2.1
		c1.1,2.9,1.3,6,1.3,9c0,5.5-1.4,10.7-4.1,15.5c-0.5,0-1.1,0-1.6,0C235.7,170.8,233.9,170.8,232,170.8z"/>
	<path fill="#FFCC1F" d="M309.9,137.9c0,10.4-8.5,18.8-18.9,18.8c-10.4,0-18.9-8.6-18.8-19.1c0.1-10.3,8.6-18.7,19-18.7
		C301.5,119,309.9,127.5,309.9,137.9z M291,134.7c0-3.4-2.8-6.2-6.2-6.3c-3.5,0-6.4,2.8-6.4,6.3c0,3.4,2.8,6.2,6.2,6.3
		C288.1,141,291,138.1,291,134.7z"/>
	<path fill="#F58E83" d="M239.2,170.8c2.7-4.8,4.1-10,4.1-15.5c0-3-0.2-6.1-1.3-9c-0.2-0.7-0.3-1.4-0.5-2.1c1,0,2.1,0,3.1-0.1
		c2.5,0,5,0,7.5,0c1.4-0.5,1.6,1.2,2.6,1.5c-2.2,5.5-1.9,10.8,0.6,16.1c-0.9,2-1.8,4-2.6,6c-1,2.4-2.6,3.7-5.3,3.2
		C244.6,170.8,241.9,170.8,239.2,170.8z"/>
	<path fill="#F0534A" d="M254.7,145.6c-1-0.3-1.2-2-2.6-1.5c-0.1-0.9,0.5-1.6,0.8-2.4c3.8-8.9,3.9-17.8,0-26.7
		c-0.3-0.8-0.9-1.5-0.8-2.4c0,0,0-0.1,0-0.1c4.4,0,8.9,0.1,13.3,0.1c-3.4,5.9-5,12.2-4.5,19.1c0.3,3.2-1,6.2-3,8.7
		C256.7,142.1,255.5,143.7,254.7,145.6z"/>
	<path fill="#D9A379" d="M293,100.2c0-0.5,0-1.1,0.1-1.6c4.2-0.1,8.3-0.2,12.4,1c6.4,1.8,10.5,6.6,14.7,11.2
		c-1.3,1.6-2.6,3.2-3.9,4.8c-1.1-0.5-1.5-2-3-2c-0.1-0.1-0.2-0.3-0.2-0.4c-0.1-0.3-0.1-0.7-0.5-0.8c-3.3-4.4-7.3-7.9-12.5-10
		C297.8,101.3,295.4,100.8,293,100.2z"/>
	<path fill="#F0534A" d="M284,179.6c-3.2-1.5-5.9-0.8-8.3,1.7c-0.4,0.4-0.8,0.7-1.2,1c0.1-2.5-0.1-4.9-0.5-7.3
		c-0.2-1.1-1.1-2.1-0.3-3.3c1.6-0.3,3.1-0.6,4.7-0.9c0.2,0,0.4-0.1,0.6-0.1c0.1,0,0.2,0,0.3,0c1.3,0.3,2.6,0.4,3.9,0
		c1.3-0.4,1.8,0.2,2.2,1.2c0.6,1.6,0.9,3.4,1.7,4.9C286.1,177.7,285,178.7,284,179.6z"/>
	<path fill="#F26A61" d="M273.7,171.7c-0.8,1.2,0.1,2.2,0.3,3.3c0.4,2.4,0.6,4.9,0.5,7.3c-0.9,1.7-1.9,1.7-3.1,0.2
		c-1.1-1.3-2.4-2.3-3.6-3.5c1-1.3,0.1-2.5-0.2-3.7c-0.3-1.5-0.9-3-1.4-4.5C268.7,171.6,271.2,171.8,273.7,171.7z"/>
	<path fill="#F26A61" d="M287.2,176.8c-0.9-1.5-1.1-3.3-1.7-4.9c-0.4-1-0.8-1.6-2.2-1.2c-1.2,0.4-2.6,0.3-3.9,0
		c4.2-2.2,8.3-1.9,12.4,0.2c0.3,1,0.5,2,0.8,3C290.6,174.5,288.9,175.8,287.2,176.8z"/>
	<path fill="#F58E83" d="M265.9,170.8c-2.6,0-5.2,0-7.8,0c0.5-1.2,1.1-2.4,1.6-3.6C261.6,168.6,263.7,169.9,265.9,170.8z"/>
	<path fill="#F0534A" d="M292.6,173.9c-0.3-1-0.5-2-0.8-3c1.3,0.4,2.4,1.3,3.6,2C294.5,173.2,293.5,173.5,292.6,173.9z"/>
	<path fill="#CE8C57" d="M313.3,113.5c1.5,0,1.9,1.5,3,2c-0.3,0.6-0.3,1.4-0.9,1.9C314.7,116.1,314,114.8,313.3,113.5z"/>
	<path fill="#CE8C57" d="M312.5,112.3c0.4,0.1,0.4,0.4,0.5,0.8C312.9,112.8,312.7,112.5,312.5,112.3z"/>
	<path fill="#F26A61" d="M279,170.7c-0.2,0-0.4,0.1-0.6,0.1C278.6,170.6,278.8,170.5,279,170.7z"/>
	<path fill="#CE8C57" d="M318.2,136.3c0.2-4.3,0.6-8.5,1.9-12.6c2.4,0,4.9-0.1,7.3,0c5,0.3,9.3,2.3,12.6,6.2c2.8,3.3,6.1,6,10.2,7.7
		c4.7,1.9,9.4,1.8,14.3,1.7c-0.2,4.3-0.6,8.5-1.9,12.6c-2.4,0-4.9,0.1-7.3,0c-5-0.3-9.3-2.3-12.6-6.2c-2.8-3.3-6-6.1-10.2-7.7
		C327.8,136.1,323,136.2,318.2,136.3z"/>
	<path fill="#CE8C57" d="M359.8,158.3c-3,3.8-6.9,5.7-11.8,6c-3.5,0.2-6.9,0.4-10.4,0.2c-3.8-0.2-7.5-0.4-10.9-2.5
		c-4.7-3-6.5-7.5-7.4-12.6c-0.4-2.2-0.9-4.5-0.9-6.8c1.6,0,3.1-0.1,4.7,0c5.6,0.1,10.2,2.1,13.9,6.4c2.8,3.3,6.1,6,10.3,7.6
		C351.4,158.2,355.6,158.3,359.8,158.3z"/>
	<path fill="#CE8C57" d="M297.7,79.6c3-3.8,6.9-5.6,11.8-6c4.9-0.4,9.8-0.4,14.7,0.1c5.7,0.6,10,3.5,12.3,8.8
		c1.7,4,2.5,8.4,2.6,12.8c-1.5,0-3,0-4.5,0c-5.7,0-10.3-2.2-14-6.5c-2.8-3.3-6.1-6-10.3-7.6C306.1,79.7,301.9,79.6,297.7,79.6z"/>
	<path fill="#CE8C57" d="M322.8,117.4c3-3.8,6.9-5.6,11.8-6c4.9-0.4,9.8-0.4,14.7,0.1c5.7,0.6,10,3.5,12.3,8.8
		c1.7,4,2.5,8.4,2.6,12.8c-1.5,0-3,0-4.5,0c-5.7,0-10.3-2.2-14-6.5c-2.8-3.3-6.1-6-10.3-7.6C331.3,117.5,327.1,117.3,322.8,117.4z"
		/>
	<path fill="#CE8C57" d="M320.1,110.7c-4.3-4.6-8.3-9.3-14.7-11.2c-4.1-1.2-8.2-1.1-12.4-1c0.2-4.3,0.6-8.5,1.9-12.6
		c2.4,0,4.9-0.1,7.3,0c5,0.3,9.3,2.3,12.6,6.2c2.8,3.3,6.1,6,10.2,7.7c4.7,1.9,9.4,1.8,14.3,1.7c0.1,2.9,0.1,2.9-2.6,3.2
		c-4.8,0.5-9.6,0.8-13.7,3.8C322,109.4,321.1,110,320.1,110.7z"/>
	<path fill="#D9A379" d="M339.3,101.6c-4.8,0.1-9.6,0.2-14.3-1.7c-4.2-1.7-7.4-4.5-10.2-7.7c-3.4-3.9-7.6-5.9-12.6-6.2
		c-2.4-0.1-4.8,0-7.3,0c0.3-2.4,1.2-4.5,2.7-6.3c4.2-0.1,8.4,0.1,12.5,1.7c4.2,1.6,7.4,4.3,10.3,7.6c3.7,4.3,8.3,6.5,14,6.5
		c1.5,0,3,0,4.5,0C339.6,97.4,339.3,99.5,339.3,101.6z"/>
	<path fill="#D9A379" d="M359.8,158.3c-4.2,0.1-8.4-0.1-12.5-1.7c-4.2-1.6-7.5-4.3-10.3-7.6c-3.7-4.3-8.3-6.3-13.9-6.4
		c-1.6,0-3.1,0-4.7,0c-0.7-2.1-0.2-4.2-0.3-6.3c4.8-0.1,9.6-0.2,14.3,1.7c4.2,1.7,7.4,4.5,10.2,7.7c3.4,3.9,7.6,5.9,12.6,6.2
		c2.4,0.1,4.8,0,7.3,0C362.2,154.3,361.4,156.4,359.8,158.3z"/>
	<path fill="#D9A379" d="M322.8,117.4c4.2-0.1,8.4,0.1,12.5,1.7c4.2,1.6,7.4,4.3,10.3,7.6c3.7,4.3,8.3,6.5,14,6.5c1.5,0,3,0,4.5,0
		c0.6,2.1,0.3,4.2,0.3,6.2c-4.8,0.1-9.6,0.2-14.3-1.7c-4.2-1.7-7.4-4.5-10.2-7.7c-3.4-3.9-7.6-5.9-12.6-6.2c-2.4-0.1-4.8,0-7.3,0
		C320.4,121.3,321.3,119.2,322.8,117.4z"/>
	<path fill="#FCDE78" d="M300.4,180.5c1.9,2.7,2.9,5.5,3.5,8.5c0.2,1.2,0.6,1.7,1.9,1.9c3,0.5,5.8,1.6,8.5,3.4
		c-2.5,2-5.4,2.9-8.3,3.5c-1.4,0.3-2,0.6-2.2,2.1c-0.5,2.9-1.6,5.6-3.4,8.3c-1.9-2.5-2.9-5.3-3.5-8.2c-0.3-1.4-0.6-2-2.1-2.2
		c-2.9-0.5-5.6-1.6-8.3-3.4c2.6-1.9,5.5-2.9,8.4-3.5c1.2-0.2,1.7-0.6,1.9-1.9C297.5,186.1,298.6,183.3,300.4,180.5z"/>
	<path fill="#F26A61" d="M252.1,112.7c-0.1,0.9,0.5,1.6,0.8,2.4c3.9,8.9,3.8,17.8,0,26.7c-0.3,0.8-0.9,1.5-0.8,2.4c-2.5,0-5,0-7.5,0
		c1.2-2.4,2.7-4.6,3.6-7.2c2.7-8.2,1.6-15.8-2.9-23c-0.2-0.4-0.4-0.8-0.6-1.2C247.1,112.7,249.6,112.7,252.1,112.7z"/>
	<path fill="#FCDE78" d="M291,134.7c0,3.4-2.9,6.3-6.4,6.3c-3.4,0-6.2-2.9-6.2-6.3c0-3.4,2.9-6.3,6.4-6.3
		C288.2,128.4,291,131.3,291,134.7z"/>
</g>
<g>
	<path fill="#222222" d="M57.9,226.2c-1.9,0-3.4-0.6-4.6-1.8c-1.2-1.2-1.8-2.7-1.8-4.6V55.4c0-1.9,0.6-3.4,1.8-4.6
		c1.2-1.2,2.7-1.8,4.6-1.8h31.9c1.9,0,3.4,0.6,4.6,1.8c1.2,1.2,1.8,2.7,1.8,4.6v56.2l46.8-57.7c0.7-1,1.8-2.1,3.4-3.2
		c1.6-1.1,3.8-1.6,6.5-1.6h36.4c1.5,0,2.8,0.5,3.8,1.6c1,1.1,1.5,2.3,1.5,3.7c0,1.2-0.3,2.2-1,3l-60.5,76.4l65.3,84
		c0.7,0.7,1,1.7,1,3c0,1.4-0.5,2.6-1.6,3.7c-1.1,1.1-2.3,1.6-3.7,1.6h-37.7c-3,0-5.4-0.7-7-2c-1.6-1.3-2.7-2.4-3.2-3l-50.1-62.5
		v61.2c0,1.9-0.6,3.4-1.8,4.6c-1.2,1.2-2.7,1.8-4.6,1.8H57.9z"/>
	<path fill="#222222" d="M479.1,228.7c-16,0-29.7-2.6-41.1-7.8c-11.4-5.2-20.2-12.9-26.6-23c-6.3-10.1-9.8-22.7-10.5-37.7
		c-0.2-6.9-0.3-14.3-0.3-22.3c0-7.9,0.1-15.5,0.3-22.8c0.7-14.7,4.2-27.1,10.6-37.3c6.4-10.2,15.3-18,26.8-23.3
		c11.5-5.3,25-8,40.7-8c11.1,0,21.4,1.4,30.9,4.2c9.4,2.8,17.7,6.8,24.8,12.1s12.6,11.7,16.6,19.2c4,7.5,6,16,6.2,25.4
		c0.2,1.5-0.3,2.8-1.4,3.8c-1.1,1-2.4,1.5-3.9,1.5h-34.2c-2.2,0-3.9-0.5-5.1-1.4c-1.2-0.9-2.2-2.7-3-5.2
		c-2.4-8.9-6.2-15.1-11.5-18.3S486.6,83,478.9,83c-9.3,0-16.6,2.6-22,7.7c-5.4,5.1-8.3,13.7-8.9,25.7c-0.5,13.8-0.5,28,0,42.5
		c0.5,12,3.5,20.5,8.9,25.7c5.4,5.1,12.7,7.7,22,7.7c7.8,0,14.3-1.7,19.7-5.1c5.4-3.4,9.2-9.4,11.4-18.2c0.7-2.5,1.6-4.3,2.9-5.2
		c1.3-0.9,3-1.4,5.2-1.4h34.2c1.5,0,2.8,0.5,3.9,1.5c1.1,1,1.6,2.3,1.4,3.8c-0.2,9.4-2.2,17.9-6.2,25.4c-4,7.5-9.5,13.9-16.6,19.2
		s-15.4,9.4-24.8,12.1C500.5,227.3,490.3,228.7,479.1,228.7z"/>
	<path fill="#222222" d="M582.5,226.2c-1.9,0-3.4-0.6-4.6-1.8c-1.2-1.2-1.8-2.7-1.8-4.6V55.4c0-1.9,0.6-3.4,1.8-4.6
		c1.2-1.2,2.7-1.8,4.6-1.8h33.9c1.9,0,3.4,0.6,4.6,1.8c1.2,1.2,1.8,2.7,1.8,4.6v164.4c0,1.9-0.6,3.4-1.8,4.6
		c-1.2,1.2-2.7,1.8-4.6,1.8H582.5z"/>
	<path fill="#222222" d="M723.2,228.7c-15.5,0-29-2.5-40.5-7.6c-11.5-5.1-20.4-12.7-26.8-22.9c-6.4-10.2-10-23-10.6-38.3
		c-0.2-7.2-0.3-14.5-0.3-21.8c0-7.2,0.1-14.6,0.3-22c0.7-15.2,4.3-28,10.8-38.3c6.5-10.4,15.5-18.2,26.9-23.4
		c11.5-5.2,24.9-7.8,40.2-7.8c15.2,0,28.5,2.6,40.1,7.8c11.6,5.2,20.6,13,27.2,23.4c6.6,10.4,10.1,23.1,10.6,38.3
		c0.3,7.4,0.5,14.8,0.5,22c0,7.3-0.2,14.5-0.5,21.8c-0.7,15.4-4.2,28.1-10.6,38.3c-6.4,10.2-15.3,17.8-26.8,22.9
		C752.2,226.2,738.7,228.7,723.2,228.7z M723.2,192.3c8.9,0,16.2-2.7,21.9-8.1c5.6-5.4,8.6-14,9-25.8c0.3-7.4,0.5-14.4,0.5-21
		c0-6.6-0.2-13.4-0.5-20.5c-0.3-7.9-1.8-14.4-4.4-19.4c-2.6-5-6.2-8.6-10.8-11c-4.6-2.4-9.8-3.5-15.7-3.5c-5.7,0-10.9,1.2-15.4,3.5
		c-4.6,2.4-8.2,6-10.9,11c-2.7,5-4.2,11.4-4.6,19.4c-0.2,7.1-0.3,13.9-0.3,20.5c0,6.6,0.1,13.6,0.3,21c0.5,11.8,3.5,20.4,9.1,25.8
		C707,189.6,714.2,192.3,723.2,192.3z"/>
	<path fill="#222222" d="M841,226.2c-1.9,0-3.4-0.6-4.6-1.8c-1.2-1.2-1.8-2.7-1.8-4.6v-56.9l-8.3,3c-1.2,0.5-2.2,0.8-3,0.8
		c-1.5,0-2.7-0.4-3.7-1.3c-0.9-0.8-1.4-2-1.4-3.5v-19c0-2.2,0.4-3.8,1.3-4.9c0.8-1.1,2.3-2,4.3-2.7l10.9-4.3V55.4
		c0-1.9,0.6-3.4,1.8-4.6c1.2-1.2,2.7-1.8,4.6-1.8h33.4c1.7,0,3.2,0.6,4.4,1.8c1.3,1.2,1.9,2.7,1.9,4.6v57.7l36.7-14.4
		c1.3-0.5,2.4-0.8,3-0.8c1.3,0,2.5,0.5,3.5,1.4c1,0.9,1.5,2.2,1.5,3.7v18.7c0,2.2-0.4,3.8-1.3,4.8c-0.8,1-2.3,1.9-4.3,2.8
		l-39.2,15.4V188h76.7c1.7,0,3.2,0.6,4.4,1.9c1.3,1.3,1.9,2.8,1.9,4.7v25.3c0,1.9-0.6,3.4-1.9,4.6c-1.3,1.2-2.7,1.8-4.4,1.8H841z"/>
	<path fill="#222222" d="M988.3,226.2c-1.9,0-3.4-0.6-4.6-1.8c-1.2-1.2-1.8-2.7-1.8-4.6V55.4c0-1.9,0.6-3.4,1.8-4.6
		c1.2-1.2,2.7-1.8,4.6-1.8h118.2c1.9,0,3.4,0.6,4.6,1.8c1.2,1.2,1.8,2.7,1.8,4.6v23.8c0,1.9-0.6,3.4-1.8,4.6
		c-1.2,1.2-2.7,1.8-4.6,1.8h-80.7v34.2h75.1c1.9,0,3.4,0.6,4.6,1.9c1.2,1.3,1.8,2.8,1.8,4.7v22c0,1.7-0.6,3.2-1.8,4.4
		c-1.2,1.3-2.7,1.9-4.6,1.9h-75.1v35.2h82.7c1.9,0,3.4,0.6,4.6,1.8c1.2,1.2,1.8,2.7,1.8,4.6v23.8c0,1.9-0.6,3.4-1.8,4.6
		c-1.2,1.2-2.7,1.8-4.6,1.8H988.3z"/>
	<path fill="#222222" d="M1141.6,226.2c-1.9,0-3.4-0.6-4.6-1.8c-1.2-1.2-1.8-2.7-1.8-4.6V55.4c0-1.9,0.6-3.4,1.8-4.6
		c1.2-1.2,2.7-1.8,4.6-1.8h31.9c1.9,0,3.4,0.6,4.6,1.8c1.2,1.2,1.8,2.7,1.8,4.6v56.2l46.8-57.7c0.7-1,1.8-2.1,3.4-3.2
		c1.6-1.1,3.8-1.6,6.5-1.6h36.4c1.5,0,2.8,0.5,3.8,1.6c1,1.1,1.5,2.3,1.5,3.7c0,1.2-0.3,2.2-1,3l-60.5,76.4l65.3,84
		c0.7,0.7,1,1.7,1,3c0,1.4-0.5,2.6-1.6,3.7c-1.1,1.1-2.3,1.6-3.7,1.6H1240c-3,0-5.4-0.7-7-2c-1.6-1.3-2.7-2.4-3.2-3l-50.1-62.5v61.2
		c0,1.9-0.6,3.4-1.8,4.6c-1.2,1.2-2.7,1.8-4.6,1.8H1141.6z"/>
</g>
<g>
	<path fill="#222222" d="M74.6,347.3c-5.2,0-9.4-1.1-12.7-3.2c-3.3-2.1-5.7-5-7.2-8.6c-1.5-3.6-2.3-7.6-2.3-12
		c0-6.8,1.7-13.8,5-21.1c2.5-5.3,5.7-10.1,9.8-14.6c4.1-4.5,8.6-8,13.7-10.7c5.1-2.7,10.4-4,16-4c4.3,0,7.8,0.6,10.3,1.7
		s4.4,2.6,5.5,4.5c1.1,1.8,1.7,3.8,1.7,5.8c0,2.8-0.8,5.4-2.5,7.9c-1.7,2.5-3.8,4-6.2,4.7c-0.1,0.1-0.2,0.1-0.4,0.1
		c-0.1,0.1-0.3,0.1-0.5,0.1c0.2,0,0.3,0,0.5-0.1h0.1l0.3-0.1c1.2-0.5,2.4-1.8,3.5-3.9c1.1-2.1,1.7-4.4,1.7-6.9c0-2.7-1-5.2-3.1-7.4
		c-2-2.2-5.8-3.3-11.3-3.3c-4.9,0-9.7,1.3-14.3,3.9c-4.6,2.6-8.8,6.1-12.5,10.4c-3.7,4.3-6.7,9-9,14c-2.9,6.5-4.3,12.9-4.3,19.1
		c0,5.6,1.4,10.3,4.3,14.2c2.9,3.9,7.5,5.9,13.7,5.9c3.6,0,7.4-1,11.4-3.1c3.9-2,7.9-4.7,12-8c4-3.3,8-6.8,11.8-10.7
		c3.9-3.9,7.5-7.7,10.9-11.3c-3.2,0.3-6.3,0.7-9.2,1.2c-2.9,0.5-5.7,1-8.5,1.7h-0.5c-1,0-1.5-0.5-1.5-1.5c0-0.4,0.2-0.9,0.5-1.3
		c0.3-0.5,0.8-0.7,1.4-0.8c6.2-1,12.9-1.9,20.2-2.5c13.9-16.5,25-29.3,33.3-38.7c8.3-9.3,14.9-15.1,19.8-17.2
		c1.9-0.8,3.8-1.3,5.6-1.3c1.9,0,2.8,0.6,2.8,1.8c0,1.2-1.1,2.9-3.4,5.2c-3.1,3.1-6.2,7.3-9.3,12.6c-3.2,5.3-6.1,11-8.9,17.2
		c-2.8,6.2-5,12.5-6.8,18.9c1.2,0,2.2,0,2.9-0.1c0.8,0,1.4,0,2,0.1c0.8,0.1,1.5,0.3,1.9,0.8c0.4,0.4,0.6,0.8,0.6,1.3
		c0,1-0.6,1.5-1.9,1.5c-0.8,0-1.8,0-2.9-0.1c-1.1,0-2.2-0.1-3.4-0.1c-1.4,5.8-2.2,11.1-2.2,15.9c0,1.2,0,2.3,0.1,3.4
		c0.1,1.1,0.2,2.2,0.4,3.2c0.4,2,1,3.8,1.6,5.3c0.6,1.5,1.5,2.3,2.6,2.3c1.3,0,2.9-1.2,4.8-3.7c0.7-0.8,1.3-1.1,1.9-1.1
		c0.4,0,0.8,0.2,1,0.6s0.2,0.9-0.1,1.6c-1.9,3.8-4.4,5.7-7.5,5.7c-1.7,0-3.3-0.8-4.9-2.3c-1.6-1.5-2.7-4-3.4-7.4
		c-0.5-2.5-0.8-5.1-0.8-8c0-2.4,0.1-4.9,0.4-7.4c0.3-2.6,0.7-5.3,1.3-8.1c-3.5,0-7.4,0-11.8,0.1c-4.4,0-8.8,0.3-13.2,0.7
		c-0.1,0.2-0.3,0.4-0.5,0.6c-0.3,0.2-0.5,0.4-0.6,0.6c-3.4,3.8-7.2,7.8-11.3,12c-4.2,4.2-8.5,8.1-12.9,11.8
		c-4.5,3.6-8.9,6.6-13.4,8.8C82.9,346.1,78.6,347.3,74.6,347.3z M129,306.7c4.2-0.3,8.2-0.4,12.2-0.6c4-0.1,7.5-0.2,10.7-0.3
		c1.5-6.2,3.6-12.3,6.2-18.4c2.6-6.1,5.5-11.7,8.5-16.9c3.1-5.2,5.9-9.4,8.6-12.7c0.3-0.3,0.6-0.9,1.1-1.6c0.5-0.7,1-1.4,1.5-2
		c0.5-0.6,0.6-0.9,0.4-0.8c-4.6,2-10.8,7.5-18.6,16.7C151.8,279.3,141.6,291.5,129,306.7z"/>
	<path fill="#222222" d="M159.1,381.6c-2.5,0-4.5-0.6-6.2-1.7s-2.7-2.9-3.1-5.3c-0.3-2.5,0.6-5,2.8-7.8c2.2-2.7,5-5.4,8.3-8
		c2.6-2.1,5.4-4.1,8.3-5.9c2.9-1.8,5.6-3.5,8.1-5c2.5-1.5,4.5-2.7,6-3.5c3.2-2,6.5-4,9.9-6c3.4-2.1,6.7-4.1,9.8-6
		c1-3.1,1.7-6.1,2-9.2c0.3-3.1,0.4-6.1,0.3-9.1c-0.9,1.4-2.3,3.4-4,5.7c-1.7,2.4-3.8,4.8-6.1,7.1c-2.3,2.4-4.9,4.4-7.6,6
		c-2.7,1.7-5.5,2.5-8.4,2.5c-3.6,0-6.1-1.1-7.5-3.2c-1.4-2.1-2-4.6-2-7.5c0-2.5,0.4-5.1,1.1-7.8c0.7-2.6,1.5-4.7,2.4-6.4
		c1.7-3.5,3.8-6.9,6.4-10.2c2.6-3.3,5.5-6,8.8-8.1c3.3-2.1,6.6-3.2,10-3.2c2.5,0,4.3,0.7,5.4,2.2c1.1,1.4,1.7,3.1,1.7,5
		c0,0.6-0.2,1.5-0.5,2.8c-0.3,1.3-0.8,2.6-1.3,3.9c-0.6,1.4-1.2,2.5-2,3.5c-0.8,1-1.6,1.5-2.5,1.5c-0.6,0-1.1-0.2-1.5-0.6
		c-0.4-0.4-0.6-0.8-0.6-1.2c0-0.3,0.3-0.8,1-1.8c0.7-0.9,1.4-2.1,2-3.4c0.7-1.4,1-2.8,1-4.3c0-0.9-0.2-1.8-0.7-2.5
		c-0.5-0.8-1.3-1.1-2.6-1.1c-2.6,0-5.2,0.9-7.8,2.8c-2.6,1.9-4.9,4.2-7.1,7c-2.1,2.8-3.9,5.7-5.3,8.6c-0.6,1.3-1.3,3.2-2,5.7
		s-1.1,5-1.1,7.4c0,2,0.4,3.8,1.3,5.2c0.8,1.4,2.3,2.1,4.5,2.1c1.9,0,3.9-0.7,6-2.2c2.2-1.4,4.3-3.3,6.6-5.5c2.2-2.2,4.2-4.6,6-7
		c1.8-2.4,3.3-4.6,4.5-6.6c1.1-2,1.8-3.3,1.8-4.2c0.1-0.4,0.3-0.9,0.8-1.4c0.4-0.5,0.9-0.8,1.5-0.8c0.7,0,1.1,0.2,1.4,0.6
		c0.3,0.4,0.4,0.8,0.5,1.3c0.6,2.3,0.9,5,0.9,8c0,2.5-0.1,5-0.4,7.5c-0.3,2.5-0.6,4.8-1,6.9c2.9-2.4,5.5-5.2,8-8.6
		c2.4-3.3,4.6-6.5,6.6-9.5c0.4-0.7,0.9-1,1.5-1c0.4,0,0.8,0.2,1.2,0.5c0.4,0.3,0.6,0.8,0.6,1.3c0,0.3-0.1,0.8-0.4,1.3
		c-2.6,4.2-5.4,8.3-8.3,12.1c-2.9,3.9-6.6,7.3-11.1,10.2c-2.4,6.8-5.6,13.2-9.7,19.3c-4.1,6.1-8.6,11.3-13.6,15.8
		c-5,4.5-9.9,7.7-14.9,9.7c-1.6,0.7-3.2,1.2-4.8,1.5C161.9,381.4,160.5,381.6,159.1,381.6z M159.1,378.4c1,0,2.1-0.2,3.3-0.5
		c1.2-0.3,2.4-0.8,3.7-1.3c5.1-2.3,9.7-5.3,13.9-9c4.2-3.7,7.9-7.8,11.1-12.3c3.2-4.5,5.7-9,7.7-13.5c0.2-0.5,0.4-1,0.6-1.5
		s0.5-1,0.8-1.5c-2.5,1.4-4.8,2.8-7.1,4.4c-2.3,1.6-4.7,3-7.1,4.4c-1.4,0.8-3.4,1.9-6,3.4c-2.6,1.5-5.5,3.2-8.5,5.2
		c-3.1,1.9-5.9,3.9-8.5,6c-2.5,1.9-4.7,3.9-6.4,5.9c-1.7,2-2.5,3.8-2.5,5.5c0,1.7,0.5,2.9,1.5,3.7
		C156.5,378.1,157.7,378.4,159.1,378.4z"/>
	<path fill="#222222" d="M229.8,334.6c-0.4,0-0.9-0.1-1.4-0.4s-0.8-0.6-0.8-1c0-0.7,0.1-1.3,0.4-1.8c0.9-2,2.1-4.5,3.6-7.5
		c1.5-3,3-6,4.5-9.2c1.5-3.2,2.8-6.2,3.8-9c1.1-2.8,1.6-5,1.6-6.7c0-0.5-0.1-1-0.3-1.5c-0.2-0.5-0.7-0.7-1.3-0.7c-1,0-2,0.4-3,1.3
		c-1,0.8-1.8,1.8-2.6,2.9c-0.8,1.1-1.4,1.9-1.9,2.6c-1.7,2.3-3.1,4.4-4.3,6.3c-1.2,1.9-2.4,3.8-3.6,5.6c-1.2,1.8-2.7,3.8-4.5,6
		c-0.3,0.3-0.5,0.6-0.8,0.8c-0.3,0.2-0.7,0.3-1.2,0.3s-1-0.3-1.3-0.8c-0.4-0.5-0.4-1-0.2-1.4c1.9-3,3.7-5.8,5.5-8.5s3.3-5,4.7-6.9
		c1.4-1.9,2.3-3.3,2.8-3.9c1.4-1.9,2.9-3.6,4.5-5.3c1.6-1.7,3.7-2.5,6.4-2.5c2.3,0,3.9,0.6,4.8,1.9c0.9,1.3,1.3,2.8,1.3,4.5
		c0,3.1-1.3,7-3.8,11.8c3.1-3.3,6.5-6.3,10.1-9c3.6-2.7,7-5,10.1-6.8c3.1-1.8,5.5-2.9,7.1-3.4c0.8-0.3,1.5-0.5,2.4-0.6
		c0.8-0.2,1.5-0.3,2.2-0.3c0.8,0,1.5,0.2,2.1,0.6c0.6,0.4,0.8,1.2,0.8,2.4c0,1.2-0.8,2.9-2.3,5c-1.5,2.2-3.4,4.6-5.5,7.4
		c-2.2,2.8-4.2,5.5-6.2,8.3c-2,2.8-3.4,5.4-4.2,7.9c-0.3,0.6-0.4,1.2-0.5,1.7c-0.1,0.6-0.1,1-0.1,1.5c0,2.3,1.1,3.4,3.2,3.4
		c1.4,0,3.1-0.7,5.1-2c1.2-0.8,2.4-1.6,3.5-2.6c1.1-1,2-1.8,2.6-2.6c1.3-1.4,2.3-2.7,3.1-3.7c0.8-1,1.6-2.1,2.4-3.4
		c0.8-1.2,1.8-2.8,3.1-4.6c0.3-0.4,0.5-0.7,0.8-0.9c0.3-0.2,0.7-0.3,1.3-0.3c0.9,0,1.4,0.6,1.4,1.8c0,0.5-0.4,1.4-1.1,2.6
		c-0.8,1.2-1.7,2.6-2.7,4.1c-1.1,1.5-2.1,2.8-3.1,4.1c-1,1.2-1.7,2.1-2.1,2.6c-0.9,1.1-2.1,2.2-3.5,3.4c-1.4,1.2-2.8,2.2-4.3,3.1
		c-1.4,0.8-2.8,1.3-4.2,1.7c-1.4,0.3-2.8,0.5-4.2,0.5c-2.2,0-3.8-0.6-4.8-1.9c-1-1.3-1.5-2.6-1.5-4.1c0-2.2,0.7-4.7,2.2-7.6
		c1.5-2.8,3.3-5.7,5.3-8.5c2.1-2.8,4-5.4,5.9-7.7c1.8-2.3,3.1-3.9,3.8-5c0.2-0.3,0.3-0.5,0.4-0.7c0.1-0.2,0.1-0.4,0.1-0.6
		c0-0.7-0.5-1-1.5-1c-0.5,0-1.1,0.1-1.8,0.4c-3.5,1.4-7.1,3.6-10.9,6.4c-3.8,2.8-7.3,5.8-10.4,9.1c-3.2,3.3-5.7,6.3-7.6,9.2l-5.1,8
		c-0.4,0.7-0.8,1.4-1.1,2.1c-0.3,0.7-0.7,1.4-1.1,2.1C231.2,334.2,230.6,334.6,229.8,334.6z"/>
	<path fill="#222222" d="M286.8,334.3c-2.9,0-5.2-0.8-6.9-2.4c-1.7-1.6-2.5-3.9-2.5-6.7c0-1.7,0.2-3.4,0.5-5
		c0.3-1.7,0.8-3.3,1.4-4.9c0.3-0.9,1-2.5,2.1-4.6c1.1-2.2,2.3-4.5,3.8-6.9c1.4-2.4,2.8-4.5,4.2-6.2c1.4-1.7,2.5-2.5,3.6-2.5
		c0.4,0,1,0.1,1.7,0.4c0.7,0.3,1.1,0.7,1.1,1.3c0,0.3-0.2,0.8-0.5,1.3c-2,2.2-4,4.8-6.1,7.9c-2.1,3.1-3.9,6.2-5.3,9.5
		c-1.4,3.3-2.2,6.5-2.2,9.5c0,3.9,1.9,5.9,5.6,5.9c2.5,0,5.1-1.2,7.7-3.7c2.6-2.5,5.4-5.8,8.6-9.9c0.9-1.2,1.8-2.4,2.5-3.5
		c0.7-1.1,1.4-2.1,2-3c0.6-0.6,1.2-0.9,1.9-0.9c1,0,1.5,0.4,1.5,1.1c0,0.9-0.7,2.4-2,4.5c-1.4,2-2.9,4.2-4.6,6.4
		c-3.3,4.1-6.2,7.2-8.6,9.3C293.6,333.2,290.5,334.3,286.8,334.3z M301.1,282.3c-0.4,0-0.9-0.1-1.4-0.3c-0.5-0.2-0.8-0.5-0.8-1.1
		c0-0.4,0.1-0.8,0.4-1.1c0.7-1.3,1.9-2.4,3.8-3.3c1.8-0.9,3.2-1.4,4.1-1.4c0.4,0,0.9,0.1,1.4,0.3c0.5,0.2,0.8,0.6,0.8,1.2
		c0,1.4-0.9,2.8-2.6,3.9C305,281.7,303.1,282.3,301.1,282.3z"/>
	<path fill="#222222" d="M316.8,335.4c-4.4,0-7.5-1.3-9.2-3.9c-1.7-2.6-2.6-5.6-2.6-9.1c0-2.5,0.6-5.6,1.9-9.1c1.3-3.5,3-7,5.3-10.4
		c2.2-3.4,4.9-6.2,7.8-8.5c3-2.2,6.1-3.4,9.5-3.4c2.2,0,4,0.6,5.3,1.8c1.3,1.2,2,2.8,2,4.6c0,3.6-1.1,7-3.4,10.3
		c-2.3,3.3-5.3,6-8.9,8.1c-3.6,2.1-7.5,3.2-11.7,3.2c-0.5,0-1,0-1.5-0.1c-0.5,0-1-0.1-1.5-0.2c-0.3,1.1-0.4,2.4-0.4,3.8
		c0,2.2,0.5,4.2,1.6,6.1c1.1,1.9,3.1,2.8,6.2,2.8c2.5,0,5-0.6,7.4-1.9c2.4-1.3,4.4-2.7,6-4.3c1.6-1.6,3-3.1,4.1-4.3
		c1.1-1.3,2.2-2.7,3.4-4.4c1.2-1.7,2.7-3.8,4.5-6.6c0.3-0.6,0.8-0.9,1.5-0.9c1.2,0,1.8,0.6,1.8,1.9c0,0.4-0.1,0.8-0.3,1
		c-2.3,3.9-4.8,7.6-7.6,11.1c-2.8,3.5-5.9,6.4-9.3,8.6C325,334.3,321.2,335.4,316.8,335.4z M313.7,315.3c3.2,0,6.3-0.9,9.1-2.6
		c2.8-1.7,5.2-3.9,7-6.6c1.8-2.6,2.7-5.3,2.7-8c0-0.9-0.2-1.7-0.7-2.3c-0.5-0.6-1.3-0.9-2.4-0.9c-2.2,0-4.3,0.7-6.4,2.2
		c-2,1.5-3.9,3.4-5.5,5.6c-1.7,2.2-3.1,4.5-4.2,6.7c-1.1,2.2-2,4.1-2.5,5.6c0.4,0.1,0.9,0.1,1.3,0.2
		C312.7,315.3,313.1,315.3,313.7,315.3z"/>
	<path fill="#222222" d="M345.1,335.4c-4.2,0-7.3-0.8-9.5-2.5c-2.2-1.7-3.3-3.5-3.3-5.3c0-1.4,0.6-2.6,1.7-3.6
		c1.1-1.1,3.1-1.6,5.8-1.6c1.7,0,3.7,0.3,6.1,0.8c1.8,0.4,3.7,1,5.7,1.7c2,0.7,4,1,6.2,0.9c0.6-0.9,0.9-1.7,1-2.3
		c0.1-0.6,0.1-1.3,0.1-2.2c0-2.8-0.4-5.1-1.3-7c-0.9-1.9-1.9-3.7-3.1-5.5c-1.1-1.8-2.1-3.9-2.9-6.5c-1.1,1.9-2.5,4.3-4.2,7.3
		c-1.7,3-4.5,7.1-8.4,12.3c-0.3,0.4-0.8,0.6-1.5,0.6c-1.3,0-1.9-0.6-1.9-1.7c0-0.3,0.2-0.6,0.6-1.1c0.4-0.5,1.2-1.8,2.6-3.9
		c1.5-2.5,3.3-5.2,5.3-8.3c2-3.1,4-6.5,5.9-10.2c0.1-1.4,0.4-2.8,0.9-4.2c0.5-1.4,1.1-2.6,1.8-3.7c0.9-1.5,1.9-2.6,2.9-3.4
		c1-0.7,1.9-1.1,2.8-1.1c1.6,0,2.4,0.9,2.4,2.8c0,1.3-0.5,2.9-1.5,5c-0.6,1.3-1.4,2.4-2.3,3.2c-0.9,0.9-1.7,1.7-2.4,2.4
		c0.2,2.1,0.7,4,1.5,5.7c0.8,1.7,1.8,3.4,2.9,5c1.1,1.6,2,3.4,2.7,5.2c0.8,1.9,1.1,4.1,1.1,6.7c0,1.7-0.3,3.3-0.9,4.7
		c1.9,0.1,3.8-0.6,5.8-2.1c2-1.5,3.9-3.4,5.7-5.8c1.8-2.4,3.5-4.8,4.9-7.2c0.4-0.6,1-0.9,1.7-0.9c0.4,0,0.8,0.1,1.3,0.4
		c0.4,0.3,0.6,0.7,0.6,1.3c0,0.3-0.1,0.8-0.4,1.3c-2.5,4.4-4.8,7.8-7.1,10.2c-2.2,2.4-4.5,4.1-6.8,5c-2.3,0.9-4.8,1.5-7.6,1.7
		c-2.1,2-4.4,3.5-6.8,4.5C350.7,334.9,348,335.4,345.1,335.4z M344.4,332.4c1.9,0,3.6-0.3,5.1-0.9c1.4-0.6,3-1.4,4.7-2.5
		c-1.8-0.3-3.3-0.6-4.5-1c-1.2-0.4-2.7-0.8-4.6-1.2c-2.4-0.5-4.2-0.8-5.6-0.8c-2.5,0-3.7,0.6-3.7,1.8c0,0.9,0.8,1.9,2.4,3
		C339.9,331.9,342,332.4,344.4,332.4z"/>
	<path fill="#222222" d="M358.8,377.7c-2.8,0-5.1-0.6-6.8-1.9c-1.7-1.3-2.6-3.2-2.6-5.7c0-2.5,1.3-4.9,4-7.4
		c2.7-2.5,5.8-4.9,9.5-7.3c3-1.9,6-3.6,9.2-5.2c3.1-1.6,6.1-3,8.8-4.2c2.7-1.2,4.9-2.2,6.6-3c3.5-1.6,6.9-3.3,10.3-5
		c3.4-1.7,6.7-3.6,9.8-5.5c0.4-0.9,0.9-2.2,1.3-3.8c0.5-1.6,0.7-3.2,0.7-4.8c0-1.7-0.4-3.2-1.2-4.5c-0.8-1.3-2.3-2-4.4-2
		c-0.5,0-1.1,0.1-1.8,0.3c-0.6,0.7-1.6,1.7-3.1,3.1c-1.5,1.4-3.1,2.8-4.8,4.3c-1.7,1.5-3.4,2.7-5,3.8c-1.6,1-2.8,1.5-3.8,1.5
		c-1.2,0-1.8-0.6-1.8-1.9c0-1.1,0.3-2.2,1-3.2c0.7-1,1.4-1.9,2.2-2.7c1.8-1.7,3.5-3.2,5.3-4.6c1.7-1.4,3.9-2.3,6.6-2.9
		c1-1.3,2.3-2.9,3.8-5c1.5-2.1,2.8-4.1,3.9-6.2c1.1-2.2,1.7-4,1.7-5.3c0-2.5-1.7-3.8-5.1-3.8c-3.1,0-5.9,1-8.6,2.9
		c-2.7,2-5.1,4.4-7.4,7.3c-2.2,2.9-4.3,5.8-6.3,8.6c-1.9,2.7-3.3,4.7-4.2,6c-0.9,1.3-1.6,2.2-2,2.5c-0.4,0.4-0.7,0.6-1.1,0.6
		c-1.2,0-1.8-0.6-1.8-1.7c0-0.2,0.1-0.4,0.3-0.8c0.2-0.4,0.7-1.2,1.6-2.6c2.6-4.2,5.4-8.2,8.2-12.2c2.8-4,6-7.3,9.5-10
		c3.5-2.7,7.4-4,11.8-4c2.9,0,5.1,0.6,6.7,1.8c1.6,1.2,2.4,3,2.4,5.3c0,2-0.6,4.3-1.9,7c-0.8,1.6-1.7,3.1-2.7,4.6
		c-1,1.4-2,2.8-2.9,4.1c3.2,0.1,5.5,1.2,6.9,3.3c1.4,2.1,2.1,4.4,2.1,6.9c0,1.3-0.2,2.6-0.6,4.1c2.5-2,5-4.8,7.6-8.3
		c2.6-3.5,4.9-6.7,6.8-9.7c0.4-0.7,1-1,1.7-1c1.1,0,1.7,0.6,1.7,1.8c0,0.3-0.1,0.8-0.4,1.3c-2.6,4.2-5.4,8.3-8.3,12.1
		c-2.9,3.8-6.6,7.2-11.1,10.2c-1.8,5.1-4.3,9.9-7.7,14.4c-3.4,4.5-7.1,8.6-11.3,12.3c-4.2,3.7-8.5,6.8-12.9,9.3
		c-4.4,2.5-8.6,4.4-12.5,5.6C364.1,377.2,361.4,377.7,358.8,377.7z M358.7,374.5c0.9,0,2-0.1,3.1-0.4c1.1-0.3,2.2-0.6,3.3-0.9
		c5.3-1.8,10.4-4.3,15.2-7.6c4.8-3.3,9.1-7,13-11.2c3.9-4.2,7.1-8.4,9.9-12.6c0.3-0.5,0.5-1,0.8-1.5c0.3-0.5,0.6-1,0.8-1.5
		c-2.5,1.4-5,2.6-7.5,3.9c-2.5,1.2-5.1,2.4-7.8,3.6c-1.5,0.7-3.7,1.7-6.6,2.9c-2.8,1.3-5.9,2.7-9.2,4.3c-3.3,1.6-6.4,3.3-9.3,5.2
		c-3.1,1.9-5.6,3.8-7.7,5.7c-2.1,2-3.1,3.8-3.1,5.5c0,1.6,0.5,2.8,1.4,3.4C355.9,374.2,357.2,374.5,358.7,374.5z"/>
	<path fill="#222222" d="M426.3,334.3c-1.4,0-2-0.6-2-1.8c0-0.2,0.4-1.1,1.1-2.8c0.7-1.7,1.6-3.6,2.6-5.9c1-2.2,1.9-4.3,2.8-6.2
		c0.8-1.9,1.4-3.1,1.7-3.6c-0.1-0.4-0.3-1.3-0.7-2.6c-0.4-1.3-0.6-2.6-0.6-3.8c0-0.9,0.2-1.7,0.5-2.4c0.3-0.6,0.9-1,1.8-1
		c0.4,0,0.9,0.3,1.5,0.8c0.6,0.5,1,0.8,1.2,1c0.7-1.3,1.3-2.5,1.8-3.8c0.5-1.3,1.1-2.5,1.7-3.8c2.9-6.7,5.6-13.2,8.3-19.5
		c2.6-6.3,5.5-12.8,8.6-19.4c0.4-0.8,1-1.4,1.7-1.8c0.7-0.4,1.4-0.6,2-0.6c1.3,0,1.9,0.6,1.9,1.7c0,0.7-0.4,2.2-1.3,4.5
		c-0.9,2.3-2.1,5.1-3.6,8.3c-1.5,3.2-3.1,6.6-4.8,10.1c-1.7,3.5-3.4,6.9-5,10.2c-1.6,3.3-3,6.1-4.2,8.5c-1.2,2.4-2,4-2.4,4.8
		l0.6,0.3c2.5-3.5,5.4-6.7,8.5-9.7c3.1-3,6.8-5.5,11-7.4c2.6-1.2,5-1.8,7.1-1.8c1.9,0,3.4,0.4,4.5,1.3c1.1,0.8,1.7,2,1.7,3.4
		c0,1.7-0.8,3.6-2.5,5.9c-1.4,1.7-3.1,3.3-5.3,4.8c-2.2,1.5-4.3,2.8-6.6,3.9c-2.2,1.1-4.2,2-6,2.5c-1.9,0.6-3.7,1.1-5.5,1.4
		c-1.8,0.3-3.7,0.7-5.7,1c-0.9,0.1-1.8,0.5-2.6,1.2c-0.8,0.7-1.3,1.4-1.5,2.1c0.5,2,1.4,4.3,2.8,6.9c1.4,2.5,3.1,4.7,5.2,6.6
		c2.1,1.8,4.6,2.7,7.4,2.7c2.8,0,5.3-1,7.6-2.9c2.2-2,4.4-4.4,6.5-7.4c2.1-3,4.3-6.1,6.6-9.2c0.4-0.5,1-0.8,1.7-0.8h0.3
		c0.8,0,1.3,0.6,1.3,1.9c0,0.3-0.1,0.7-0.4,1.1c-0.9,1.4-2.2,3.3-3.7,5.6c-1.5,2.3-3.3,4.6-5.3,6.9c-2,2.3-4.2,4.3-6.7,5.9
		c-2.5,1.6-5,2.4-7.8,2.4c-3.2,0-6.1-0.7-8.6-2.2c-2.5-1.4-4.6-3.3-6.2-5.7c-1.7-2.3-2.9-4.7-3.6-7.2c-1.3,2.4-2.4,4.8-3.5,7.2
		c-1.1,2.5-2.3,4.8-3.8,7c-0.2,0.3-0.4,0.5-0.8,0.8C427.2,334.2,426.8,334.3,426.3,334.3z M446.1,306.6c1.9-0.3,4-0.7,6.6-1.5
		c2.5-0.7,5-1.7,7.4-2.9c2.5-1.2,4.5-2.6,6.1-4.2c0.8-0.8,1.6-1.8,2.2-2.9c0.6-1.1,0.9-2,0.9-2.9c0-1.3-0.6-1.9-1.9-1.9
		s-3.4,0.8-6.2,2.4c-3.1,1.8-5.8,3.8-8.3,6.2C450.2,301.3,448,303.9,446.1,306.6z"/>
	<path fill="#222222" d="M476.7,334.7c-2.8,0-4.7-0.7-5.8-2.2c-1.1-1.5-1.6-3.3-1.6-5.4c0-2,0.3-4.2,1-6.4c0.7-2.2,1.4-4.3,2.2-6.2
		c0.8-1.9,1.5-3.3,2-4.3c1.5-2.6,3.2-5.2,5.2-7.6c1.9-2.5,4-4.6,6.2-6.5c2.2-1.9,4.5-3.5,6.8-4.5c2.3-1.1,4.7-1.6,7.1-1.6
		c4.1,0,7,1.1,8.6,3.2c1.7,2.2,2.5,4.5,2.5,6.9c0,0.8-0.1,1.7-0.4,2.7c-0.3,1.3-0.7,2.4-1.2,3.3c-0.5,0.9-1,1.4-1.7,1.4
		c-0.6,0-1.1-0.3-1.7-0.9c-0.5-0.6-0.7-1.2-0.5-1.8c0.2-0.6,0.4-1.2,0.7-1.8c0.3-0.6,0.5-1.2,0.6-1.8c0.1-0.4,0.1-0.8,0.2-1.1
		c0-0.3,0.1-0.7,0.1-1c0-2.3-0.7-3.9-2.2-4.8c-1.5-0.9-3.1-1.3-4.8-1.3c-2,0-4,0.6-6,1.7c-2.1,1.1-3.9,2.4-5.4,3.8
		c-1.9,1.9-3.7,4-5.6,6.5c-1.9,2.5-3.5,5-4.8,7.5c-0.2,0.4-0.6,1.4-1.3,3.1c-0.7,1.6-1.4,3.4-2,5.4c-0.6,2-1,3.8-1,5.5
		c0,1.2,0.3,2.2,0.8,3.1c0.6,0.8,1.5,1.3,2.9,1.3c1.4,0,3.1-0.7,5-2c1.9-1.4,3.9-3,5.9-5c2-2,3.8-3.9,5.4-5.8
		c1.6-1.9,2.8-3.3,3.6-4.3c0.5-0.7,1-1.4,1.5-2.2c0.5-0.8,1-1.5,1.5-2.2c0.3-0.3,0.8-0.5,1.5-0.5c0.7,0,1.4,0.2,2.1,0.6
		c0.7,0.4,1,0.9,0.8,1.6c-0.3,0.6-1,1.9-1.8,3.9c-0.9,2-1.7,4.2-2.5,6.5c-0.8,2.3-1.1,4.4-1.1,6.2c0,2.2,0.7,3.5,2,3.8
		c0.9,0.2,1.9-0.2,3-1c1.1-0.8,2-1.8,2.9-2.9c0.9-1.1,1.5-1.9,2-2.4c1.8-2.4,3.5-4.8,5-7.3c1.6-2.5,3.2-4.9,4.8-7.1
		c0.5-0.7,1.1-1,1.8-1c1.2,0,1.8,0.6,1.8,1.9c0,0.4-0.6,1.5-1.7,3.2c-1.1,1.7-2.4,3.7-4,5.9c-1.6,2.2-3,4.2-4.4,6
		c-1.4,1.8-2.9,3.5-4.6,5.2c-1.7,1.7-3.9,2.5-6.5,2.5c-2.5,0-4.1-0.5-5-1.7c-0.9-1.1-1.3-2.3-1.3-3.7c0-1.2,0.1-2.4,0.4-3.8
		c0.3-1.3,0.5-2.4,0.8-3.4l-0.5-0.4c-0.8,0.9-1.9,2.1-3.4,3.6c-1.5,1.4-3.2,2.9-5.1,4.4c-1.9,1.5-3.7,2.7-5.5,3.8
		C479.8,334.2,478.2,334.7,476.7,334.7z"/>
	<path fill="#222222" d="M565.4,275.8c-1.5,0-3.6-0.1-6.3-0.3c-2.7-0.2-5.3-0.5-7.8-1c-2.5-0.4-4.5-1-5.9-1.8
		c-1.8-1.1-3.4-2.4-4.9-3.9c-1.5-1.5-2.2-3.3-2.2-5.3c0-2.5,1-4.6,3.1-6.6c2-1.9,4.6-3.5,7.6-4.8c3-1.3,6.1-2.3,9.2-3
		c3.1-0.7,5.8-1.1,8-1.2c1-0.1,2-0.1,3-0.1c1,0,2,0,3,0c9.3,0,18.6,1,27.9,2.9c9.2,2,18.4,4,27.3,6.1c5.6,1.4,11.4,2.6,17.3,3.8
		c5.9,1.2,11.8,1.8,17.7,1.8c0.9,0,2.1-0.1,3.6-0.2c1.4-0.1,2.7-0.4,3.9-1s1.7-1.3,1.7-2.4c0-0.8-0.3-1.5-0.8-1.8
		c-0.6-0.4-1.1-0.7-1.7-1c-0.6-0.3-0.9-0.7-0.9-1.3c0-0.5,0.2-1,0.7-1.4c0.5-0.4,1-0.6,1.6-0.6c0.8,0,1.8,0.4,2.7,1.1
		c1,0.8,1.8,1.7,2.5,2.7c0.7,1,1.1,2,1.1,2.8c0,2-0.8,3.4-2.5,4.4c-1.7,1-3.7,1.6-5.9,1.9c-2.2,0.3-4.2,0.4-5.8,0.4
		c-5.9,0-11.7-0.6-17.6-1.8c-5.9-1.2-11.7-2.5-17.4-3.8c-8.9-2.1-18-4.1-27.2-6c-9.2-1.9-18.5-2.9-27.8-2.9c-1,0-2,0-3,0
		c-1,0-2,0-3,0.1c-2.4,0.2-5.1,0.6-8.3,1.3c-3.1,0.7-6.1,1.7-8.8,3c-2.8,1.3-4.8,2.9-6,4.8c-0.6,0.8-0.9,1.7-0.9,2.4
		c0,1.4,0.6,2.6,1.8,3.7c1.2,1.1,2.4,2,3.6,2.7c1.1,0.7,2.8,1.2,5,1.6c2.2,0.4,4.5,0.6,6.9,0.8c2.3,0.1,4.1,0.2,5.4,0.2
		c3.5,0,6.9-0.2,10.3-0.6c3.4-0.4,6.7-1.1,9.9-1.9c0.5-0.2,1.4-0.5,2.5-0.9c1.2-0.4,2.5-0.9,3.9-1.3c1.4-0.5,2.6-0.9,3.6-1.3
		c1-0.4,1.5-0.6,1.6-0.6c0.7,0,1.2,0.2,1.7,0.7c0.4,0.5,0.6,1,0.6,1.5c0,0.6-0.4,1.1-1.3,1.5c-1.6,0.8-3.4,1.6-5.5,2.2
		c-2,0.6-4,1.2-6,1.7C579.8,274.9,572.7,275.8,565.4,275.8z M583.4,339.3c-1.4,0-2-0.6-2-1.9c0-0.9,0.2-2,0.7-3.3
		c0.5-1.3,0.9-2.3,1.2-3.2c2-5,4.4-10,7.2-14.9c2.8-4.9,5.4-9.8,8.1-14.6c0.8-1.4,1.9-3.5,3.4-6.2c1.5-2.7,3.1-5.6,4.6-8.7
		c1.6-3.1,2.9-6,4.1-8.6c1.1-2.6,1.7-4.6,1.7-6c0-0.4-0.1-0.8-0.3-1.1c-0.2-0.3-0.3-0.6-0.3-1c0-0.4,0.2-0.8,0.6-1.1
		c0.4-0.3,0.9-0.5,1.5-0.5c1.1,0,1.8,0.4,2,1.3c0.3,0.8,0.4,1.7,0.4,2.4c0,1.7-0.6,3.9-1.7,6.7c-1.1,2.8-2.4,5.7-4,8.8
		c-1.6,3.1-3.1,6-4.6,8.8c-1.5,2.8-2.8,5-3.7,6.7c-2.6,4.8-5.3,9.5-8,14.4c-2.7,4.8-5.1,9.8-7.1,14.8c-0.3,0.9-0.7,1.9-1,2.8
		c-0.3,0.9-0.6,1.9-0.8,2.8C585.3,338.7,584.6,339.3,583.4,339.3z"/>
	<path fill="#222222" d="M626.4,337.1c-2.3,0-4.1-0.6-5.5-1.8c-1.4-1.2-2.4-2.6-3-4.4c-0.6-1.7-1-3.4-1-4.9c0-2,0.4-4.3,1.1-6.8
		c0.8-2.5,1.4-4.2,2-5.2c0-0.3,0-0.5-0.1-0.8c0-0.3-0.1-0.6-0.1-0.8c0-2.3,0.3-4.7,1-7.1c0.8-2.9,2.1-5.5,4.1-8
		c2-2.4,4.4-4.4,7.3-5.9s6.1-2.3,9.6-2.3c4.1,0,7.2,1.1,9.4,3.2c2.2,2.2,3.3,5,3.3,8.5c0,4.8-0.9,9-2.6,12.5
		c-1.7,3.5-3.6,6.8-5.5,10c-0.3,0.7-0.6,1.2-0.9,1.7c-0.3,0.4,0,0.6,0.8,0.6c2.5,0,4.9-1,7.2-3.1c2.4-2,5.4-5.9,9-11.6
		c0.3-0.4,0.5-0.8,0.8-1c0.3-0.3,0.6-0.4,1.1-0.4h0.3c0.9,0,1.5,0.6,1.7,1.7c0,0.3-0.1,0.6-0.3,0.9c-2.1,3.7-4.3,7-6.4,9.7
		c-2.2,2.7-4.7,4.8-7.7,6.2c-3,1.4-6.7,2.1-11.2,2.2c-1.8,1.7-4,3.3-6.6,4.7C631.9,336.4,629.2,337.1,626.4,337.1z M627.2,333.5
		c1.7,0,3.4-0.5,5.1-1.6c1.7-1.1,3.1-2.1,4.3-3c-6.4-0.7-11.2-3.5-14.2-8.5c-0.1,0.6-0.3,1.5-0.5,2.7c-0.3,1.2-0.4,2.4-0.4,3.6
		c0,1.7,0.4,3.3,1.1,4.7C623.4,332.8,624.9,333.5,627.2,333.5z M638.6,325.4h1.3c1.8-2.1,3.5-4.5,5.2-7.3c1.7-2.7,3-5.5,4-8.5
		c1-2.9,1.5-5.7,1.5-8.3c0-2.5-0.6-4.6-1.9-6.3c-1.3-1.7-3.5-2.6-6.6-2.6c-2.1,0-4.2,0.4-6.2,1.3c-2,0.9-3.7,2-5.2,3.2l0.4,0.5
		c0.2-0.1,0.4-0.1,0.8-0.1c0.5,0,1,0.2,1.4,0.6c0.4,0.4,0.6,0.8,0.6,1.2c0,0.3,0,0.5-0.1,0.6c-0.1,0.2-0.2,0.3-0.4,0.5
		c-1.4,2.1-2.8,4.1-4.2,6c-1.4,1.9-2.6,4-3.8,6.4c-0.3,0.6-0.6,1.2-0.9,1.8c0.7,3.1,2.3,5.7,4.8,7.8
		C631.8,324.4,634.9,325.4,638.6,325.4z"/>
	<path fill="#222222" d="M670.4,336.5c-0.4,0-0.9-0.1-1.4-0.4c-0.5-0.3-0.8-0.6-0.8-1c0-0.3,0-0.6,0.1-0.9c0.1-0.3,0.2-0.6,0.3-0.9
		c0.9-2.1,2.2-4.8,3.9-8.1c1.7-3.3,3.5-6.8,5.3-10.5c1.9-3.7,3.4-7.1,4.7-10.2c1.3-3.1,1.9-5.6,1.9-7.3c0-0.5-0.1-1-0.3-1.5
		c-0.2-0.5-0.7-0.7-1.3-0.7c-1.1,0-2.4,0.5-3.9,1.6c-1.5,1.1-3,2.5-4.5,4.3c-0.8,1-2,2.5-3.3,4.4c-1.4,1.9-2.8,3.9-4.2,6.1
		c-1.4,2.2-2.8,4.2-4,6c-1.2,1.9-2.2,3.2-2.9,3.9c-0.6,0.8-1.3,1.3-2.2,1.3c-0.6,0-1-0.2-1.3-0.6c-0.3-0.4-0.3-0.9,0.1-1.5
		c0.7-1.3,1.7-3,3.1-5.1c1.4-2.1,2.9-4.3,4.4-6.6c1.5-2.3,2.9-4.3,4.2-6.1c1.3-1.8,2.1-2.9,2.4-3.4c1.4-1.9,3.2-3.6,5.3-5.3
		c2.1-1.7,4.5-2.5,7.2-2.5c3.9,0,5.9,1.7,5.9,5.2c0,1.6-0.4,3.5-1.1,5.6c-0.8,2.1-1.9,4.6-3.3,7.4c2.7-2.8,5.1-5.1,7.1-6.9
		c2-1.8,4-3.4,5.9-5c1.9-1.6,4-2.4,6.1-2.4c1.8,0,3.3,0.6,4.5,1.9c1.2,1.3,1.8,3.1,1.8,5.6c0,0.8-0.1,1.6-0.2,2.6
		c-0.1,1-0.4,2.3-0.8,4c2.9-3.1,6-5.9,9.2-8.3c3.3-2.4,6.3-4.3,9.2-5.9c2.8-1.6,5.1-2.6,6.7-3c0.8-0.3,1.7-0.5,2.5-0.6
		c0.8-0.2,1.5-0.3,2.2-0.3c0.8,0,1.5,0.2,2,0.6c0.5,0.4,0.8,1.2,0.8,2.4c0,1.2-0.8,2.9-2.3,5s-3.4,4.6-5.5,7.4
		c-2.2,2.8-4.2,5.5-6.2,8.3c-2,2.8-3.4,5.4-4.2,7.9c-0.4,1.4-0.6,2.5-0.6,3.2c0,2.3,1.1,3.4,3.2,3.4c1.4,0,3.2-0.7,5.2-2
		c2.2-1.4,4.6-3.8,7.1-7c2.5-3.2,4.9-6.5,7.1-9.9c0.5-0.8,1.2-1.1,2-1.1c0.6,0,1,0.1,1.1,0.4c0.2,0.3,0.3,0.6,0.3,0.8
		c0,0.4-0.4,1.4-1.2,3.1c-0.8,1.6-2.1,3.6-4,6.1c-2.4,3.1-4.5,5.6-6.4,7.4c-1.9,1.8-3.5,3.1-4.6,3.8c-1.1,0.7-2.2,1.2-3.4,1.5
		c-1.2,0.3-2.4,0.4-3.6,0.4c-2.7,0-4.7-0.6-5.9-1.7c-1.2-1.1-1.8-2.5-1.8-4.1c0-2.2,0.7-4.7,2.2-7.5c1.5-2.8,3.2-5.6,5.3-8.5
		c2-2.8,4-5.4,5.8-7.7c1.8-2.3,3.1-3.9,3.8-5c0.3-0.4,0.5-0.8,0.5-1.3c0-0.7-0.5-1-1.4-1c-0.5,0-1.1,0.1-1.8,0.4
		c-3.5,1.4-6.9,3.4-10.3,5.9c-3.4,2.5-6.4,5-9.1,7.6c-2.7,2.5-4.7,4.7-6.2,6.4c-0.3,1.2-0.8,2.8-1.4,4.8c-0.6,2-1.4,3.8-2.4,5.3
		c-1,1.5-2.3,2.3-3.9,2.3c-0.8,0-1.4-0.3-1.8-0.8c-0.5-0.6-0.7-1.1-0.7-1.7c0-2.2,0.7-4.2,2-6.1c1.4-1.9,2.9-3.6,4.7-5.2
		c0.4-1.4,1-3.3,1.8-5.7c0.8-2.3,1.1-4.3,1.1-5.9c0-1.4-0.3-2.4-1-3.2c-0.6-0.8-1.4-1.1-2.4-1.1c-1.1,0-2.2,0.4-3.3,1.3
		c-4.2,2.9-7.8,6.4-11.1,10.6c-3.2,4.2-6.1,8.3-8.7,12.3c-1.4,2-2.6,4-3.8,6.1c-1.1,2.1-2.4,4.2-3.8,6.1c-0.3,0.3-0.5,0.6-0.8,0.8
		C671.3,336.4,671,336.5,670.4,336.5z"/>
	<path fill="#222222" d="M747.5,334.7c-2.8,0-4.7-0.7-5.8-2.2c-1.1-1.5-1.6-3.3-1.6-5.4c0-2,0.3-4.2,1-6.4c0.7-2.2,1.4-4.3,2.2-6.2
		c0.8-1.9,1.5-3.3,2-4.3c1.5-2.6,3.2-5.2,5.2-7.6c1.9-2.5,4-4.6,6.2-6.5c2.2-1.9,4.5-3.5,6.8-4.5c2.3-1.1,4.7-1.6,7.1-1.6
		c4.1,0,7,1.1,8.6,3.2c1.7,2.2,2.5,4.5,2.5,6.9c0,0.8-0.1,1.7-0.4,2.7c-0.3,1.3-0.7,2.4-1.2,3.3c-0.5,0.9-1,1.4-1.7,1.4
		c-0.6,0-1.1-0.3-1.7-0.9c-0.5-0.6-0.7-1.2-0.5-1.8c0.2-0.6,0.4-1.2,0.7-1.8c0.3-0.6,0.5-1.2,0.6-1.8c0.1-0.4,0.1-0.8,0.2-1.1
		c0-0.3,0.1-0.7,0.1-1c0-2.3-0.7-3.9-2.2-4.8c-1.5-0.9-3.1-1.3-4.8-1.3c-2,0-4,0.6-6,1.7c-2.1,1.1-3.9,2.4-5.4,3.8
		c-1.9,1.9-3.7,4-5.6,6.5c-1.9,2.5-3.5,5-4.8,7.5c-0.2,0.4-0.6,1.4-1.3,3.1c-0.7,1.6-1.4,3.4-2,5.4c-0.6,2-1,3.8-1,5.5
		c0,1.2,0.3,2.2,0.8,3.1c0.6,0.8,1.5,1.3,2.9,1.3c1.4,0,3.1-0.7,5-2c1.9-1.4,3.9-3,5.9-5c2-2,3.8-3.9,5.4-5.8
		c1.6-1.9,2.8-3.3,3.6-4.3c0.5-0.7,1-1.4,1.5-2.2c0.5-0.8,1-1.5,1.5-2.2c0.3-0.3,0.8-0.5,1.5-0.5c0.7,0,1.4,0.2,2.1,0.6
		c0.7,0.4,1,0.9,0.8,1.6c-0.3,0.6-1,1.9-1.8,3.9c-0.9,2-1.7,4.2-2.5,6.5c-0.8,2.3-1.1,4.4-1.1,6.2c0,2.2,0.7,3.5,2,3.8
		c0.9,0.2,1.9-0.2,3-1c1.1-0.8,2-1.8,2.9-2.9c0.9-1.1,1.5-1.9,2-2.4c1.8-2.4,3.5-4.8,5-7.3c1.6-2.5,3.2-4.9,4.8-7.1
		c0.5-0.7,1.1-1,1.8-1c1.2,0,1.8,0.6,1.8,1.9c0,0.4-0.6,1.5-1.7,3.2c-1.1,1.7-2.4,3.7-4,5.9c-1.6,2.2-3,4.2-4.4,6
		c-1.4,1.8-2.9,3.5-4.6,5.2c-1.7,1.7-3.9,2.5-6.5,2.5c-2.5,0-4.1-0.5-5-1.7c-0.9-1.1-1.3-2.3-1.3-3.7c0-1.2,0.1-2.4,0.4-3.8
		c0.3-1.3,0.5-2.4,0.8-3.4l-0.5-0.4c-0.8,0.9-1.9,2.1-3.4,3.6c-1.5,1.4-3.2,2.9-5.1,4.4c-1.9,1.5-3.7,2.7-5.5,3.8
		C750.6,334.2,749,334.7,747.5,334.7z"/>
	<path fill="#222222" d="M792.7,335.4c-4.2,0-7.3-0.8-9.5-2.5s-3.3-3.5-3.3-5.3c0-1.4,0.6-2.6,1.7-3.6c1.1-1.1,3.1-1.6,5.8-1.6
		c1.7,0,3.7,0.3,6.1,0.8c1.8,0.4,3.7,1,5.7,1.7c2,0.7,4,1,6.2,0.9c0.6-0.9,0.9-1.7,1-2.3c0.1-0.6,0.1-1.3,0.1-2.2
		c0-2.8-0.4-5.1-1.3-7c-0.9-1.9-1.9-3.7-3.1-5.5c-1.1-1.8-2.1-3.9-2.9-6.5c-1.1,1.9-2.5,4.3-4.2,7.3c-1.7,3-4.5,7.1-8.4,12.3
		c-0.3,0.4-0.8,0.6-1.5,0.6c-1.3,0-1.9-0.6-1.9-1.7c0-0.3,0.2-0.6,0.6-1.1s1.2-1.8,2.6-3.9c1.5-2.5,3.3-5.2,5.3-8.3
		c2-3.1,4-6.5,5.9-10.2c0.1-1.4,0.4-2.8,0.9-4.2c0.5-1.4,1.1-2.6,1.8-3.7c0.9-1.5,1.9-2.6,2.9-3.4c1-0.7,2-1.1,2.8-1.1
		c1.6,0,2.4,0.9,2.4,2.8c0,1.3-0.5,2.9-1.5,5c-0.6,1.3-1.4,2.4-2.3,3.2c-0.9,0.9-1.7,1.7-2.4,2.4c0.2,2.1,0.7,4,1.5,5.7
		c0.8,1.7,1.8,3.4,2.9,5c1.1,1.6,2,3.4,2.7,5.2c0.8,1.9,1.1,4.1,1.1,6.7c0,1.7-0.3,3.3-0.9,4.7c1.9,0.1,3.8-0.6,5.8-2.1
		c2-1.5,3.9-3.4,5.7-5.8c1.8-2.4,3.5-4.8,4.9-7.2c0.4-0.6,1-0.9,1.7-0.9c0.4,0,0.8,0.1,1.3,0.4c0.4,0.3,0.6,0.7,0.6,1.3
		c0,0.3-0.1,0.8-0.4,1.3c-2.5,4.4-4.8,7.8-7.1,10.2c-2.2,2.4-4.5,4.1-6.8,5c-2.3,0.9-4.8,1.5-7.6,1.7c-2.1,2-4.4,3.5-6.8,4.5
		C798.3,334.9,795.6,335.4,792.7,335.4z M792,332.4c2,0,3.6-0.3,5.1-0.9c1.4-0.6,3-1.4,4.7-2.5c-1.8-0.3-3.3-0.6-4.5-1
		c-1.2-0.4-2.7-0.8-4.6-1.2c-2.4-0.5-4.2-0.8-5.6-0.8c-2.5,0-3.7,0.6-3.7,1.8c0,0.9,0.8,1.9,2.4,3
		C787.5,331.9,789.6,332.4,792,332.4z"/>
	<path fill="#222222" d="M806.4,377.7c-2.8,0-5.1-0.6-6.8-1.9c-1.7-1.3-2.6-3.2-2.6-5.7c0-2.5,1.3-4.9,4-7.4
		c2.7-2.5,5.8-4.9,9.5-7.3c3-1.9,6-3.6,9.2-5.2c3.1-1.6,6.1-3,8.8-4.2c2.7-1.2,4.9-2.2,6.6-3c3.5-1.6,6.9-3.3,10.3-5
		c3.4-1.7,6.7-3.6,9.8-5.5c0.4-0.9,0.9-2.2,1.3-3.8c0.5-1.6,0.7-3.2,0.7-4.8c0-1.7-0.4-3.2-1.2-4.5c-0.8-1.3-2.3-2-4.4-2
		c-0.5,0-1.1,0.1-1.8,0.3c-0.6,0.7-1.6,1.7-3.1,3.1c-1.5,1.4-3.1,2.8-4.8,4.3c-1.7,1.5-3.4,2.7-5,3.8c-1.6,1-2.8,1.5-3.8,1.5
		c-1.2,0-1.8-0.6-1.8-1.9c0-1.1,0.3-2.2,1-3.2c0.7-1,1.4-1.9,2.2-2.7c1.8-1.7,3.5-3.2,5.3-4.6c1.7-1.4,3.9-2.3,6.6-2.9
		c1-1.3,2.3-2.9,3.8-5c1.5-2.1,2.8-4.1,3.9-6.2c1.1-2.2,1.7-4,1.7-5.3c0-2.5-1.7-3.8-5.1-3.8c-3.1,0-5.9,1-8.6,2.9
		c-2.7,2-5.1,4.4-7.4,7.3c-2.2,2.9-4.3,5.8-6.3,8.6c-1.9,2.7-3.3,4.7-4.2,6c-0.9,1.3-1.6,2.2-2,2.5c-0.4,0.4-0.7,0.6-1.1,0.6
		c-1.2,0-1.8-0.6-1.8-1.7c0-0.2,0.1-0.4,0.3-0.8c0.2-0.4,0.7-1.2,1.6-2.6c2.6-4.2,5.4-8.2,8.2-12.2c2.8-4,6-7.3,9.5-10
		c3.5-2.7,7.4-4,11.8-4c2.9,0,5.1,0.6,6.7,1.8c1.6,1.2,2.4,3,2.4,5.3c0,2-0.6,4.3-1.9,7c-0.8,1.6-1.7,3.1-2.7,4.6
		c-1,1.4-2,2.8-2.9,4.1c3.2,0.1,5.5,1.2,6.9,3.3c1.4,2.1,2.1,4.4,2.1,6.9c0,1.3-0.2,2.6-0.6,4.1c2.5-2,5-4.8,7.6-8.3
		c2.6-3.5,4.9-6.7,6.8-9.7c0.4-0.7,1-1,1.7-1c1.1,0,1.7,0.6,1.7,1.8c0,0.3-0.1,0.8-0.4,1.3c-2.6,4.2-5.4,8.3-8.3,12.1
		c-2.9,3.8-6.6,7.2-11.1,10.2c-1.8,5.1-4.3,9.9-7.7,14.4c-3.4,4.5-7.1,8.6-11.3,12.3c-4.2,3.7-8.5,6.8-12.9,9.3
		c-4.4,2.5-8.6,4.4-12.5,5.6C811.7,377.2,809,377.7,806.4,377.7z M806.3,374.5c0.9,0,2-0.1,3.1-0.4c1.1-0.3,2.2-0.6,3.3-0.9
		c5.3-1.8,10.4-4.3,15.2-7.6c4.8-3.3,9.1-7,13-11.2c3.9-4.2,7.1-8.4,9.9-12.6c0.3-0.5,0.5-1,0.8-1.5c0.3-0.5,0.6-1,0.8-1.5
		c-2.5,1.4-5,2.6-7.5,3.9c-2.5,1.2-5.1,2.4-7.8,3.6c-1.5,0.7-3.7,1.7-6.6,2.9c-2.8,1.3-5.9,2.7-9.2,4.3c-3.3,1.6-6.4,3.3-9.3,5.2
		c-3.1,1.9-5.6,3.8-7.7,5.7c-2.1,2-3.1,3.8-3.1,5.5c0,1.6,0.5,2.8,1.4,3.4C803.5,374.2,804.8,374.5,806.3,374.5z"/>
	<path fill="#222222" d="M883.8,335.4c-4.4,0-7.5-1.3-9.2-3.9c-1.7-2.6-2.6-5.6-2.6-9.1c0-2.5,0.6-5.6,1.9-9.1c1.3-3.5,3-7,5.3-10.4
		c2.2-3.4,4.9-6.2,7.8-8.5c3-2.2,6.1-3.4,9.5-3.4c2.2,0,4,0.6,5.3,1.8c1.3,1.2,2,2.8,2,4.6c0,3.6-1.1,7-3.4,10.3
		c-2.3,3.3-5.3,6-8.9,8.1c-3.6,2.1-7.5,3.2-11.7,3.2c-0.5,0-1,0-1.5-0.1c-0.5,0-1-0.1-1.5-0.2c-0.3,1.1-0.4,2.4-0.4,3.8
		c0,2.2,0.5,4.2,1.6,6.1c1.1,1.9,3.1,2.8,6.2,2.8c2.5,0,5-0.6,7.4-1.9c2.4-1.3,4.4-2.7,6-4.3c1.6-1.6,3-3.1,4.1-4.3
		c1.1-1.3,2.2-2.7,3.4-4.4c1.2-1.7,2.7-3.8,4.5-6.6c0.3-0.6,0.8-0.9,1.5-0.9c1.2,0,1.8,0.6,1.8,1.9c0,0.4-0.1,0.8-0.3,1
		c-2.3,3.9-4.8,7.6-7.6,11.1c-2.8,3.5-5.9,6.4-9.3,8.6S888.1,335.4,883.8,335.4z M880.6,315.3c3.2,0,6.3-0.9,9.1-2.6
		c2.8-1.7,5.2-3.9,7-6.6c1.8-2.6,2.7-5.3,2.7-8c0-0.9-0.2-1.7-0.7-2.3c-0.5-0.6-1.3-0.9-2.4-0.9c-2.2,0-4.3,0.7-6.4,2.2
		c-2,1.5-3.9,3.4-5.5,5.6c-1.7,2.2-3.1,4.5-4.2,6.7c-1.1,2.2-2,4.1-2.5,5.6c0.4,0.1,0.9,0.1,1.3,0.2
		C879.6,315.3,880.1,315.3,880.6,315.3z"/>
	<path fill="#222222" d="M935.7,336.2c-1.5,0-2.8-0.5-3.9-1.4c-1.1-0.9-1.6-2.5-1.6-4.6c0-2.8,0.6-5.6,1.7-8.5
		c1.1-2.8,2.3-5.5,3.7-7.9l-0.6-0.1c-0.8,1.1-2.1,2.6-3.6,4.5c-1.6,1.9-3.4,3.9-5.3,5.9c-2,2-4,3.8-6.2,5.5c-1.7,1.4-3.4,2.5-5,3.4
		c-1.7,0.9-3.2,1.3-4.5,1.3c-1.4,0-2.5-0.4-3.1-1.2c-0.6-0.8-0.9-1.8-0.9-3c0-2,0.3-4.1,0.8-6.4c0.6-2.3,1.2-4.5,2-6.5
		c-0.6,0.8-1.2,1.7-1.7,2.4c-0.6,0.8-1.1,1.5-1.6,2.2c-0.3,0.6-0.8,0.9-1.5,0.9c-0.6,0-1.1-0.3-1.6-0.8c-0.5-0.5-0.5-1.1-0.1-1.7
		c1.1-1.6,2.6-3.8,4.4-6.5c1.8-2.7,3.7-5.6,5.5-8.5c1.9-3,3.4-5.6,4.7-7.8c0.4-0.8,0.8-1.5,1.2-2.1c0.4-0.6,0.7-1.2,1.1-1.7
		c0.6-0.6,1.4-0.9,2.4-0.9c0.8,0,1.4,0.3,1.9,0.8c0.3,0.3,0.4,0.6,0.4,1v0.1c0,0.2,0,0.3-0.1,0.5c-0.1,0.2-0.2,0.3-0.3,0.5l-0.3,0.3
		c-1.6,3.5-3.3,6.9-5,10.4c-1.7,3.4-3.1,6.4-4,8.8c-0.3,0.7-0.7,1.9-1.3,3.6c-0.6,1.7-1.1,3.5-1.7,5.3c-0.5,1.8-0.8,3.3-0.8,4.4
		c0,1.1,0.4,1.7,1.1,1.7c0.5,0,1.2-0.3,2.2-0.8c1-0.5,2.2-1.5,3.8-2.9c2.7-2.4,5.3-4.9,7.8-7.5c2.5-2.6,4.8-5.3,7-8
		c0.3-0.3,0.9-1.2,2-2.5c1.1-1.3,2.3-2.8,3.7-4.6c1.4-1.7,2.8-3.4,4.1-5.1c1.3-1.7,2.4-3,3.2-4c0.8-1,2-1.5,3.6-1.5
		c0.6,0,1.1,0.2,1.5,0.5c0.4,0.3,0.6,0.8,0.6,1.5c0,0.5,0,0.8-0.1,1c-0.7,2.5-2,5-3.9,7.6c-1.9,2.6-3.9,5.4-6.1,8.4
		c-2.2,3-4.1,6.4-5.7,10.2c-0.1,0.3-0.3,1.1-0.6,2.4c-0.3,1.2-0.5,2.4-0.5,3.6c0,1,0.2,1.9,0.6,2.6c0.4,0.7,1,1.1,1.8,1.1
		c1.5,0,3.5-0.8,5.8-2.3c2.3-1.5,4.7-3.4,7.1-5.7c2.4-2.2,4.6-4.5,6.6-6.6c2-2.2,3.5-3.9,4.4-5.2c2.5-3.4,4.5-6.9,6.2-10.6
		c1.7-3.6,2.5-7,2.5-9.9c0-2.9-2.1-4.4-6.2-4.5c-1.2,0-1.8-0.5-1.8-1.5c0-0.4,0.2-0.8,0.5-1.1c0.3-0.3,0.8-0.5,1.4-0.5
		c3.1,0.1,5.4,0.8,7.2,2c1.7,1.3,2.6,3.1,2.6,5.6c0,3.3-0.9,6.9-2.7,10.7c-1.8,3.8-3.9,7.5-6.4,10.9c-3.1,4.2-6.3,8-9.7,11.2
		c-3.4,3.2-7.5,6.3-12.1,9.3c-1,0.6-2.1,1.1-3.2,1.5C937.9,336,936.8,336.2,935.7,336.2z"/>
	<path fill="#222222" d="M978.4,335.4c-4.2,0-7.3-0.8-9.5-2.5s-3.3-3.5-3.3-5.3c0-1.4,0.6-2.6,1.7-3.6c1.1-1.1,3.1-1.6,5.8-1.6
		c1.7,0,3.7,0.3,6.1,0.8c1.8,0.4,3.7,1,5.7,1.7c2,0.7,4,1,6.2,0.9c0.6-0.9,0.9-1.7,1-2.3c0.1-0.6,0.1-1.3,0.1-2.2
		c0-2.8-0.4-5.1-1.3-7c-0.9-1.9-1.9-3.7-3.1-5.5c-1.1-1.8-2.1-3.9-2.9-6.5c-1.1,1.9-2.5,4.3-4.2,7.3c-1.7,3-4.5,7.1-8.4,12.3
		c-0.3,0.4-0.8,0.6-1.5,0.6c-1.3,0-1.9-0.6-1.9-1.7c0-0.3,0.2-0.6,0.6-1.1s1.2-1.8,2.6-3.9c1.5-2.5,3.3-5.2,5.3-8.3
		c2-3.1,4-6.5,5.9-10.2c0.1-1.4,0.4-2.8,0.9-4.2c0.5-1.4,1.1-2.6,1.8-3.7c0.9-1.5,1.9-2.6,2.9-3.4c1-0.7,2-1.1,2.8-1.1
		c1.6,0,2.4,0.9,2.4,2.8c0,1.3-0.5,2.9-1.5,5c-0.6,1.3-1.4,2.4-2.3,3.2c-0.9,0.9-1.7,1.7-2.4,2.4c0.2,2.1,0.7,4,1.5,5.7
		c0.8,1.7,1.8,3.4,2.9,5c1.1,1.6,2,3.4,2.7,5.2c0.8,1.9,1.1,4.1,1.1,6.7c0,1.7-0.3,3.3-0.9,4.7c1.9,0.1,3.8-0.6,5.8-2.1
		c2-1.5,3.9-3.4,5.7-5.8c1.8-2.4,3.5-4.8,4.9-7.2c0.4-0.6,1-0.9,1.7-0.9c0.4,0,0.8,0.1,1.3,0.4c0.4,0.3,0.6,0.7,0.6,1.3
		c0,0.3-0.1,0.8-0.4,1.3c-2.5,4.4-4.8,7.8-7.1,10.2c-2.2,2.4-4.5,4.1-6.8,5c-2.3,0.9-4.8,1.5-7.6,1.7c-2.1,2-4.4,3.5-6.8,4.5
		C984,334.9,981.4,335.4,978.4,335.4z M977.8,332.4c2,0,3.6-0.3,5.1-0.9c1.4-0.6,3-1.4,4.7-2.5c-1.8-0.3-3.3-0.6-4.5-1
		c-1.2-0.4-2.7-0.8-4.6-1.2c-2.4-0.5-4.2-0.8-5.6-0.8c-2.5,0-3.7,0.6-3.7,1.8c0,0.9,0.8,1.9,2.4,3
		C973.3,331.9,975.3,332.4,977.8,332.4z"/>
	<path fill="#222222" d="M1010.6,334.3c-1.4,0-2-0.6-2-1.8c0-0.2,0.4-1.1,1.1-2.8c0.7-1.7,1.6-3.6,2.6-5.9c1-2.2,2-4.3,2.8-6.2
		c0.8-1.9,1.4-3.1,1.7-3.6c-0.1-0.4-0.3-1.3-0.7-2.6c-0.4-1.3-0.6-2.6-0.6-3.8c0-0.9,0.2-1.7,0.5-2.4c0.3-0.6,0.9-1,1.8-1
		c0.4,0,0.9,0.3,1.5,0.8c0.6,0.5,1,0.8,1.2,1c0.7-1.3,1.3-2.5,1.8-3.8c0.5-1.3,1.1-2.5,1.7-3.8c2.9-6.7,5.6-13.2,8.3-19.5
		c2.6-6.3,5.5-12.8,8.6-19.4c0.4-0.8,1-1.4,1.7-1.8c0.7-0.4,1.4-0.6,2-0.6c1.3,0,1.9,0.6,1.9,1.7c0,0.7-0.4,2.2-1.3,4.5
		c-0.9,2.3-2.1,5.1-3.6,8.3c-1.5,3.2-3.1,6.6-4.8,10.1c-1.7,3.5-3.4,6.9-5,10.2c-1.6,3.3-3,6.1-4.2,8.5c-1.2,2.4-2,4-2.4,4.8
		l0.6,0.3c2.5-3.5,5.4-6.7,8.5-9.7c3.1-3,6.8-5.5,11-7.4c2.6-1.2,5-1.8,7.1-1.8c1.9,0,3.4,0.4,4.5,1.3c1.1,0.8,1.7,2,1.7,3.4
		c0,1.7-0.8,3.6-2.5,5.9c-1.4,1.7-3.1,3.3-5.3,4.8s-4.3,2.8-6.6,3.9c-2.2,1.1-4.2,2-6,2.5c-1.9,0.6-3.7,1.1-5.5,1.4
		c-1.8,0.3-3.7,0.7-5.7,1c-0.9,0.1-1.8,0.5-2.6,1.2c-0.8,0.7-1.3,1.4-1.5,2.1c0.5,2,1.4,4.3,2.8,6.9c1.4,2.5,3.1,4.7,5.2,6.6
		c2.1,1.8,4.6,2.7,7.4,2.7c2.8,0,5.3-1,7.6-2.9c2.2-2,4.4-4.4,6.5-7.4c2.1-3,4.3-6.1,6.6-9.2c0.4-0.5,1-0.8,1.7-0.8h0.3
		c0.8,0,1.3,0.6,1.3,1.9c0,0.3-0.1,0.7-0.4,1.1c-0.9,1.4-2.2,3.3-3.7,5.6c-1.5,2.3-3.3,4.6-5.3,6.9c-2,2.3-4.2,4.3-6.7,5.9
		c-2.5,1.6-5,2.4-7.8,2.4c-3.2,0-6.1-0.7-8.6-2.2c-2.5-1.4-4.6-3.3-6.2-5.7c-1.7-2.3-2.9-4.7-3.6-7.2c-1.3,2.4-2.4,4.8-3.5,7.2
		c-1.1,2.5-2.3,4.8-3.8,7c-0.2,0.3-0.4,0.5-0.8,0.8C1011.4,334.2,1011,334.3,1010.6,334.3z M1030.3,306.6c1.9-0.3,4-0.7,6.6-1.5
		c2.5-0.7,5-1.7,7.4-2.9c2.5-1.2,4.5-2.6,6.1-4.2c0.8-0.8,1.6-1.8,2.2-2.9c0.6-1.1,0.9-2,0.9-2.9c0-1.3-0.6-1.9-1.9-1.9
		c-1.3,0-3.4,0.8-6.2,2.4c-3.1,1.8-5.8,3.8-8.3,6.2C1034.5,301.3,1032.2,303.9,1030.3,306.6z"/>
	<path fill="#222222" d="M1060.9,334.7c-2.8,0-4.7-0.7-5.8-2.2c-1.1-1.5-1.6-3.3-1.6-5.4c0-2,0.3-4.2,1-6.4c0.7-2.2,1.4-4.3,2.2-6.2
		c0.8-1.9,1.5-3.3,2-4.3c1.5-2.6,3.2-5.2,5.2-7.6c1.9-2.5,4-4.6,6.2-6.5c2.2-1.9,4.5-3.5,6.8-4.5c2.3-1.1,4.7-1.6,7.1-1.6
		c4.1,0,7,1.1,8.6,3.2c1.7,2.2,2.5,4.5,2.5,6.9c0,0.8-0.1,1.7-0.4,2.7c-0.3,1.3-0.7,2.4-1.2,3.3c-0.5,0.9-1,1.4-1.7,1.4
		c-0.6,0-1.1-0.3-1.7-0.9c-0.5-0.6-0.7-1.2-0.5-1.8c0.2-0.6,0.4-1.2,0.7-1.8c0.3-0.6,0.5-1.2,0.6-1.8c0.1-0.4,0.1-0.8,0.2-1.1
		c0-0.3,0.1-0.7,0.1-1c0-2.3-0.7-3.9-2.2-4.8c-1.5-0.9-3.1-1.3-4.8-1.3c-2,0-4,0.6-6,1.7c-2.1,1.1-3.9,2.4-5.4,3.8
		c-1.9,1.9-3.7,4-5.6,6.5c-1.9,2.5-3.5,5-4.8,7.5c-0.2,0.4-0.6,1.4-1.3,3.1c-0.7,1.6-1.4,3.4-2,5.4c-0.6,2-1,3.8-1,5.5
		c0,1.2,0.3,2.2,0.8,3.1c0.6,0.8,1.5,1.3,2.9,1.3c1.4,0,3.1-0.7,5-2c1.9-1.4,3.9-3,5.9-5c2-2,3.8-3.9,5.4-5.8
		c1.6-1.9,2.8-3.3,3.6-4.3c0.5-0.7,1-1.4,1.5-2.2c0.5-0.8,1-1.5,1.5-2.2c0.3-0.3,0.8-0.5,1.5-0.5c0.7,0,1.4,0.2,2.1,0.6
		c0.7,0.4,1,0.9,0.8,1.6c-0.3,0.6-1,1.9-1.8,3.9c-0.9,2-1.7,4.2-2.5,6.5c-0.8,2.3-1.1,4.4-1.1,6.2c0,2.2,0.7,3.5,2,3.8
		c0.9,0.2,1.9-0.2,3-1c1.1-0.8,2-1.8,2.9-2.9c0.9-1.1,1.5-1.9,2-2.4c1.8-2.4,3.5-4.8,5-7.3c1.6-2.5,3.2-4.9,4.8-7.1
		c0.5-0.7,1.1-1,1.8-1c1.2,0,1.8,0.6,1.8,1.9c0,0.4-0.6,1.5-1.7,3.2c-1.1,1.7-2.4,3.7-4,5.9c-1.6,2.2-3,4.2-4.4,6
		c-1.4,1.8-2.9,3.5-4.6,5.2c-1.7,1.7-3.9,2.5-6.5,2.5c-2.5,0-4.1-0.5-5-1.7c-0.9-1.1-1.3-2.3-1.3-3.7c0-1.2,0.1-2.4,0.4-3.8
		c0.3-1.3,0.5-2.4,0.8-3.4l-0.5-0.4c-0.8,0.9-1.9,2.1-3.4,3.6c-1.5,1.4-3.2,2.9-5.1,4.4c-1.9,1.5-3.7,2.7-5.5,3.8
		C1064,334.2,1062.4,334.7,1060.9,334.7z"/>
	<path fill="#222222" d="M1114.7,305.4c-0.5,0-0.9-0.1-1.3-0.4c-0.3-0.3-0.5-0.8-0.5-1.7c0-1.1,0.7-2,2-2.7c1.4-0.7,3.1-1.2,5.1-1.5
		c2-0.3,4-0.6,6-0.7c2-0.1,3.5-0.2,4.6-0.2c2.6,0,5.3,0.3,8,0.8c2.7,0.5,5.3,1.2,7.9,2.2c0.1,0,0.3,0.1,0.6,0.2
		c0.3,0.1,0.5,0.3,0.5,0.4c0,1.1-0.9,1.7-2.7,1.7c-0.5,0-1.2-0.1-2-0.4c-0.8-0.3-2.3-0.5-4.3-0.7c-2-0.2-5-0.3-9.1-0.3
		c-3.1,0-5.7,0.3-7.6,0.8c-2,0.6-3.5,1.1-4.6,1.7C1116.3,305.1,1115.4,305.4,1114.7,305.4z"/>
	<path fill="#222222" d="M1255.4,345.9c-5.3,0-10.7-0.7-16.1-2c-5.4-1.4-10.7-3.1-16-5.2c-5.3-2.1-10.5-4.4-15.5-6.7
		c-5-2.4-9.9-4.5-14.7-6.5c-2.4,2.5-5.1,4.9-8.1,7.2c-3.1,2.4-6.4,4.3-9.9,5.9s-7.3,2.3-11.3,2.3c-3,0-5.8-0.5-8.4-1.5
		c-2.6-1-4.7-2.4-6.4-4.4c-1.6-2-2.4-4.3-2.4-7c0-3.1,1-5.7,2.9-7.7c1.9-2,4.3-3.5,7.2-4.5c2.9-1,6-1.5,9.1-1.5
		c4.2,0,8.7,0.7,13.5,2c4.7,1.4,9.1,2.8,13,4.2c2.5-3,4.8-6,6.9-9.2c2.2-3.1,4.2-6.3,6-9.5c-6.3-0.7-11.5-2.5-15.7-5.6
		c-4.2-3.1-6.3-7.5-6.3-13.4c0-4.2,1.2-8.3,3.8-12.1c2.5-3.9,5.9-6.8,10.2-9c1.2-0.6,2.6-1.2,4.3-1.7c1.7-0.6,3.2-0.8,4.5-0.8
		c1.4,0,2,0.6,2,1.8c0,1-0.6,1.7-1.8,1.9c-1.2,0.3-2.4,0.6-3.5,0.8c-1.1,0.2-2.3,0.6-3.5,1.2c-3.6,1.7-6.6,4.2-8.8,7.6
		c-2.2,3.4-3.4,6.8-3.4,10.5c0,3.6,1,6.4,2.9,8.5c2,2.1,4.5,3.7,7.6,4.6c3.1,1,6.4,1.6,10,2c3.3-6.2,6.7-12.4,10.2-18.6
		c3.5-6.2,7.4-12.2,11.5-17.9c1.2-1.7,2.7-3.6,4.5-5.7c1.8-2.1,3.8-4.1,6-6c2.2-2,4.6-3.5,7.1-4.8c2.5-1.2,5-1.8,7.5-1.8
		c4,0,7,1.1,8.9,3.2c1.9,2.2,2.9,4.9,2.9,8.1c0,3.6-0.8,7.2-2.5,11.1c-1.7,3.8-3.8,7.4-6.4,10.9c-2.6,3.4-5.2,6.4-8,9
		c-4.9,4.7-10.8,8.6-17.6,11.7c-6.8,3.1-13.9,4.7-21.4,4.7c-2.1,3.5-4.3,6.9-6.6,10.3c-2.3,3.4-4.8,6.7-7.5,9.8
		c4.5,2,9.1,4.2,13.9,6.5c4.7,2.3,9.6,4.5,14.6,6.6c5,2.1,10.1,3.8,15.3,5.1c5.2,1.3,10.3,2,15.5,2c2.4,0,4.8-0.3,7.3-1
		c2.5-0.6,4.6-1.6,6.4-3c0.4-0.4,0.9-0.6,1.5-0.6c0.6,0,1.1,0.2,1.5,0.6c0.4,0.4,0.6,0.8,0.6,1.2c0,0.4-0.2,0.8-0.6,1.3
		c-1,0.9-2.4,1.8-4.1,2.6c-1.7,0.8-3.5,1.4-5.4,1.9c-1.9,0.5-3.5,0.7-5,0.7H1255.4z M1164.1,337.1c3.5,0,6.7-0.7,9.8-2
		c3.1-1.3,5.9-3,8.6-5c2.7-2,5.1-4.1,7.2-6.2c-3.6-1.4-7.5-2.8-11.7-4.1c-4.2-1.3-8.4-1.9-12.3-1.9c-2.3,0-4.6,0.4-6.9,1.1
		c-2.3,0.7-4.2,1.8-5.7,3.2c-1.5,1.4-2.2,3.4-2.2,5.7c0,2.1,0.7,3.8,2,5.2c1.3,1.3,3,2.3,5,3C1159.9,336.8,1162,337.1,1164.1,337.1z
		 M1212.7,298c6.4-0.4,12.5-2,18.3-4.7c5.7-2.7,10.8-6.1,15.2-10.2c1.6-1.5,3.3-3.5,5.1-5.9c1.8-2.4,3.5-5,5-7.8
		c1.6-2.8,2.8-5.5,3.8-8.2c1-2.7,1.5-5,1.5-7.1c0-2.1-0.6-3.8-1.8-5.2c-1.2-1.3-3.1-2-5.7-2c-2.1,0-4.2,0.6-6.4,1.8
		c-2.1,1.2-4.1,2.7-6,4.5c-1.9,1.8-3.6,3.6-5.1,5.5c-1.5,1.9-2.8,3.5-3.8,4.8c-3.6,5.2-7.1,10.8-10.5,17
		C1218.9,286.7,1215.7,292.5,1212.7,298z"/>
	<path fill="#222222" d="M1254.3,335.4c-4.4,0-7.5-1.3-9.2-3.9c-1.7-2.6-2.6-5.6-2.6-9.1c0-2.5,0.6-5.6,1.9-9.1
		c1.3-3.5,3-7,5.3-10.4c2.2-3.4,4.9-6.2,7.8-8.5c3-2.2,6.1-3.4,9.5-3.4c2.2,0,4,0.6,5.3,1.8c1.3,1.2,2,2.8,2,4.6
		c0,3.6-1.1,7-3.4,10.3c-2.3,3.3-5.3,6-8.9,8.1c-3.6,2.1-7.5,3.2-11.7,3.2c-0.5,0-1,0-1.5-0.1c-0.5,0-1-0.1-1.5-0.2
		c-0.3,1.1-0.4,2.4-0.4,3.8c0,2.2,0.5,4.2,1.6,6.1c1.1,1.9,3.1,2.8,6.2,2.8c2.5,0,5-0.6,7.4-1.9c2.4-1.3,4.4-2.7,6-4.3
		c1.6-1.6,3-3.1,4.1-4.3c1.1-1.3,2.2-2.7,3.4-4.4c1.2-1.7,2.7-3.8,4.5-6.6c0.3-0.6,0.8-0.9,1.5-0.9c1.2,0,1.8,0.6,1.8,1.9
		c0,0.4-0.1,0.8-0.3,1c-2.3,3.9-4.8,7.6-7.6,11.1c-2.8,3.5-5.9,6.4-9.3,8.6S1258.6,335.4,1254.3,335.4z M1251.1,315.3
		c3.2,0,6.3-0.9,9.1-2.6c2.8-1.7,5.2-3.9,7-6.6c1.8-2.6,2.7-5.3,2.7-8c0-0.9-0.2-1.7-0.7-2.3c-0.5-0.6-1.3-0.9-2.4-0.9
		c-2.2,0-4.3,0.7-6.4,2.2c-2,1.5-3.9,3.4-5.5,5.6c-1.7,2.2-3.1,4.5-4.2,6.7c-1.1,2.2-2,4.1-2.5,5.6c0.4,0.1,0.9,0.1,1.3,0.2
		C1250.1,315.3,1250.6,315.3,1251.1,315.3z"/>
</g>
</svg>
