<svg xmlns="http://www.w3.org/2000/svg" viewBox="0 0 1234.62 342.64"><defs><style>.a{fill:#4f4f4f;}.b{fill:#65964a;}.c{fill:#90c861;}.d{fill:#222;}.e{fill:#fefefe;}.f{fill:#c27030;}.g{fill:#784f2d;}.h{fill:#fcf2e2;}.i{fill:#fbe5bb;}.j{fill:#f0534a;}.k{fill:#f58e83;}.l{fill:#f26a61;}.m{fill:#ffcc1f;}.n{fill:#d9a379;}.o{fill:#ce8c57;}.p{fill:#fcde78;}</style></defs><path class="a" d="M320.32,52c1.59,3.56,3.35,7.05,4.73,10.68q15.07,39.47-4.41,77c-.39.75-.86,1.46-1.29,2.18a32,32,0,0,1-4.65-4.58,3.74,3.74,0,0,0,.36-.45,86.71,86.71,0,0,0,10.15-36.65,80,80,0,0,0-1.84-21.36A84.33,84.33,0,0,0,273.94,18.5a86.17,86.17,0,0,0-30.89-6.91,84.16,84.16,0,0,0-9.39.29,76.54,76.54,0,0,0-14.23,2.32A85.11,85.11,0,0,0,175,42.27a84.33,84.33,0,0,0-12.59,20.67,87,87,0,0,0-6.89,30.51,84.36,84.36,0,0,0,.72,13.66,84.22,84.22,0,0,0,28,52.94,87.44,87.44,0,0,0,16.16,11.29,85.76,85.76,0,0,0,36.1,9.95,79.36,79.36,0,0,0,22.14-1.95,80.29,80.29,0,0,0,22.59-8.56c1.17,1.37,2.67,1.2,4.24,1a40.36,40.36,0,0,1,7.11-.66,86.9,86.9,0,0,1-35.2,14.9c-21,3.91-41.05.74-60-9.14-.46-.23-.85-.63-1.43-.49a13.63,13.63,0,0,0-5.47-3.31c-.19-.74-.91-.89-1.42-1.24a94.67,94.67,0,0,1-21.22-20.11c-1.38-1.78-2.38-3.85-4.1-5.38a15.25,15.25,0,0,0-3.3-5.47c-1.47-3.9-3.55-7.52-5.08-11.41C140.78,92.6,152.54,49.36,183.71,25a91.24,91.24,0,0,1,98.6-9.52,5.4,5.4,0,0,0,2.49,1,17.31,17.31,0,0,0,5.47,3.31c.15.68.8.82,1.26,1.13A94.32,94.32,0,0,1,313,41.31c1.33,1.73,2.3,3.75,4,5.23A14.94,14.94,0,0,0,320.32,52Z"/><path class="b" d="M310.25,155l3.32,3.6-7.64,1.07c-4.05.15-8.06.71-12.08,1.23-.44-.38-.92-.73-1.33-1.14q-13.17-13.14-26.32-26.31c-.41-.42-.76-.89-1.14-1.33a27.29,27.29,0,0,0,7.79-6.09,26.79,26.79,0,0,0,11.88,3.24,6.37,6.37,0,0,0,.65.95c6.14,6.15,12.3,12.28,18.41,18.45a3.12,3.12,0,0,0,2.28.87c-.51.31-1,.53-.25,1.2C307.34,152.15,308.78,153.61,310.25,155Z"/><path class="c" d="M265.06,132.16c.38.44.73.91,1.14,1.33q13.16,13.15,26.32,26.31c.41.41.89.76,1.33,1.14a41.84,41.84,0,0,0,5.3,5.18l3.2,3.61c-3.31.74-6.63.57-9.79,1.4a40.36,40.36,0,0,0-7.11.66c-1.57.19-3.07.36-4.24-1-3.28-3.58-6.75-7-10.27-10.31-.19-2.1.8-4,.84-6.12.18-9.2-3.74-16.08-11.64-20.75A33.43,33.43,0,0,0,265.06,132.16Z"/><path class="d" d="M160.41,140.89a15.25,15.25,0,0,1,3.3,5.47l-7.42,7.53c-3,3.06-3,6.61,0,9.66q8.44,8.47,16.92,16.92c3.05,3,6.6,3,9.66,0,2.52-2.46,5-4.95,7.54-7.42a13.63,13.63,0,0,1,5.47,3.31c-3.1,3.11-6.1,6.31-9.29,9.31a12.2,12.2,0,0,1-16.91.1q-9.58-9.15-18.74-18.74a12.17,12.17,0,0,1,.12-16.9C154.11,147,157.3,144,160.41,140.89Z"/><path class="d" d="M320.32,52A14.94,14.94,0,0,1,317,46.54c2.52-2.55,5.06-5.09,7.56-7.67,2.82-2.9,2.81-6.51,0-9.38q-8.5-8.56-17-17.06c-3.07-3-6.6-3-9.67,0-2.52,2.46-5,4.95-7.53,7.42a17.31,17.31,0,0,1-5.47-3.31c3.09-3.11,6.1-6.3,9.29-9.3A12.18,12.18,0,0,1,311,7.08q9.57,9.15,18.74,18.73a12.22,12.22,0,0,1-.11,16.91C326.62,45.92,323.43,48.92,320.32,52Z"/><path class="c" d="M306.07,149.58a3.12,3.12,0,0,1-2.28-.87c-6.11-6.17-12.27-12.3-18.41-18.45a6.37,6.37,0,0,1-.65-.95c6.85.27,13.69.38,20.38-1.5l9.59,9.49a32,32,0,0,0,4.65,4.58l5.28,5.66L315,148.78Z"/><path class="a" d="M299.15,166.12a41.84,41.84,0,0,1-5.3-5.18c4-.52,8-1.08,12.08-1.23A60.42,60.42,0,0,1,299.15,166.12Z"/><path class="a" d="M306.07,149.58l8.89-.8a67.8,67.8,0,0,1-4.71,6.26c-1.47-1.43-2.91-2.89-4.43-4.26C305.07,150.11,305.56,149.89,306.07,149.58Z"/><path class="d" d="M314.7,137.3l-9.59-9.49c.46-.25.9-.51,1.37-.75a21.19,21.19,0,0,0,11.38-14,62.7,62.7,0,0,0-.1-33.67,20.62,20.62,0,0,0-7.51-11.21,21.35,21.35,0,0,0-12.74-4.41c-2.62-.07-2.64-.13-2.56-2.68a66.33,66.33,0,0,0-1.19-14.62c-1-5-2.41-9.91-6.14-13.76-4.38-4.53-9.74-6.48-16-6.75-7.54-.33-15-.69-22.23,2.15-1.15-2.34-2.92-3.93-5.62-3.95q-12.85-.11-25.72,0a6.15,6.15,0,0,0-6,6.07c0,1.64,0,3.27.05,4.91,0,2.05-.09,4.11-.13,6.17q-2.3-2.25-4.6-4.49c-3-2.93-6.51-3-9.49,0-1,.95-1.87,2-2.8,3a8,8,0,0,0-1.08.81c-4.45,4.42-8.91,8.84-13.32,13.3-3.06,3.1-3,6.68.09,9.84l7.4,7.55-6,.12h-7.08c-4.33-.19-7.07,2.38-7.08,6.7q0,8.89,0,17.8c0,4.13,2.19,6.48,6.38,6.92,0,6.7-.09,13.41-.08,20.11,0,4.12,2.83,6.69,7,6.51l5.54.07q0,10,0,19.95c0,4.31,2.76,6.89,7.07,6.7h7.09l7.53.12a5.59,5.59,0,0,1-.33.47c-4.25,4.63-2.72,9.77,3.39,11.34,7,1.79,13.13.07,18.62-4.42.37.45.77.88,1.09,1.36,4.11,6.14,9.91,9.71,17.22,10,9.86.35,17.07-4.2,21.39-13.16.23-.49.18-1.23,1-1.33,3.52,3.35,7,6.73,10.27,10.31a80.29,80.29,0,0,1-22.59,8.56,79.36,79.36,0,0,1-22.14,1.95,85.76,85.76,0,0,1-36.1-9.95,87.44,87.44,0,0,1-16.16-11.29,84.22,84.22,0,0,1-28-52.94,84.36,84.36,0,0,1-.72-13.66,87,87,0,0,1,6.89-30.51A84.33,84.33,0,0,1,175,42.27,85.11,85.11,0,0,1,219.43,14.2a76.54,76.54,0,0,1,14.23-2.32,84.16,84.16,0,0,1,9.39-.29,86.17,86.17,0,0,1,30.89,6.91,84.87,84.87,0,0,1,49.43,60.34,80,80,0,0,1,1.84,21.36,86.71,86.71,0,0,1-10.15,36.65A3.74,3.74,0,0,1,314.7,137.3Z"/><path class="e" d="M265.06,132.16a33.43,33.43,0,0,1-4.92,1.44,23.69,23.69,0,0,0-15.39-2.11,21.59,21.59,0,0,0-3.61-2,13,13,0,0,0-12.42-.16l-.35,0c-.24-.18-.43-.08-.61.1l-4.69.88a23.64,23.64,0,0,1-7.49-.79.57.57,0,0,0-.35-.1,29.83,29.83,0,0,1-6.23-3.63,27.78,27.78,0,0,1-4.31-5.47,19.36,19.36,0,0,1-.63-16.1,22.18,22.18,0,0,1,3.22-5.12,12.56,12.56,0,0,0,3-8.71,32.19,32.19,0,0,1,4.47-19.09c3.09-4,6.59-7.5,11.17-9.77.16-.07.24-.3.36-.45,3.26-.9,6.45-2.08,9.84-2.4l6.25.14a53.07,53.07,0,0,1,7.09,2,30.56,30.56,0,0,1,12.46,10l.49.78.24.42L264.68,76a61,61,0,0,0-3.08,27.21c1,9,2.9,17.49,11.25,22.84A27.29,27.29,0,0,1,265.06,132.16Zm-5.84-35.61a18.87,18.87,0,1,0-18.92,18.76A18.87,18.87,0,0,0,259.22,96.55Z"/><path class="f" d="M272.85,126.07c-8.35-5.35-10.25-13.89-11.25-22.84A61,61,0,0,1,264.68,76c.58-.49.62-1.24.89-1.88,1.31-1.59,2.61-3.19,3.91-4.78.95-.69,1.91-1.36,2.84-2.06,4.07-3.06,8.91-3.32,13.69-3.83,2.74-.3,2.74-.29,2.62-3.22,0-2.09.27-4.19-.32-6.25a33.24,33.24,0,0,0-2.57-12.77,14.08,14.08,0,0,0-12.26-8.82,85.3,85.3,0,0,0-14.65-.11c-4.9.35-8.81,2.13-11.8,6a12.09,12.09,0,0,0-2.75,6.31,48.05,48.05,0,0,0-1.89,12.61l-.06,1.65-6.25-.14a68.73,68.73,0,0,1,2.83-19A23.68,23.68,0,0,1,249.4,28.12c7.21-2.84,14.69-2.48,22.23-2.15,6.25.27,11.61,2.22,16,6.75,3.73,3.85,5.18,8.71,6.14,13.76A66.33,66.33,0,0,1,295,61.1c-.08,2.55-.06,2.61,2.56,2.68a21.35,21.35,0,0,1,12.74,4.41,20.62,20.62,0,0,1,7.51,11.21,62.7,62.7,0,0,1,.1,33.67,21.19,21.19,0,0,1-11.38,14c-.47.24-.91.5-1.37.75-6.69,1.88-13.53,1.77-20.38,1.5A26.79,26.79,0,0,1,272.85,126.07Zm40.62-34.34A33.25,33.25,0,0,0,310.89,79a14.06,14.06,0,0,0-12.25-8.82A85.42,85.42,0,0,0,284,70c-4.89.35-8.8,2.13-11.8,6a12,12,0,0,0-2.74,6.3,47.73,47.73,0,0,0-1.9,12.62c.1,2.1-.45,4.22.28,6.29a32.69,32.69,0,0,0,.87,6.77c.93,5.08,2.74,9.64,7.39,12.6,3.37,2.15,7.16,2.34,10.91,2.54a97,97,0,0,0,10.36-.25,15.2,15.2,0,0,0,11.8-6,12.11,12.11,0,0,0,2.74-6.3A47.71,47.71,0,0,0,313.78,98,21.49,21.49,0,0,0,313.47,91.73Z"/><path class="g" d="M244.75,131.49a23.69,23.69,0,0,1,15.39,2.11c7.9,4.67,11.82,11.55,11.64,20.75,0,2.08-1,4-.84,6.12-.78.1-.73.84-1,1.33-4.32,9-11.53,13.51-21.39,13.16-7.31-.26-13.11-3.83-17.22-10-.32-.48-.72-.91-1.09-1.36-1.12-3-2.31-6-2.47-9.36-.3-6.08,1.82-11.31,5.51-16l3.17-2.85a36.13,36.13,0,0,1,5.41-2.91Zm5,7.64a22.11,22.11,0,0,0-3.43,8.57c-.21,1.3-.71,1.66-1.94,1.89a20,20,0,0,0-8.44,3.49,20.52,20.52,0,0,0,8.33,3.38c1.48.24,1.83.85,2.1,2.2a19.13,19.13,0,0,0,3.46,8.22,20.63,20.63,0,0,0,3.36-8.32c.24-1.49.85-1.85,2.2-2.12a19.07,19.07,0,0,0,8.26-3.46,21.92,21.92,0,0,0-8.54-3.4c-1.3-.21-1.66-.72-1.88-1.94A21.29,21.29,0,0,0,249.76,139.13Z"/><path class="h" d="M188.19,71.24l-7.4-7.55c-3.09-3.16-3.15-6.74-.09-9.84,4.41-4.46,8.87-8.88,13.32-13.3a8,8,0,0,1,1.08-.81c.46.55.88,1.13,1.38,1.64,5.31,5.33,10.61,10.67,16,15.94,1.09,1.07,1.16,1.68,0,2.78-3.75,3.65-7.39,7.41-11.07,11.13l0,.1-7.49,0Z"/><path class="h" d="M233.32,138.26c-3.69,4.7-5.81,9.93-5.51,16,.16,3.31,1.35,6.32,2.47,9.36-5.49,4.49-11.65,6.21-18.62,4.42-6.11-1.57-7.64-6.71-3.39-11.34a5.59,5.59,0,0,0,.33-.47c2.69-2.26,2.69-2.26.29-4.66-.6-.6-1.21-1.19-1.8-1.8-1.77-1.86-1.77-3.39,0-5.26s3.9-3.86,5.8-5.83a3.53,3.53,0,0,1,4.24-1,49.17,49.17,0,0,1,3.57,3.5c1.26,1.5,2.2,1.43,3.12-.24a14.24,14.24,0,0,0,1.17-1C227.41,137.42,230.14,136.75,233.32,138.26Z"/><path class="i" d="M201.42,71.23c3.68-3.72,7.32-7.48,11.07-11.13,1.13-1.1,1.06-1.71,0-2.78-5.37-5.27-10.67-10.61-16-15.94-.5-.51-.92-1.09-1.38-1.64.93-1,1.83-2,2.8-3,3-2.91,6.46-2.88,9.49,0q2.31,2.23,4.6,4.49c4,4.5,8.4,8.56,12.62,12.81a6.4,6.4,0,0,1,1.63,7c-.12.15-.2.38-.36.45-4.58,2.27-8.08,5.79-11.17,9.77Z"/><path class="h" d="M226.24,61.1a6.4,6.4,0,0,0-1.63-7C220.39,49.88,216,45.82,212,41.32c0-2.06.09-4.12.13-6.17h22.79c3.71,0,3.71,0,3.89,3.77,0,.26.08.52.11.78a68.73,68.73,0,0,0-2.83,19C232.69,59,229.5,60.2,226.24,61.1Z"/><path class="j" d="M188.19,71.24l5.77.12c.21.4.39.82.63,1.19a25.85,25.85,0,0,1,2.94,23c-.86,2.58-2.4,4.76-3.57,7.15l-3.11.06-6.74,0-1.52-.06a2.76,2.76,0,0,1,.36-1.5c4.7-10.07,4.48-20-.75-29.86Z"/><path class="i" d="M238.91,39.69c0-.26-.09-.52-.11-.78-.18-3.77-.18-3.77-3.89-3.77H212.12c0-1.64-.1-3.27-.05-4.91a6.15,6.15,0,0,1,6-6.07q12.85-.12,25.72,0c2.7,0,4.47,1.61,5.62,3.95A23.68,23.68,0,0,0,238.91,39.69Z"/><path class="j" d="M174.42,102.78c-4.19-.44-6.37-2.79-6.38-6.92q0-8.89,0-17.8c0-4.32,2.75-6.89,7.08-6.7,0,.5.36.82.6,1.2a25.8,25.8,0,0,1,2.94,23c-.85,2.58-2.39,4.76-3.57,7.15Z"/><path class="j" d="M194,156.12c-4.31.19-7.07-2.39-7.07-6.7q0-10,0-19.95l1.61-.05,8.17.08c.2.62.37,1.25.6,1.85a25.6,25.6,0,0,1-.05,18.4C196.43,152,195,154,194,156.12Z"/><path class="k" d="M174.42,102.78l.67-.08,7.5,0,1.52.06c2.07,5.46,3,11,1.63,16.83a35.71,35.71,0,0,1-4.36,9.79c-4.21.18-7-2.39-7-6.51C174.33,116.19,174.39,109.48,174.42,102.78Z"/><path class="l" d="M194,156.12c1-2.17,2.45-4.08,3.27-6.37a25.6,25.6,0,0,0,.05-18.4c-.23-.6-.4-1.23-.6-1.85,2.75.54,4.34-.81,5.35-3.2.84-2,1.76-4,2.64-6a27.78,27.78,0,0,0,4.31,5.47l-1.6,3.61c-.85,0-1.7.08-2.54,0-1.33-.08-1.47.39-1.13,1.62,2.38,8.68,1.77,17.08-2.66,25.05Z"/><path class="l" d="M182.59,102.72l-7.5,0c1.18-2.39,2.72-4.57,3.57-7.15a25.8,25.8,0,0,0-2.94-23c-.24-.38-.6-.7-.6-1.2h7.08c5.23,9.83,5.45,19.79.75,29.86A2.76,2.76,0,0,0,182.59,102.72Z"/><path class="j" d="M201.07,156.12c4.43-8,5-16.37,2.66-25.05-.34-1.23-.2-1.7,1.13-1.62.84.05,1.69,0,2.54,0l7.83,0a.57.57,0,0,1,.35.1c.49,1.48,1.09,2.93,1.43,4.45.26,1.2,1.13,2.44.17,3.71a3.53,3.53,0,0,0-4.24,1c-1.9,2-3.88,3.87-5.8,5.83s-1.82,3.4,0,5.26c.59.61,1.2,1.2,1.8,1.8,2.4,2.4,2.4,2.4-.29,4.66Z"/><path class="l" d="M181.38,129.4a35.71,35.71,0,0,0,4.36-9.79c1.42-5.82.44-11.37-1.63-16.83l6.74,0a18,18,0,0,0,.48,2.08,26.37,26.37,0,0,1,1.27,9,31.46,31.46,0,0,1-4.07,15.53l-1.61.05Z"/><path class="m" d="M259.22,96.55a18.87,18.87,0,1,1-18.71-19A18.88,18.88,0,0,1,259.22,96.55ZM240.35,93.3A6.29,6.29,0,1,0,234,99.59,6.39,6.39,0,0,0,240.35,93.3Z"/><path class="k" d="M188.53,129.42a31.46,31.46,0,0,0,4.07-15.53,26.37,26.37,0,0,0-1.27-9,18,18,0,0,1-.48-2.08l3.11-.06,7.5,0c1.45-.49,1.63,1.18,2.6,1.52a19.36,19.36,0,0,0,.63,16.1c-.88,2-1.8,4-2.64,6-1,2.39-2.6,3.74-5.35,3.2Z"/><path class="j" d="M204.06,104.24c-1-.34-1.15-2-2.6-1.52-.12-.91.46-1.6.79-2.37a32.3,32.3,0,0,0,0-26.65,4.59,4.59,0,0,1-.81-2.37l0-.1,13.29.09a32.19,32.19,0,0,0-4.47,19.09,12.56,12.56,0,0,1-3,8.71A22.18,22.18,0,0,0,204.06,104.24Z"/><path class="n" d="M242.33,58.84l.06-1.65c4.15-.08,8.28-.16,12.37,1,6.39,1.83,10.46,6.59,14.72,11.16-1.3,1.59-2.6,3.19-3.91,4.78-1.1-.51-1.5-2-3-2l-.24-.42c-.06-.33-.1-.66-.49-.78a30.56,30.56,0,0,0-12.46-10A53.07,53.07,0,0,0,242.33,58.84Z"/><path class="j" d="M233.32,138.26c-3.18-1.51-5.91-.84-8.28,1.68a14.24,14.24,0,0,1-1.17,1,35.93,35.93,0,0,0-.51-7.32c-.2-1.09-1.08-2.13-.29-3.31l4.69-.88.61-.1.35,0a7.65,7.65,0,0,0,3.86,0c1.33-.43,1.79.18,2.18,1.19.63,1.61.87,3.37,1.73,4.9Z"/><path class="l" d="M223.07,130.33c-.79,1.18.09,2.22.29,3.31a35.93,35.93,0,0,1,.51,7.32c-.92,1.67-1.86,1.74-3.12.24a49.17,49.17,0,0,0-3.57-3.5c1-1.27.09-2.51-.17-3.71-.34-1.52-.94-3-1.43-4.45A23.64,23.64,0,0,0,223.07,130.33Z"/><path class="l" d="M236.49,135.41c-.86-1.53-1.1-3.29-1.73-4.9-.39-1-.85-1.62-2.18-1.19a7.65,7.65,0,0,1-3.86,0,13,13,0,0,1,12.42.16c.25,1,.51,2,.76,3A36.13,36.13,0,0,0,236.49,135.41Z"/><path class="k" d="M215.23,129.44l-7.83,0,1.6-3.61A29.83,29.83,0,0,0,215.23,129.44Z"/><path class="j" d="M241.9,132.5c-.25-1-.51-2-.76-3a21.59,21.59,0,0,1,3.61,2Z"/><path class="o" d="M262.61,72.11c1.46,0,1.86,1.52,3,2-.27.64-.31,1.39-.89,1.88Z"/><path class="o" d="M261.88,70.91c.39.12.43.45.49.78Z"/><path class="l" d="M228.37,129.35l-.61.1C227.94,129.27,228.13,129.17,228.37,129.35Z"/><path class="o" d="M267.54,94.92a47.73,47.73,0,0,1,1.9-12.62c2.42,0,4.85-.12,7.27,0a17.47,17.47,0,0,1,12.61,6.19,27.09,27.09,0,0,0,10.2,7.73c4.65,1.9,9.43,1.83,14.26,1.73a47.71,47.71,0,0,1-1.89,12.62c-2.42,0-4.85.12-7.27,0A17.47,17.47,0,0,1,292,104.38a26.76,26.76,0,0,0-10.2-7.74C277.15,94.76,272.38,94.82,267.54,94.92Z"/><path class="o" d="M309.15,116.9a15.2,15.2,0,0,1-11.8,6,97,97,0,0,1-10.36.25c-3.75-.2-7.54-.39-10.91-2.54-4.65-3-6.46-7.52-7.39-12.6a32,32,0,0,1-.86-6.77c1.56,0,3.13-.06,4.7,0a17.72,17.72,0,0,1,13.86,6.45,25.52,25.52,0,0,0,10.26,7.61C300.72,116.81,304.9,117,309.15,116.9Z"/><path class="o" d="M247,38.27c3-3.84,6.9-5.62,11.8-6a85.3,85.3,0,0,1,14.65.11,14.08,14.08,0,0,1,12.26,8.82A33.24,33.24,0,0,1,288.31,54h-4.5a17.71,17.71,0,0,1-14-6.49,25.81,25.81,0,0,0-10.27-7.59C255.44,38.36,251.27,38.22,247,38.27Z"/><path class="o" d="M272.18,76c3-3.84,6.91-5.62,11.8-6a85.42,85.42,0,0,1,14.66.11A14.06,14.06,0,0,1,310.89,79a33.25,33.25,0,0,1,2.58,12.77H309a17.64,17.64,0,0,1-14-6.48,26,26,0,0,0-10.27-7.59C280.59,76.09,276.42,76,272.18,76Z"/><path class="o" d="M269.48,69.36c-4.26-4.57-8.33-9.33-14.72-11.16-4.09-1.17-8.22-1.09-12.37-1a48.05,48.05,0,0,1,1.89-12.61c2.43,0,4.86-.13,7.27,0a17.49,17.49,0,0,1,12.62,6.19,27.14,27.14,0,0,0,10.2,7.74c4.65,1.89,9.43,1.83,14.26,1.72.12,2.93.12,2.92-2.62,3.22-4.78.51-9.62.77-13.69,3.83C271.39,68,270.43,68.67,269.48,69.36Z"/><path class="n" d="M288.63,60.25c-4.83.11-9.61.17-14.26-1.72a27.14,27.14,0,0,1-10.2-7.74,17.49,17.49,0,0,0-12.62-6.19c-2.41-.15-4.84,0-7.27,0A12.09,12.09,0,0,1,247,38.27c4.24-.05,8.41.09,12.48,1.66a25.81,25.81,0,0,1,10.27,7.59,17.71,17.71,0,0,0,14,6.49h4.5C288.9,56.06,288.66,58.16,288.63,60.25Z"/><path class="n" d="M309.15,116.9c-4.25.06-8.43-.09-12.5-1.67a25.52,25.52,0,0,1-10.26-7.61,17.72,17.72,0,0,0-13.86-6.45c-1.57,0-3.14,0-4.7,0-.74-2.07-.19-4.19-.29-6.29,4.84-.1,9.61-.16,14.27,1.72a26.76,26.76,0,0,1,10.2,7.74,17.47,17.47,0,0,0,12.61,6.19c2.42.15,4.85,0,7.27,0A12.11,12.11,0,0,1,309.15,116.9Z"/><path class="n" d="M272.18,76c4.24,0,8.41.09,12.49,1.66a26,26,0,0,1,10.27,7.59,17.64,17.64,0,0,0,14,6.48h4.51a21.49,21.49,0,0,1,.31,6.25c-4.83.1-9.61.17-14.26-1.73a27.09,27.09,0,0,1-10.2-7.73,17.47,17.47,0,0,0-12.61-6.19c-2.42-.15-4.85,0-7.27,0A12,12,0,0,1,272.18,76Z"/><path class="p" d="M249.76,139.13a21.29,21.29,0,0,1,3.48,8.51c.22,1.22.58,1.73,1.88,1.94a21.92,21.92,0,0,1,8.54,3.4,19.07,19.07,0,0,1-8.26,3.46c-1.35.27-2,.63-2.2,2.12a20.63,20.63,0,0,1-3.36,8.32,19.13,19.13,0,0,1-3.46-8.22c-.27-1.35-.62-2-2.1-2.2a20.52,20.52,0,0,1-8.33-3.38,20,20,0,0,1,8.44-3.49c1.23-.23,1.73-.59,1.94-1.89A22.11,22.11,0,0,1,249.76,139.13Z"/><path class="l" d="M201.45,71.33a4.59,4.59,0,0,0,.81,2.37,32.3,32.3,0,0,1,0,26.65c-.33.77-.91,1.46-.79,2.37l-7.5,0c1.17-2.39,2.71-4.57,3.57-7.15a25.85,25.85,0,0,0-2.94-23c-.24-.37-.42-.79-.63-1.19Z"/><path class="p" d="M240.35,93.3A6.29,6.29,0,1,1,234.16,87,6.37,6.37,0,0,1,240.35,93.3Z"/><path class="d" d="M7.25,184.82A6.06,6.06,0,0,1,.93,178.5V14.05A6.08,6.08,0,0,1,7.25,7.72H39.13a6.08,6.08,0,0,1,6.33,6.33V70.22l46.8-57.69a12.56,12.56,0,0,1,3.42-3.16,11.21,11.21,0,0,1,6.45-1.65h36.43a5,5,0,0,1,3.8,1.65A5.29,5.29,0,0,1,143.87,13a4.71,4.71,0,0,1-1,3L82.39,92.48l65.28,84a4.12,4.12,0,0,1,1,3,5.63,5.63,0,0,1-5.31,5.31h-37.7q-4.56,0-7-2a22.47,22.47,0,0,1-3.16-3L45.46,117.27V178.5a6.06,6.06,0,0,1-6.33,6.32Z"/><path class="d" d="M428.46,187.35q-24,0-41.11-7.84a60,60,0,0,1-26.57-23q-9.48-15.18-10.5-37.7Q350,108.42,350,96.53t.25-22.77q1-22,10.63-37.32a61.34,61.34,0,0,1,26.82-23.28q17.2-8,40.73-8a109,109,0,0,1,30.87,4.18,77.29,77.29,0,0,1,24.79,12.14,57.43,57.43,0,0,1,16.57,19.23,55.87,55.87,0,0,1,6.2,25.43A4.25,4.25,0,0,1,505.5,70a5.59,5.59,0,0,1-3.92,1.52H467.42a8,8,0,0,1-5.06-1.39q-1.77-1.4-3-5.19-3.56-13.41-11.52-18.34t-19.6-4.93q-13.92,0-22,7.71T397.34,75q-.75,20.74,0,42.51.77,18,8.86,25.68t22,7.71q11.63,0,19.73-5.06t11.39-18.21q1-3.8,2.91-5.19a8.63,8.63,0,0,1,5.18-1.39h34.16a5.55,5.55,0,0,1,3.92,1.52,4.25,4.25,0,0,1,1.39,3.79,55.84,55.84,0,0,1-6.2,25.43A57.33,57.33,0,0,1,484.12,171a77.29,77.29,0,0,1-24.79,12.14A109,109,0,0,1,428.46,187.35Z"/><path class="d" d="M531.86,184.82a6.06,6.06,0,0,1-6.32-6.32V14.05a6.08,6.08,0,0,1,6.32-6.33h33.9a6.08,6.08,0,0,1,6.33,6.33V178.5a6.06,6.06,0,0,1-6.33,6.32Z"/><path class="d" d="M672.5,187.35q-23.28,0-40.48-7.59a58.89,58.89,0,0,1-26.82-22.89q-9.62-15.3-10.62-38.33-.26-10.87-.26-21.76t.26-22q1-22.77,10.75-38.33A60.73,60.73,0,0,1,632.27,13Q649.48,5.2,672.5,5.19q22.77,0,40.1,7.85a61.46,61.46,0,0,1,27.2,23.4Q749.67,52,750.42,74.77q.51,11.13.51,22t-.51,21.76q-1,23-10.62,38.33A58.89,58.89,0,0,1,713,179.76Q695.78,187.35,672.5,187.35Zm0-36.43q13.41,0,21.89-8.09t9-25.81q.5-11.13.5-21t-.5-20.49q-.51-11.9-4.43-19.36a25.19,25.19,0,0,0-10.75-11,33.65,33.65,0,0,0-15.69-3.54,33,33,0,0,0-15.43,3.54,25.79,25.79,0,0,0-10.88,11q-4.05,7.47-4.56,19.36-.25,10.62-.25,20.49t.25,21q.76,17.72,9.11,25.81T672.5,150.92Z"/><path class="d" d="M790.32,184.82A6.06,6.06,0,0,1,784,178.5V121.57l-8.35,3a8,8,0,0,1-3,.76,5.22,5.22,0,0,1-3.67-1.27,4.52,4.52,0,0,1-1.39-3.54v-19a8,8,0,0,1,1.27-4.94,8.73,8.73,0,0,1,4.3-2.65L784,89.7V14.05a6.08,6.08,0,0,1,6.32-6.33h33.4a6.28,6.28,0,0,1,4.42,1.78,5.93,5.93,0,0,1,1.9,4.55V71.73l36.69-14.42a9.82,9.82,0,0,1,3-.76A5.07,5.07,0,0,1,873.3,58a4.7,4.7,0,0,1,1.52,3.66V80.34a7.45,7.45,0,0,1-1.26,4.8,11.31,11.31,0,0,1-4.3,2.79L830,103.36v43.26H906.7a6.08,6.08,0,0,1,4.43,1.9,6.38,6.38,0,0,1,1.9,4.68v25.3a5.94,5.94,0,0,1-1.9,4.55,6.27,6.27,0,0,1-4.43,1.77Z"/><path class="d" d="M937.62,184.82a6.06,6.06,0,0,1-6.33-6.32V14.05a6.08,6.08,0,0,1,6.33-6.33h118.15a6.08,6.08,0,0,1,6.32,6.33V37.83a6.06,6.06,0,0,1-6.32,6.33H975.06V78.31h75.14a5.93,5.93,0,0,1,4.55,1.9,6.61,6.61,0,0,1,1.78,4.68v22a6.31,6.31,0,0,1-1.78,4.43,6,6,0,0,1-4.55,1.9H975.06v35.16h82.73a6.08,6.08,0,0,1,6.33,6.33V178.5a6.08,6.08,0,0,1-6.33,6.32Z"/><path class="d" d="M1091,184.82a6.06,6.06,0,0,1-6.33-6.32V14.05A6.08,6.08,0,0,1,1091,7.72h31.88a6.08,6.08,0,0,1,6.32,6.33V70.22L1176,12.53a12.65,12.65,0,0,1,3.41-3.16,11.21,11.21,0,0,1,6.45-1.65h36.43a5,5,0,0,1,3.8,1.65,5.3,5.3,0,0,1,1.52,3.67,4.66,4.66,0,0,1-1,3L1166.1,92.48l65.27,84a4.12,4.12,0,0,1,1,3,5.63,5.63,0,0,1-5.31,5.31h-37.7q-4.55,0-6.95-2a22.14,22.14,0,0,1-3.17-3l-50.09-62.49V178.5a6.06,6.06,0,0,1-6.32,6.32Z"/><path class="d" d="M24,305.91q-7.77,0-12.66-3.18a18.75,18.75,0,0,1-7.19-8.59,30.62,30.62,0,0,1-2.29-12,51,51,0,0,1,5-21.11,57.68,57.68,0,0,1,9.79-14.57,50.07,50.07,0,0,1,13.74-10.68,34,34,0,0,1,16-4,25.47,25.47,0,0,1,10.31,1.72,12.14,12.14,0,0,1,5.53,4.45,10.65,10.65,0,0,1,1.72,5.79,13.57,13.57,0,0,1-2.55,7.88,11.08,11.08,0,0,1-6.23,4.71.49.49,0,0,1-.38.13.76.76,0,0,1-.51.13,1.2,1.2,0,0,0,.51-.13h.13l.25-.13c1.19-.51,2.35-1.82,3.5-3.94a14.29,14.29,0,0,0,1.72-6.87,10.63,10.63,0,0,0-3.06-7.38q-3-3.3-11.32-3.31a28.57,28.57,0,0,0-14.31,3.95,46.65,46.65,0,0,0-12.46,10.43,59.85,59.85,0,0,0-9,14,47.13,47.13,0,0,0-4.33,19.08,23.33,23.33,0,0,0,4.33,14.25q4.32,5.85,13.74,5.85a24.75,24.75,0,0,0,11.38-3.06,70,70,0,0,0,12-8A146.45,146.45,0,0,0,59.16,280.6Q65,274.75,70,269.28q-4.83.51-9.22,1.2t-8.46,1.72h-.51a1.35,1.35,0,0,1-1.52-1.53,2.3,2.3,0,0,1,.51-1.33,2,2,0,0,1,1.4-.83Q61.5,267,72.45,266q20.86-24.68,33.33-38.67t19.84-17.17a14,14,0,0,1,5.6-1.27c1.86,0,2.8.59,2.8,1.78s-1.15,2.92-3.44,5.21a70.77,70.77,0,0,0-9.35,12.59,151.77,151.77,0,0,0-8.9,17.24,139.3,139.3,0,0,0-6.81,18.89c1.19,0,2.16,0,2.93-.06a10.17,10.17,0,0,1,2,.06,3,3,0,0,1,1.91.76,1.87,1.87,0,0,1,.64,1.27c0,1-.64,1.53-1.91,1.53-.85,0-1.8,0-2.86-.06s-2.19-.07-3.37-.07a65.61,65.61,0,0,0-2.17,15.9c0,1.19,0,2.34.13,3.44s.21,2.16.38,3.18a30.91,30.91,0,0,0,1.59,5.34c.64,1.53,1.51,2.29,2.61,2.29q1.91,0,4.83-3.69a2.77,2.77,0,0,1,1.91-1.14,1.16,1.16,0,0,1,1,.57,1.58,1.58,0,0,1-.13,1.59c-1.86,3.81-4.37,5.72-7.5,5.72a7,7,0,0,1-4.9-2.29q-2.35-2.28-3.37-7.37a39.51,39.51,0,0,1-.76-8,64.65,64.65,0,0,1,.44-7.44c.3-2.58.74-5.28,1.34-8.08-3.48,0-7.4,0-11.77.07s-8.76.27-13.16.7a2.09,2.09,0,0,1-.51.57,8.12,8.12,0,0,0-.64.57q-5.08,5.73-11.32,12A169.15,169.15,0,0,1,50,293.7a73.57,73.57,0,0,1-13.36,8.84A28.24,28.24,0,0,1,24,305.91ZM78.3,265.33q6.24-.37,12.21-.57c4-.13,7.55-.23,10.69-.32a115.4,115.4,0,0,1,6.23-18.38A153.12,153.12,0,0,1,116,229.21a102.89,102.89,0,0,1,8.65-12.72c.26-.34.64-.87,1.15-1.59s1-1.4,1.46-2,.61-.91.45-.83Q120.79,215,109,228.76T78.3,265.33Z"/><path class="d" d="M108.45,340.25a10.61,10.61,0,0,1-6.17-1.71,7.76,7.76,0,0,1-3.12-5.28c-.34-2.46.6-5.05,2.8-7.76a53.31,53.31,0,0,1,8.27-8,87.21,87.21,0,0,1,8.27-5.91q4.32-2.73,8.07-5c2.5-1.49,4.52-2.65,6-3.5,3.23-1.95,6.53-4,9.93-6s6.65-4.09,9.79-6a41.8,41.8,0,0,0,2-9.23,73.49,73.49,0,0,0,.32-9.09q-1.4,2.16-4,5.72a65.49,65.49,0,0,1-6.1,7.13,39.54,39.54,0,0,1-7.57,6,16,16,0,0,1-8.4,2.48c-3.64,0-6.15-1.06-7.5-3.18a13.6,13.6,0,0,1-2-7.51,28.81,28.81,0,0,1,1.09-7.75,31.38,31.38,0,0,1,2.35-6.36,56.81,56.81,0,0,1,6.42-10.18,36,36,0,0,1,8.78-8.14,18.12,18.12,0,0,1,10-3.18c2.46,0,4.27.72,5.41,2.16a7.79,7.79,0,0,1,1.72,5,12.18,12.18,0,0,1-.51,2.8,33.37,33.37,0,0,1-1.34,3.94,14.41,14.41,0,0,1-2,3.5,3.22,3.22,0,0,1-2.54,1.46,2.2,2.2,0,0,1-1.53-.57,1.63,1.63,0,0,1-.63-1.21,5,5,0,0,1,1-1.78,24.08,24.08,0,0,0,2-3.43,9.54,9.54,0,0,0,1-4.33,4.83,4.83,0,0,0-.7-2.54,2.83,2.83,0,0,0-2.61-1.15,13.31,13.31,0,0,0-7.82,2.8,33.17,33.17,0,0,0-7.06,7,51.1,51.1,0,0,0-5.35,8.65,45.36,45.36,0,0,0-2,5.72,25.48,25.48,0,0,0-1.15,7.38,9.74,9.74,0,0,0,1.28,5.15c.84,1.4,2.33,2.1,4.45,2.1a11.08,11.08,0,0,0,6-2.16,42.31,42.31,0,0,0,6.55-5.53,71.52,71.52,0,0,0,6-7,69.74,69.74,0,0,0,4.45-6.55,12.71,12.71,0,0,0,1.85-4.2,3.31,3.31,0,0,1,.76-1.4,1.93,1.93,0,0,1,1.53-.76,1.51,1.51,0,0,1,1.4.63,4.28,4.28,0,0,1,.51,1.28,32.29,32.29,0,0,1,.89,8,63.91,63.91,0,0,1-.45,7.5c-.3,2.55-.61,4.84-.95,6.87a45.61,45.61,0,0,0,7.95-8.58q3.62-5,6.55-9.48a1.66,1.66,0,0,1,2.73-.51,1.65,1.65,0,0,1,.58,1.27,3,3,0,0,1-.39,1.28q-3.94,6.36-8.33,12.14a44.31,44.31,0,0,1-11.13,10.24,82.88,82.88,0,0,1-9.73,19.27,85.33,85.33,0,0,1-13.61,15.78,52,52,0,0,1-15,9.73,26.33,26.33,0,0,1-4.77,1.52A20.7,20.7,0,0,1,108.45,340.25Zm0-3.18a12,12,0,0,0,3.3-.51,37.68,37.68,0,0,0,3.69-1.27,55.71,55.71,0,0,0,13.93-9,70.69,70.69,0,0,0,11.07-12.28,75.63,75.63,0,0,0,7.69-13.48,11.06,11.06,0,0,1,.64-1.53l.76-1.53q-3.69,2-7.12,4.39c-2.29,1.57-4.67,3-7.12,4.39-1.36.76-3.36,1.91-6,3.44s-5.47,3.24-8.52,5.15a86.78,86.78,0,0,0-8.53,6,43.75,43.75,0,0,0-6.36,5.85q-2.54,2.93-2.54,5.47a4.42,4.42,0,0,0,1.46,3.69A5.74,5.74,0,0,0,108.45,337.07Z"/><path class="d" d="M179.17,293.19a3.21,3.21,0,0,1-1.4-.38,1.14,1.14,0,0,1-.76-1,3.86,3.86,0,0,1,.38-1.78q1.4-3.06,3.62-7.51t4.45-9.22q2.23-4.77,3.82-9a20.2,20.2,0,0,0,1.59-6.74,3.52,3.52,0,0,0-.32-1.46,1.32,1.32,0,0,0-1.33-.7,4.57,4.57,0,0,0-3,1.27,16.86,16.86,0,0,0-2.61,2.86c-.76,1.07-1.4,1.93-1.91,2.61-1.69,2.29-3.14,4.39-4.32,6.3s-2.4,3.77-3.63,5.6-2.73,3.83-4.51,6a3.78,3.78,0,0,1-.83.82,2,2,0,0,1-1.21.32,1.63,1.63,0,0,1-1.33-.76,1.18,1.18,0,0,1-.2-1.4q2.81-4.45,5.47-8.46c1.79-2.67,3.35-5,4.71-6.93s2.29-3.26,2.8-3.94q2.16-2.81,4.51-5.35a8.35,8.35,0,0,1,6.43-2.54q3.43,0,4.77,1.91a7.55,7.55,0,0,1,1.33,4.45q0,4.57-3.81,11.83A80.67,80.67,0,0,1,202,261a102.73,102.73,0,0,1,10.11-6.81,33.07,33.07,0,0,1,7.13-3.37,21.89,21.89,0,0,1,2.35-.63,10.85,10.85,0,0,1,2.23-.26,3.3,3.3,0,0,1,2.09.64,2.9,2.9,0,0,1,.83,2.41q0,1.78-2.29,5t-5.53,7.38q-3.24,4.13-6.17,8.33a33,33,0,0,0-4.2,7.88,7.72,7.72,0,0,0-.51,1.72,10.32,10.32,0,0,0-.12,1.46c0,2.29,1.05,3.44,3.18,3.44a9.86,9.86,0,0,0,5.08-2,32,32,0,0,0,3.5-2.6,19.27,19.27,0,0,0,2.61-2.61q1.91-2.16,3.12-3.69c.8-1,1.61-2.14,2.41-3.37s1.85-2.78,3.12-4.64a2.86,2.86,0,0,1,.76-.9,2.5,2.5,0,0,1,1.27-.25c.94,0,1.4.59,1.4,1.78a6.28,6.28,0,0,1-1.14,2.61q-1.15,1.85-2.74,4.07t-3.05,4.07c-1,1.23-1.67,2.1-2.1,2.61a29.39,29.39,0,0,1-3.5,3.43,29.76,29.76,0,0,1-4.26,3.05,15.72,15.72,0,0,1-4.19,1.66,18.38,18.38,0,0,1-4.2.51q-3.31,0-4.77-1.91a6.55,6.55,0,0,1-1.47-4.07,16.8,16.8,0,0,1,2.23-7.57,66.35,66.35,0,0,1,5.34-8.52q3.12-4.26,5.85-7.7t3.76-5a3.77,3.77,0,0,0,.38-.7,1.65,1.65,0,0,0,.13-.57q0-1-1.53-1a5.28,5.28,0,0,0-1.78.38,52.68,52.68,0,0,0-10.88,6.36,86.2,86.2,0,0,0-10.43,9.1,61.34,61.34,0,0,0-7.57,9.22l-5.08,8a19.49,19.49,0,0,0-1.15,2.1,21.31,21.31,0,0,1-1.14,2.1A2.31,2.31,0,0,1,179.17,293.19Z"/><path class="d" d="M236.15,292.93a9.54,9.54,0,0,1-6.86-2.41,8.84,8.84,0,0,1-2.55-6.74,25,25,0,0,1,.51-5,33.57,33.57,0,0,1,1.4-4.9q.51-1.39,2.1-4.64t3.75-6.87a55.54,55.54,0,0,1,4.2-6.17q2-2.54,3.56-2.54a4.89,4.89,0,0,1,1.72.45,1.44,1.44,0,0,1,1.08,1.33,2.47,2.47,0,0,1-.51,1.27,87.16,87.16,0,0,0-6.11,7.89,55.44,55.44,0,0,0-5.34,9.54,23.88,23.88,0,0,0-2.16,9.54c0,3.9,1.86,5.85,5.6,5.85q3.81,0,7.69-3.69a81.75,81.75,0,0,0,8.59-9.92,41.38,41.38,0,0,0,2.48-3.5c.72-1.14,1.37-2.14,2-3a2.68,2.68,0,0,1,1.91-.89c1,0,1.52.38,1.52,1.15q0,1.39-2,4.45t-4.58,6.36a74.14,74.14,0,0,1-8.65,9.28A13.68,13.68,0,0,1,236.15,292.93Zm14.25-52a4.22,4.22,0,0,1-1.4-.26,1.06,1.06,0,0,1-.76-1.14,1.82,1.82,0,0,1,.38-1.14,8.32,8.32,0,0,1,3.75-3.31,10.35,10.35,0,0,1,4.14-1.4,3.65,3.65,0,0,1,1.39.32,1.19,1.19,0,0,1,.77,1.21q0,2.16-2.61,3.94A9.81,9.81,0,0,1,250.4,240.91Z"/><path class="d" d="M266.17,294.08q-6.62,0-9.22-3.88a15.91,15.91,0,0,1-2.61-9.09,27.55,27.55,0,0,1,1.91-9.1,48.8,48.8,0,0,1,5.28-10.37,34,34,0,0,1,7.82-8.46,15.56,15.56,0,0,1,9.54-3.37,7.42,7.42,0,0,1,5.28,1.85,6.11,6.11,0,0,1,2,4.64,17.83,17.83,0,0,1-3.43,10.3,27.39,27.39,0,0,1-8.91,8.15,22.85,22.85,0,0,1-11.7,3.17c-.51,0-1,0-1.52-.06s-1-.1-1.53-.19a16.79,16.79,0,0,0-.38,3.82,12.13,12.13,0,0,0,1.59,6.1c1.06,1.87,3.11,2.8,6.17,2.8a15.42,15.42,0,0,0,7.37-1.91,25.06,25.06,0,0,0,6-4.32q2.42-2.42,4.07-4.33t3.44-4.39c1.18-1.65,2.67-3.83,4.45-6.55a1.66,1.66,0,0,1,1.53-.89c1.18,0,1.78.64,1.78,1.91a1.81,1.81,0,0,1-.26,1,95.63,95.63,0,0,1-7.63,11.13,39.8,39.8,0,0,1-9.35,8.65A20.75,20.75,0,0,1,266.17,294.08ZM263,274a17.17,17.17,0,0,0,9.1-2.61,22.84,22.84,0,0,0,7-6.55,13.85,13.85,0,0,0,2.74-8,3.63,3.63,0,0,0-.7-2.29,2.84,2.84,0,0,0-2.36-.89,10.64,10.64,0,0,0-6.36,2.23,25.75,25.75,0,0,0-5.53,5.59,52.35,52.35,0,0,0-4.2,6.68,41.16,41.16,0,0,0-2.48,5.6,13.51,13.51,0,0,0,1.34.19C262,274,262.48,274,263,274Z"/><path class="d" d="M294.41,294.08q-6.24,0-9.54-2.54c-2.2-1.7-3.31-3.48-3.31-5.35a4.85,4.85,0,0,1,1.72-3.62Q285,281,289.07,281a29.69,29.69,0,0,1,6.1.76q2.67.64,5.66,1.65a17,17,0,0,0,6.17.9,6.56,6.56,0,0,0,1-2.29,16.52,16.52,0,0,0,.13-2.17,16.19,16.19,0,0,0-1.34-7,49.92,49.92,0,0,0-3.05-5.47,25.32,25.32,0,0,1-2.86-6.49q-1.66,2.81-4.2,7.31a119.86,119.86,0,0,1-8.4,12.28,1.63,1.63,0,0,1-1.52.64c-1.27,0-1.91-.56-1.91-1.66a2.33,2.33,0,0,1,.57-1.14q.57-.76,2.61-3.95,2.29-3.67,5.34-8.33a96.84,96.84,0,0,0,5.85-10.24,14.45,14.45,0,0,1,.89-4.2,21.3,21.3,0,0,1,1.78-3.68,11.25,11.25,0,0,1,2.93-3.37,5,5,0,0,1,2.8-1.09c1.61,0,2.42.94,2.42,2.8a11.85,11.85,0,0,1-1.53,5,10.74,10.74,0,0,1-2.29,3.25c-.93.89-1.74,1.67-2.42,2.35a15.35,15.35,0,0,0,1.53,5.72,49.43,49.43,0,0,0,2.86,5,31,31,0,0,1,2.74,5.21,17.86,17.86,0,0,1,1.14,6.74,12.31,12.31,0,0,1-.89,4.71,9.12,9.12,0,0,0,5.79-2.1,29.38,29.38,0,0,0,5.72-5.79,69.94,69.94,0,0,0,4.9-7.25,1.94,1.94,0,0,1,1.65-.89,2.46,2.46,0,0,1,1.27.38,1.36,1.36,0,0,1,.64,1.27,3.09,3.09,0,0,1-.38,1.28,53.48,53.48,0,0,1-7.06,10.24,19.76,19.76,0,0,1-6.81,5,24,24,0,0,1-7.63,1.65,24.58,24.58,0,0,1-6.8,4.52A19.92,19.92,0,0,1,294.41,294.08Zm-.64-3.05a13.38,13.38,0,0,0,5.09-.89,29.38,29.38,0,0,0,4.71-2.55,27.16,27.16,0,0,1-4.45-.95c-1.19-.38-2.72-.78-4.58-1.21a28.39,28.39,0,0,0-5.6-.76c-2.46,0-3.69.59-3.69,1.78,0,.93.81,1.93,2.42,3A10.87,10.87,0,0,0,293.77,291Z"/><path class="d" d="M308.15,336.31a11.28,11.28,0,0,1-6.81-1.91,6.63,6.63,0,0,1-2.61-5.72q0-3.69,4-7.44a68.13,68.13,0,0,1,9.48-7.32q4.45-2.79,9.15-5.15t8.78-4.2l6.62-3q5.21-2.41,10.3-5t9.79-5.53a30.19,30.19,0,0,0,1.34-3.76,16.79,16.79,0,0,0,.7-4.77,8.41,8.41,0,0,0-1.21-4.51c-.81-1.32-2.27-2-4.39-2a7.42,7.42,0,0,0-1.78.25q-.88,1-3.12,3.12t-4.83,4.32a45.9,45.9,0,0,1-5,3.75,7.67,7.67,0,0,1-3.75,1.53c-1.19,0-1.78-.63-1.78-1.91a5.64,5.64,0,0,1,1-3.18,17.87,17.87,0,0,1,2.17-2.67q2.67-2.53,5.28-4.58a16.32,16.32,0,0,1,6.55-2.92q1.52-1.91,3.75-5a58,58,0,0,0,3.88-6.17,12.83,12.83,0,0,0,1.65-5.34q0-3.81-5.09-3.81a14.27,14.27,0,0,0-8.58,2.92,37.4,37.4,0,0,0-7.38,7.25q-3.37,4.33-6.3,8.65-2.79,4.08-4.19,6a22.94,22.94,0,0,1-2,2.55,1.6,1.6,0,0,1-1.08.57c-1.18,0-1.78-.55-1.78-1.65a2.1,2.1,0,0,1,.32-.83q.31-.57,1.59-2.61,3.94-6.22,8.21-12.21a46.41,46.41,0,0,1,9.47-10,18.87,18.87,0,0,1,11.83-4,11.16,11.16,0,0,1,6.74,1.78,6.22,6.22,0,0,1,2.42,5.34,17.15,17.15,0,0,1-1.91,7,30.26,30.26,0,0,1-2.67,4.58c-1,1.44-2,2.8-2.93,4.07,3.23.08,5.54,1.19,6.94,3.3a12.23,12.23,0,0,1,2.1,6.87,14.56,14.56,0,0,1-.64,4.07,47.59,47.59,0,0,0,7.57-8.26q3.87-5.22,6.8-9.67a1.91,1.91,0,0,1,1.66-1c1.1,0,1.65.59,1.65,1.78a3.05,3.05,0,0,1-.38,1.27q-3.94,6.36-8.27,12.09a44.15,44.15,0,0,1-11.06,10.17,53.93,53.93,0,0,1-7.7,14.38,82.2,82.2,0,0,1-24.23,21.62A60.38,60.38,0,0,1,316,335,25.76,25.76,0,0,1,308.15,336.31Zm-.13-3.18a13.88,13.88,0,0,0,3.05-.38c1.1-.26,2.21-.55,3.31-.89a60.36,60.36,0,0,0,15.2-7.63,78.47,78.47,0,0,0,13-11.2,88.81,88.81,0,0,0,9.86-12.59,15.81,15.81,0,0,1,.83-1.46c.29-.47.57-1,.82-1.47q-3.69,2-7.5,3.88T338.8,305l-6.55,2.92q-4.26,1.92-9.16,4.33a106.27,106.27,0,0,0-9.35,5.21,47.59,47.59,0,0,0-7.69,5.73q-3.12,2.93-3.12,5.47a4,4,0,0,0,1.4,3.43A6.11,6.11,0,0,0,308,333.13Z"/><path class="d" d="M375.69,292.93c-1.36,0-2-.59-2-1.78a20.6,20.6,0,0,1,1.08-2.79q1.08-2.55,2.61-5.86c1-2.2,2-4.26,2.8-6.16s1.4-3.12,1.65-3.63c-.08-.42-.31-1.29-.7-2.61a13.46,13.46,0,0,1-.57-3.75A4.92,4.92,0,0,1,381,264a1.84,1.84,0,0,1,1.78-1,2.34,2.34,0,0,1,1.46.77,13,13,0,0,0,1.21,1,38.3,38.3,0,0,0,1.78-3.81c.51-1.27,1.06-2.55,1.66-3.82q4.32-10,8.26-19.52t8.65-19.4a4.6,4.6,0,0,1,1.72-1.78,3.91,3.91,0,0,1,2-.64c1.27,0,1.91.55,1.91,1.65A17.53,17.53,0,0,1,410.1,222c-.9,2.33-2.08,5.11-3.57,8.33s-3.07,6.6-4.77,10.11-3.35,6.92-5,10.18-3,6.09-4.2,8.46l-2.41,4.83.63.26a77.54,77.54,0,0,1,8.46-9.73,38.94,38.94,0,0,1,11-7.44,17.49,17.49,0,0,1,7.12-1.79,7.38,7.38,0,0,1,4.51,1.28,4,4,0,0,1,1.72,3.43q0,2.55-2.54,5.85a25.74,25.74,0,0,1-5.28,4.84,51.24,51.24,0,0,1-6.55,3.94,46.54,46.54,0,0,1-6,2.54,45.27,45.27,0,0,1-5.53,1.4c-1.83.34-3.71.68-5.66,1a4.49,4.49,0,0,0-2.61,1.21,4.31,4.31,0,0,0-1.46,2.1,30.87,30.87,0,0,0,2.79,6.87,22.75,22.75,0,0,0,5.22,6.55,11,11,0,0,0,7.38,2.73,11.25,11.25,0,0,0,7.57-2.92,39.77,39.77,0,0,0,6.48-7.44q3.12-4.51,6.55-9.23a2.06,2.06,0,0,1,1.66-.76h.25c.85,0,1.27.64,1.27,1.91a2.2,2.2,0,0,1-.38,1.14c-.93,1.45-2.16,3.31-3.69,5.6a70.77,70.77,0,0,1-5.28,6.93,31.57,31.57,0,0,1-6.67,5.92,14,14,0,0,1-7.76,2.41,16.89,16.89,0,0,1-8.59-2.16,19.43,19.43,0,0,1-6.23-5.66,25.49,25.49,0,0,1-3.63-7.19c-1.27,2.38-2.44,4.8-3.49,7.25a47,47,0,0,1-3.76,7,2.92,2.92,0,0,1-.82.76A2.13,2.13,0,0,1,375.69,292.93Zm19.71-27.72a48.07,48.07,0,0,0,6.55-1.47,47.3,47.3,0,0,0,7.45-2.86,22.34,22.34,0,0,0,6.1-4.2,12.65,12.65,0,0,0,2.16-2.86,5.9,5.9,0,0,0,.89-2.86,1.68,1.68,0,0,0-1.9-1.91q-1.92,0-6.24,2.42a46.7,46.7,0,0,0-8.33,6.17A50.8,50.8,0,0,0,395.4,265.21Z"/><path class="d" d="M426.06,293.32q-4.2,0-5.79-2.23a9.06,9.06,0,0,1-1.59-5.41,21.61,21.61,0,0,1,1-6.36c.68-2.2,1.42-4.26,2.22-6.16s1.47-3.33,2-4.27a68.51,68.51,0,0,1,5.15-7.63,42.94,42.94,0,0,1,6.17-6.49,27.68,27.68,0,0,1,6.8-4.51,16.93,16.93,0,0,1,7.06-1.59q6.1,0,8.65,3.24a11,11,0,0,1,2.54,6.94,10,10,0,0,1-.38,2.67,17.21,17.21,0,0,1-1.21,3.3c-.46.94-1,1.4-1.71,1.4a2.16,2.16,0,0,1-1.66-.89,1.85,1.85,0,0,1-.5-1.78,10.35,10.35,0,0,1,.69-1.78,5.88,5.88,0,0,0,.58-1.78c.08-.42.14-.8.19-1.14a8.72,8.72,0,0,0,.06-1q0-3.44-2.22-4.77a9.15,9.15,0,0,0-4.77-1.34,12.8,12.8,0,0,0-6,1.66,24.33,24.33,0,0,0-5.4,3.81,63.52,63.52,0,0,0-5.6,6.49,55.28,55.28,0,0,0-4.83,7.5c-.17.43-.62,1.45-1.34,3.06a50.85,50.85,0,0,0-2,5.4,18.24,18.24,0,0,0-1,5.54,5.5,5.5,0,0,0,.83,3.05,3.14,3.14,0,0,0,2.86,1.27,9.12,9.12,0,0,0,5-2,47.07,47.07,0,0,0,5.85-5q3-3,5.4-5.79t3.56-4.32a22.67,22.67,0,0,0,1.47-2.23,21.86,21.86,0,0,1,1.46-2.22,1.82,1.82,0,0,1,1.53-.51,4.55,4.55,0,0,1,2.1.57,1.33,1.33,0,0,1,.82,1.59c-.34.59-1,1.89-1.84,3.88a66.26,66.26,0,0,0-2.48,6.49,20,20,0,0,0-1.15,6.17q0,3.3,2,3.81a3.74,3.74,0,0,0,3-1,18.75,18.75,0,0,0,2.92-2.92l2-2.42q2.67-3.56,5-7.31c1.57-2.5,3.16-4.86,4.77-7.06a2.2,2.2,0,0,1,1.78-1c1.19,0,1.78.64,1.78,1.91a10.27,10.27,0,0,1-1.65,3.24c-1.11,1.74-2.44,3.71-4,5.92s-3,4.19-4.39,6a51,51,0,0,1-4.58,5.21,8.78,8.78,0,0,1-6.49,2.54q-3.69,0-5-1.65a5.72,5.72,0,0,1-1.34-3.69,19.43,19.43,0,0,1,.39-3.75c.25-1.31.51-2.44.76-3.37l-.51-.38a41.37,41.37,0,0,1-3.43,3.56q-2.29,2.16-5.09,4.39a42.22,42.22,0,0,1-5.53,3.75A10.31,10.31,0,0,1,426.06,293.32Z"/><path class="d" d="M514.72,234.42c-1.53,0-3.63-.1-6.3-.32s-5.28-.52-7.82-.95a18.3,18.3,0,0,1-5.85-1.78,25.36,25.36,0,0,1-4.9-3.94,7.46,7.46,0,0,1-2.23-5.35,8.77,8.77,0,0,1,3.06-6.55,25.38,25.38,0,0,1,7.56-4.77,56.76,56.76,0,0,1,9.23-3,43.74,43.74,0,0,1,8-1.2c1-.09,2-.13,3-.13h3a134.49,134.49,0,0,1,27.85,2.92q13.88,2.94,27.35,6.11,8.4,2,17.3,3.82a90.55,90.55,0,0,0,17.68,1.78c.93,0,2.12-.07,3.56-.19a12.14,12.14,0,0,0,3.88-1,2.52,2.52,0,0,0,1.72-2.42,2.09,2.09,0,0,0-.83-1.84,14.83,14.83,0,0,0-1.71-1,1.41,1.41,0,0,1-.89-1.33,1.85,1.85,0,0,1,.7-1.4,2.25,2.25,0,0,1,1.59-.64,4.54,4.54,0,0,1,2.73,1.15,12.63,12.63,0,0,1,2.54,2.67,5,5,0,0,1,1.09,2.8,4.73,4.73,0,0,1-2.55,4.38,15.77,15.77,0,0,1-5.91,1.91,44.78,44.78,0,0,1-5.79.45,88.89,88.89,0,0,1-17.62-1.78q-8.83-1.78-17.36-3.82-13.35-3.18-27.16-6a136.33,136.33,0,0,0-27.79-2.86h-3c-1,0-2,0-3,.12a56.83,56.83,0,0,0-8.27,1.34,45.27,45.27,0,0,0-8.84,3,13.91,13.91,0,0,0-6,4.83,4.31,4.31,0,0,0-.89,2.42,4.87,4.87,0,0,0,1.84,3.69,21.52,21.52,0,0,0,3.63,2.67,14.49,14.49,0,0,0,5,1.59,59.64,59.64,0,0,0,6.87.76c2.33.13,4.14.19,5.41.19a83.77,83.77,0,0,0,10.3-.63,76.6,76.6,0,0,0,9.92-1.91l2.55-.89c1.18-.42,2.48-.87,3.88-1.34s2.58-.89,3.56-1.27a12.85,12.85,0,0,1,1.59-.57,2.1,2.1,0,0,1,1.65.7,2.14,2.14,0,0,1,.64,1.46c0,.6-.43,1.1-1.27,1.53a32.47,32.47,0,0,1-5.47,2.22q-3.06,1-6,1.72A84.34,84.34,0,0,1,514.72,234.42Zm18.06,63.48c-1.36,0-2-.64-2-1.91a10,10,0,0,1,.7-3.31c.47-1.27.87-2.33,1.21-3.18a133.38,133.38,0,0,1,7.19-14.88q4.13-7.38,8.08-14.63,1.14-2.16,3.43-6.17t4.64-8.65q2.35-4.63,4.07-8.59a16.64,16.64,0,0,0,1.72-6,2.28,2.28,0,0,0-.25-1.09,1.77,1.77,0,0,1-.26-1,1.45,1.45,0,0,1,.64-1.14,2.35,2.35,0,0,1,1.52-.51,1.86,1.86,0,0,1,2,1.27,8.56,8.56,0,0,1,.38,2.42,19.12,19.12,0,0,1-1.65,6.67q-1.66,4.14-4,8.78t-4.64,8.78q-2.29,4.12-3.69,6.68-3.95,7.13-8,14.37a129.82,129.82,0,0,0-7.13,14.76c-.34.93-.66,1.86-1,2.79s-.57,1.87-.83,2.8A2,2,0,0,1,532.78,297.9Z"/><path class="d" d="M575.77,295.73A8,8,0,0,1,570.3,294a10.5,10.5,0,0,1-3-4.39,14.38,14.38,0,0,1-.95-4.89,29.5,29.5,0,0,1,3.18-12,6.35,6.35,0,0,0-.06-.83,4.86,4.86,0,0,1-.07-.82,26.74,26.74,0,0,1,1-7.13,21.19,21.19,0,0,1,4.07-8,22.86,22.86,0,0,1,7.31-5.91,20.43,20.43,0,0,1,9.61-2.29q6.11,0,9.41,3.24a11.34,11.34,0,0,1,3.31,8.46A27.62,27.62,0,0,1,601.53,272Q598.92,277.16,596,282c-.34.68-.64,1.23-.89,1.65s0,.64.76.64a11.11,11.11,0,0,0,7.25-3.06q3.55-3,9-11.57a5.4,5.4,0,0,1,.76-1,1.55,1.55,0,0,1,1.15-.38h.25c.94,0,1.49.55,1.66,1.65a2,2,0,0,1-.26.89,75.06,75.06,0,0,1-6.42,9.67,21.51,21.51,0,0,1-7.7,6.17,27.4,27.4,0,0,1-11.19,2.22,32.05,32.05,0,0,1-6.55,4.71A16.4,16.4,0,0,1,575.77,295.73Zm.76-3.56a9.51,9.51,0,0,0,5.09-1.59,48.11,48.11,0,0,0,4.33-3q-9.68-1-14.25-8.52-.12.89-.51,2.67a17.31,17.31,0,0,0-.38,3.56A9.83,9.83,0,0,0,572,290C572.72,291.45,574.25,292.17,576.53,292.17ZM588,284h1.28a59.21,59.21,0,0,0,5.15-7.25,43.52,43.52,0,0,0,4-8.46,25.28,25.28,0,0,0,1.53-8.33,10.4,10.4,0,0,0-1.91-6.3c-1.27-1.73-3.48-2.6-6.61-2.6a15,15,0,0,0-6.17,1.33,19.76,19.76,0,0,0-5.15,3.25l.38.5a1.85,1.85,0,0,1,.76-.12,2,2,0,0,1,1.4.57,1.65,1.65,0,0,1,.64,1.21,1.47,1.47,0,0,1-.13.63,2.11,2.11,0,0,1-.38.51c-1.45,2.12-2.84,4.12-4.2,6a45.53,45.53,0,0,0-3.82,6.36,15.55,15.55,0,0,1-.89,1.78,13.64,13.64,0,0,0,4.77,7.82A14.13,14.13,0,0,0,588,284Z"/><path class="d" d="M619.78,295.1a3.24,3.24,0,0,1-1.4-.38,1.15,1.15,0,0,1-.76-1,3.47,3.47,0,0,1,.13-.89c.08-.34.17-.64.25-.89q1.39-3.18,3.94-8.14t5.35-10.5q2.79-5.53,4.7-10.24a21,21,0,0,0,1.91-7.25,3.52,3.52,0,0,0-.32-1.46,1.3,1.3,0,0,0-1.33-.7,7,7,0,0,0-3.88,1.59,25.89,25.89,0,0,0-4.52,4.26q-1.27,1.53-3.3,4.39c-1.36,1.91-2.76,3.94-4.2,6.11s-2.78,4.17-4,6a38,38,0,0,1-2.86,3.94,2.59,2.59,0,0,1-2.16,1.27,1.54,1.54,0,0,1-1.34-.63,1.36,1.36,0,0,1,.06-1.53c.69-1.27,1.72-3,3.12-5.09s2.86-4.32,4.39-6.61,2.93-4.33,4.2-6.11,2.07-2.92,2.41-3.43a32.39,32.39,0,0,1,5.28-5.34,11,11,0,0,1,7.19-2.55q5.85,0,5.85,5.22a16.88,16.88,0,0,1-1.14,5.59,65.09,65.09,0,0,1-3.31,7.38q4.07-4.2,7.06-6.87t5.91-5a9.5,9.5,0,0,1,6.11-2.42,6,6,0,0,1,4.51,1.91,7.75,7.75,0,0,1,1.85,5.6,20,20,0,0,1-.19,2.61,39.64,39.64,0,0,1-.83,4,62.46,62.46,0,0,1,9.22-8.26,88.54,88.54,0,0,1,9.16-5.92,32.41,32.41,0,0,1,6.68-3c.85-.25,1.67-.46,2.48-.63a10.93,10.93,0,0,1,2.23-.26A2.52,2.52,0,0,1,691,253q0,1.78-2.28,5t-5.54,7.38q-3.24,4.13-6.17,8.33a33,33,0,0,0-4.2,7.88,13,13,0,0,0-.63,3.18q0,3.43,3.18,3.44a9.94,9.94,0,0,0,5.21-2,32,32,0,0,0,7.13-7q3.81-4.83,7.12-9.92a2.34,2.34,0,0,1,2-1.15q.89,0,1.14.45a1.66,1.66,0,0,1,.26.82,10.54,10.54,0,0,1-1.21,3.06,42.6,42.6,0,0,1-4,6.1,64,64,0,0,1-6.42,7.44,25.77,25.77,0,0,1-4.65,3.75,12.14,12.14,0,0,1-3.43,1.47,14.52,14.52,0,0,1-3.56.44q-4.08,0-5.85-1.71a5.56,5.56,0,0,1-1.79-4.14,16.45,16.45,0,0,1,2.23-7.5,73.08,73.08,0,0,1,5.28-8.46q3-4.26,5.79-7.7t3.75-5a2,2,0,0,0,.51-1.27c0-.68-.47-1-1.4-1a5.28,5.28,0,0,0-1.78.38,49.39,49.39,0,0,0-10.3,5.92,92.42,92.42,0,0,0-9.1,7.57,86.57,86.57,0,0,0-6.17,6.36q-.51,1.78-1.4,4.77a19.68,19.68,0,0,1-2.41,5.28,4.6,4.6,0,0,1-4,2.28,2.28,2.28,0,0,1-1.84-.82,2.61,2.61,0,0,1-.7-1.72,10.18,10.18,0,0,1,2-6.1,34,34,0,0,1,4.71-5.22c.42-1.44,1-3.33,1.78-5.66a19.75,19.75,0,0,0,1.15-5.91,4.79,4.79,0,0,0-1-3.18,2.92,2.92,0,0,0-2.35-1.15,5.47,5.47,0,0,0-3.31,1.27,49.83,49.83,0,0,0-11.06,10.62q-4.85,6.3-8.66,12.28a67.29,67.29,0,0,0-3.75,6.1,62,62,0,0,1-3.75,6.11,3.2,3.2,0,0,1-.76.76A2.1,2.1,0,0,1,619.78,295.1Z"/><path class="d" d="M696.86,293.32q-4.18,0-5.78-2.23a9.06,9.06,0,0,1-1.59-5.41,21.28,21.28,0,0,1,1-6.36,61.23,61.23,0,0,1,2.22-6.16c.81-1.91,1.46-3.33,2-4.27a71.37,71.37,0,0,1,5.15-7.63,43.44,43.44,0,0,1,6.17-6.49,27.92,27.92,0,0,1,6.81-4.51,16.89,16.89,0,0,1,7.06-1.59q6.11,0,8.65,3.24a11.1,11.1,0,0,1,2.54,6.94,10.42,10.42,0,0,1-.38,2.67,17.21,17.21,0,0,1-1.21,3.3c-.47.94-1,1.4-1.72,1.4a2.16,2.16,0,0,1-1.65-.89,1.86,1.86,0,0,1-.51-1.78,10.41,10.41,0,0,1,.7-1.78,5.59,5.59,0,0,0,.57-1.78c.09-.42.15-.8.19-1.14a7,7,0,0,0,.07-1c0-2.29-.75-3.88-2.23-4.77a9.1,9.1,0,0,0-4.77-1.34,12.79,12.79,0,0,0-6,1.66,24.63,24.63,0,0,0-5.41,3.81,63.49,63.49,0,0,0-5.59,6.49,56.35,56.35,0,0,0-4.84,7.5c-.17.43-.61,1.45-1.33,3.06a53.05,53.05,0,0,0-2,5.4,18.52,18.52,0,0,0-.95,5.54,5.42,5.42,0,0,0,.83,3.05,3.14,3.14,0,0,0,2.86,1.27,9.09,9.09,0,0,0,5-2,45.67,45.67,0,0,0,5.85-5q3-3,5.41-5.79t3.56-4.32a21,21,0,0,0,1.46-2.23,23.73,23.73,0,0,1,1.47-2.22,1.81,1.81,0,0,1,1.52-.51,4.49,4.49,0,0,1,2.1.57,1.33,1.33,0,0,1,.83,1.59c-.34.59-1,1.89-1.85,3.88a68.9,68.9,0,0,0-2.48,6.49,20.26,20.26,0,0,0-1.14,6.17c0,2.2.68,3.47,2,3.81a3.73,3.73,0,0,0,3-1,18.81,18.81,0,0,0,2.93-2.92l2-2.42q2.67-3.56,5-7.31c1.56-2.5,3.15-4.86,4.77-7.06a2.18,2.18,0,0,1,1.78-1c1.18,0,1.78.64,1.78,1.91a10.41,10.41,0,0,1-1.66,3.24c-1.1,1.74-2.44,3.71-4,5.92s-3,4.19-4.39,6a52.25,52.25,0,0,1-4.58,5.21,8.78,8.78,0,0,1-6.49,2.54q-3.69,0-5-1.65a5.72,5.72,0,0,1-1.34-3.69,20.21,20.21,0,0,1,.38-3.75c.26-1.31.51-2.44.77-3.37l-.51-.38a41.77,41.77,0,0,1-3.44,3.56c-1.52,1.44-3.22,2.9-5.08,4.39a42.29,42.29,0,0,1-5.54,3.75A10.24,10.24,0,0,1,696.86,293.32Z"/><path class="d" d="M742,294.08q-6.24,0-9.54-2.54c-2.2-1.7-3.31-3.48-3.31-5.35a4.85,4.85,0,0,1,1.72-3.62q1.73-1.59,5.79-1.59a29.69,29.69,0,0,1,6.1.76q2.67.64,5.66,1.65a17,17,0,0,0,6.17.9,6.2,6.2,0,0,0,1-2.29,16.52,16.52,0,0,0,.13-2.17,16.19,16.19,0,0,0-1.34-7,48.31,48.31,0,0,0-3-5.47,25.67,25.67,0,0,1-2.86-6.49c-1.11,1.87-2.5,4.31-4.2,7.31a121.1,121.1,0,0,1-8.39,12.28,1.66,1.66,0,0,1-1.53.64c-1.27,0-1.91-.56-1.91-1.66a2.33,2.33,0,0,1,.57-1.14q.57-.76,2.61-3.95Q738,270.69,741,266a96.84,96.84,0,0,0,5.85-10.24,14.79,14.79,0,0,1,.89-4.2,21.32,21.32,0,0,1,1.79-3.68,11.09,11.09,0,0,1,2.92-3.37,5,5,0,0,1,2.8-1.09c1.61,0,2.42.94,2.42,2.8a11.85,11.85,0,0,1-1.53,5,10.57,10.57,0,0,1-2.29,3.25c-.93.89-1.74,1.67-2.42,2.35a15.35,15.35,0,0,0,1.53,5.72,49.43,49.43,0,0,0,2.86,5,31,31,0,0,1,2.74,5.21,17.86,17.86,0,0,1,1.14,6.74,12.31,12.31,0,0,1-.89,4.71,9.1,9.1,0,0,0,5.79-2.1,29.38,29.38,0,0,0,5.72-5.79,69.94,69.94,0,0,0,4.9-7.25,1.94,1.94,0,0,1,1.65-.89,2.46,2.46,0,0,1,1.27.38,1.36,1.36,0,0,1,.64,1.27,3.09,3.09,0,0,1-.38,1.28,53.48,53.48,0,0,1-7.06,10.24,19.76,19.76,0,0,1-6.81,5A24,24,0,0,1,756.9,288a24.43,24.43,0,0,1-6.8,4.52A19.92,19.92,0,0,1,742,294.08Zm-.64-3.05a13.38,13.38,0,0,0,5.09-.89,29.38,29.38,0,0,0,4.71-2.55,27.16,27.16,0,0,1-4.45-.95c-1.19-.38-2.72-.78-4.58-1.21a28.39,28.39,0,0,0-5.6-.76c-2.46,0-3.69.59-3.69,1.78,0,.93.81,1.93,2.42,3A10.87,10.87,0,0,0,741.38,291Z"/><path class="d" d="M755.76,336.31A11.28,11.28,0,0,1,749,334.4a6.63,6.63,0,0,1-2.61-5.72q0-3.69,4-7.44a68.13,68.13,0,0,1,9.48-7.32q4.45-2.79,9.16-5.15t8.77-4.2l6.62-3q5.21-2.41,10.3-5t9.79-5.53a30.19,30.19,0,0,0,1.34-3.76,16.79,16.79,0,0,0,.7-4.77A8.41,8.41,0,0,0,805.3,278c-.81-1.32-2.27-2-4.39-2a7.42,7.42,0,0,0-1.78.25q-.89,1-3.11,3.12t-4.84,4.32a45.9,45.9,0,0,1-5,3.75,7.67,7.67,0,0,1-3.75,1.53c-1.19,0-1.78-.63-1.78-1.91a5.65,5.65,0,0,1,1-3.18,17.22,17.22,0,0,1,2.16-2.67q2.67-2.53,5.28-4.58a16.32,16.32,0,0,1,6.55-2.92q1.53-1.91,3.75-5a58,58,0,0,0,3.88-6.17,12.83,12.83,0,0,0,1.65-5.34c0-2.54-1.69-3.81-5.09-3.81a14.27,14.27,0,0,0-8.58,2.92,37.4,37.4,0,0,0-7.38,7.25q-3.37,4.33-6.29,8.65-2.8,4.08-4.2,6a24.66,24.66,0,0,1-2,2.55,1.64,1.64,0,0,1-1.08.57c-1.19,0-1.79-.55-1.79-1.65a2.1,2.1,0,0,1,.32-.83c.21-.38.75-1.25,1.59-2.61q3.94-6.22,8.21-12.21a46.41,46.41,0,0,1,9.47-10,18.87,18.87,0,0,1,11.83-4,11.16,11.16,0,0,1,6.74,1.78,6.22,6.22,0,0,1,2.42,5.34,17.15,17.15,0,0,1-1.91,7,30.26,30.26,0,0,1-2.67,4.58q-1.53,2.16-2.92,4.07c3.22.08,5.53,1.19,6.93,3.3a12.23,12.23,0,0,1,2.1,6.87,14.56,14.56,0,0,1-.64,4.07,47.59,47.59,0,0,0,7.57-8.26q3.89-5.22,6.8-9.67a1.91,1.91,0,0,1,1.66-1c1.1,0,1.65.59,1.65,1.78a3.05,3.05,0,0,1-.38,1.27q-3.95,6.36-8.27,12.09A44.15,44.15,0,0,1,808,293.44a53.65,53.65,0,0,1-7.7,14.38,82.2,82.2,0,0,1-24.23,21.62,60.38,60.38,0,0,1-12.47,5.6A25.71,25.71,0,0,1,755.76,336.31Zm-.13-3.18a13.88,13.88,0,0,0,3-.38c1.11-.26,2.21-.55,3.31-.89a60.36,60.36,0,0,0,15.2-7.63,78.47,78.47,0,0,0,13-11.2A88.81,88.81,0,0,0,800,300.44a15.81,15.81,0,0,1,.83-1.46c.29-.47.57-1,.83-1.47q-3.69,2-7.51,3.88T786.41,305l-6.55,2.92q-4.26,1.92-9.16,4.33a106.27,106.27,0,0,0-9.35,5.21,47.59,47.59,0,0,0-7.69,5.73q-3.12,2.93-3.12,5.47a4,4,0,0,0,1.4,3.43A6.11,6.11,0,0,0,755.63,333.13Z"/><path class="d" d="M833.09,294.08q-6.62,0-9.22-3.88a15.91,15.91,0,0,1-2.61-9.09,27.55,27.55,0,0,1,1.91-9.1,48.8,48.8,0,0,1,5.28-10.37,34.19,34.19,0,0,1,7.82-8.46,15.56,15.56,0,0,1,9.54-3.37,7.4,7.4,0,0,1,5.28,1.85,6.07,6.07,0,0,1,2,4.64,17.83,17.83,0,0,1-3.43,10.3,27.46,27.46,0,0,1-8.9,8.15A22.92,22.92,0,0,1,829,277.92c-.51,0-1,0-1.52-.06s-1-.1-1.53-.19a17.38,17.38,0,0,0-.38,3.82,12.13,12.13,0,0,0,1.59,6.1c1.06,1.87,3.11,2.8,6.17,2.8a15.49,15.49,0,0,0,7.38-1.91,25.2,25.2,0,0,0,6-4.32q2.41-2.42,4.07-4.33t3.44-4.39c1.18-1.65,2.67-3.83,4.45-6.55a1.66,1.66,0,0,1,1.53-.89c1.18,0,1.78.64,1.78,1.91a1.81,1.81,0,0,1-.26,1,95.63,95.63,0,0,1-7.63,11.13,39.8,39.8,0,0,1-9.35,8.65A20.75,20.75,0,0,1,833.09,294.08ZM829.91,274a17.14,17.14,0,0,0,9.1-2.61,22.84,22.84,0,0,0,7-6.55,13.85,13.85,0,0,0,2.74-8,3.63,3.63,0,0,0-.7-2.29,2.83,2.83,0,0,0-2.35-.89,10.59,10.59,0,0,0-6.36,2.23,25.79,25.79,0,0,0-5.54,5.59,51.15,51.15,0,0,0-4.19,6.68,40.17,40.17,0,0,0-2.49,5.6,13.51,13.51,0,0,0,1.34.19C828.92,274,829.4,274,829.91,274Z"/><path class="d" d="M885,294.84a5.63,5.63,0,0,1-3.88-1.4c-1.06-.93-1.59-2.45-1.59-4.58a23.28,23.28,0,0,1,1.65-8.45,67.84,67.84,0,0,1,3.69-8l-.63-.13c-.85,1.1-2.06,2.61-3.63,4.51s-3.35,3.86-5.34,5.86a75.64,75.64,0,0,1-6.17,5.53,33.65,33.65,0,0,1-5,3.37,9.7,9.7,0,0,1-4.52,1.33,3.55,3.55,0,0,1-3-1.2,4.86,4.86,0,0,1-.89-3,27.34,27.34,0,0,1,.82-6.36,53.64,53.64,0,0,1,2-6.49l-1.72,2.42q-.83,1.14-1.59,2.16a1.66,1.66,0,0,1-1.53.89,2.11,2.11,0,0,1-1.59-.76,1.2,1.2,0,0,1-.06-1.66q1.65-2.42,4.39-6.48t5.53-8.53q2.79-4.44,4.71-7.76c.42-.76.82-1.46,1.2-2.09s.75-1.21,1.09-1.72a3.25,3.25,0,0,1,2.41-.89,2.58,2.58,0,0,1,1.91.76,1.37,1.37,0,0,1,.38,1v.13a1.11,1.11,0,0,1-.12.5c-.09.18-.18.34-.26.51l-.25.26q-2.43,5.22-5,10.36a94.34,94.34,0,0,0-4,8.84c-.26.68-.68,1.87-1.28,3.57s-1.14,3.45-1.65,5.28a17.12,17.12,0,0,0-.76,4.38c0,1.11.38,1.66,1.14,1.66a5.23,5.23,0,0,0,2.23-.83,23.87,23.87,0,0,0,3.75-2.86,107.84,107.84,0,0,0,7.76-7.51q3.69-3.93,7-8c.26-.34.92-1.16,2-2.48l3.69-4.58,4.07-5.09c1.31-1.65,2.39-3,3.24-4a4.37,4.37,0,0,1,3.56-1.53,2.39,2.39,0,0,1,1.53.51,1.84,1.84,0,0,1,.63,1.52,2.81,2.81,0,0,1-.12,1,23.61,23.61,0,0,1-3.88,7.57q-2.87,3.88-6.11,8.4A52.38,52.38,0,0,0,885,281.11c-.09.34-.3,1.12-.64,2.35a13.55,13.55,0,0,0-.5,3.62,5.53,5.53,0,0,0,.57,2.61,1.93,1.93,0,0,0,1.84,1.08q2.29,0,5.79-2.29a50.72,50.72,0,0,0,7.06-5.66q3.55-3.36,6.55-6.61a67.33,67.33,0,0,0,4.39-5.15,63.84,63.84,0,0,0,6.23-10.56,23.81,23.81,0,0,0,2.55-9.92c0-2.88-2.08-4.37-6.24-4.45-1.19,0-1.78-.51-1.78-1.53a1.6,1.6,0,0,1,.51-1.15,1.93,1.93,0,0,1,1.4-.5,12.57,12.57,0,0,1,7.19,2,6.52,6.52,0,0,1,2.6,5.6,25.4,25.4,0,0,1-2.67,10.68,70.49,70.49,0,0,1-6.36,10.94,76.2,76.2,0,0,1-9.73,11.19,81.3,81.3,0,0,1-12.15,9.29,21,21,0,0,1-3.24,1.53A9.73,9.73,0,0,1,885,294.84Z"/><path class="d" d="M927.73,294.08q-6.24,0-9.54-2.54t-3.31-5.35a4.81,4.81,0,0,1,1.72-3.62q1.71-1.59,5.79-1.59a29.69,29.69,0,0,1,6.1.76q2.67.64,5.66,1.65a17,17,0,0,0,6.17.9,6.56,6.56,0,0,0,1-2.29,16.52,16.52,0,0,0,.13-2.17,16.19,16.19,0,0,0-1.34-7,49.92,49.92,0,0,0-3-5.47,25.32,25.32,0,0,1-2.86-6.49q-1.66,2.81-4.2,7.31a119.86,119.86,0,0,1-8.4,12.28,1.63,1.63,0,0,1-1.52.64c-1.28,0-1.91-.56-1.91-1.66a2.33,2.33,0,0,1,.57-1.14q.57-.76,2.61-3.95c1.52-2.45,3.31-5.23,5.34-8.33a98.63,98.63,0,0,0,5.85-10.24,14.13,14.13,0,0,1,.89-4.2,21.3,21.3,0,0,1,1.78-3.68,11.11,11.11,0,0,1,2.93-3.37,5,5,0,0,1,2.8-1.09c1.61,0,2.41.94,2.41,2.8a12,12,0,0,1-1.52,5,10.74,10.74,0,0,1-2.29,3.25c-.94.89-1.74,1.67-2.42,2.35a15.35,15.35,0,0,0,1.53,5.72,47.57,47.57,0,0,0,2.86,5,30.28,30.28,0,0,1,2.73,5.21,17.66,17.66,0,0,1,1.15,6.74,12.31,12.31,0,0,1-.89,4.71,9.12,9.12,0,0,0,5.79-2.1,29.38,29.38,0,0,0,5.72-5.79,71.56,71.56,0,0,0,4.9-7.25,1.94,1.94,0,0,1,1.65-.89,2.49,2.49,0,0,1,1.27.38,1.36,1.36,0,0,1,.64,1.27,3.09,3.09,0,0,1-.38,1.28,53.94,53.94,0,0,1-7.06,10.24,19.76,19.76,0,0,1-6.81,5,24,24,0,0,1-7.63,1.65,24.58,24.58,0,0,1-6.8,4.52A20,20,0,0,1,927.73,294.08Zm-.64-3.05a13.38,13.38,0,0,0,5.09-.89,29.38,29.38,0,0,0,4.71-2.55,27.3,27.3,0,0,1-4.46-.95c-1.18-.38-2.71-.78-4.58-1.21a28.31,28.31,0,0,0-5.59-.76c-2.46,0-3.69.59-3.69,1.78,0,.93.81,1.93,2.42,3A10.87,10.87,0,0,0,927.09,291Z"/><path class="d" d="M959.91,292.93c-1.36,0-2-.59-2-1.78a20.6,20.6,0,0,1,1.08-2.79q1.08-2.55,2.61-5.86c1-2.2,2-4.26,2.8-6.16s1.4-3.12,1.65-3.63c-.08-.42-.31-1.29-.7-2.61a13.46,13.46,0,0,1-.57-3.75,4.92,4.92,0,0,1,.51-2.35,1.84,1.84,0,0,1,1.78-1,2.34,2.34,0,0,1,1.46.77,13,13,0,0,0,1.21,1,38.3,38.3,0,0,0,1.78-3.81c.51-1.27,1.06-2.55,1.66-3.82q4.32-10,8.26-19.52t8.65-19.4a4.6,4.6,0,0,1,1.72-1.78,3.91,3.91,0,0,1,2-.64c1.28,0,1.91.55,1.91,1.65a17.29,17.29,0,0,1-1.34,4.52q-1.32,3.49-3.56,8.33T986,240.46q-2.54,5.28-5,10.18t-4.19,8.46l-2.42,4.83.63.26a77.54,77.54,0,0,1,8.46-9.73,39.08,39.08,0,0,1,11-7.44,17.49,17.49,0,0,1,7.12-1.79,7.38,7.38,0,0,1,4.51,1.28,4,4,0,0,1,1.72,3.43q0,2.55-2.54,5.85a25.74,25.74,0,0,1-5.28,4.84,51.24,51.24,0,0,1-6.55,3.94,46.54,46.54,0,0,1-6,2.54,45.27,45.27,0,0,1-5.53,1.4c-1.83.34-3.71.68-5.66,1a4.49,4.49,0,0,0-2.61,1.21,4.38,4.38,0,0,0-1.46,2.1,31.36,31.36,0,0,0,2.79,6.87,22.75,22.75,0,0,0,5.22,6.55,11,11,0,0,0,7.38,2.73,11.25,11.25,0,0,0,7.57-2.92,39.77,39.77,0,0,0,6.48-7.44q3.12-4.51,6.55-9.23a2.06,2.06,0,0,1,1.66-.76h.25c.85,0,1.27.64,1.27,1.91a2.2,2.2,0,0,1-.38,1.14c-.93,1.45-2.16,3.31-3.69,5.6a70.77,70.77,0,0,1-5.28,6.93,31.57,31.57,0,0,1-6.67,5.92,14,14,0,0,1-7.76,2.41,16.89,16.89,0,0,1-8.59-2.16,19.43,19.43,0,0,1-6.23-5.66,25.49,25.49,0,0,1-3.63-7.19c-1.27,2.38-2.44,4.8-3.49,7.25a47,47,0,0,1-3.76,7,2.92,2.92,0,0,1-.82.76A2.13,2.13,0,0,1,959.91,292.93Zm19.71-27.72a48.07,48.07,0,0,0,6.55-1.47,46.56,46.56,0,0,0,7.45-2.86,22.34,22.34,0,0,0,6.1-4.2,12.65,12.65,0,0,0,2.16-2.86,5.9,5.9,0,0,0,.89-2.86,1.68,1.68,0,0,0-1.9-1.91c-1.28,0-3.35.81-6.24,2.42a46.7,46.7,0,0,0-8.33,6.17A50.8,50.8,0,0,0,979.62,265.21Z"/><path class="d" d="M1010.28,293.32q-4.2,0-5.79-2.23a9.06,9.06,0,0,1-1.59-5.41,21.61,21.61,0,0,1,1-6.36c.68-2.2,1.42-4.26,2.22-6.16s1.47-3.33,2-4.27a68.51,68.51,0,0,1,5.15-7.63,42.94,42.94,0,0,1,6.17-6.49,27.68,27.68,0,0,1,6.8-4.51,16.93,16.93,0,0,1,7.06-1.59q6.1,0,8.65,3.24a11,11,0,0,1,2.54,6.94,10,10,0,0,1-.38,2.67,17.21,17.21,0,0,1-1.21,3.3c-.46.94-1,1.4-1.71,1.4a2.16,2.16,0,0,1-1.66-.89,1.86,1.86,0,0,1-.51-1.78,10.48,10.48,0,0,1,.71-1.78,6.15,6.15,0,0,0,.57-1.78c.08-.42.14-.8.19-1.14a8.72,8.72,0,0,0,.06-1q0-3.44-2.22-4.77a9.15,9.15,0,0,0-4.77-1.34,12.8,12.8,0,0,0-6,1.66,24.33,24.33,0,0,0-5.4,3.81,63.52,63.52,0,0,0-5.6,6.49,55.28,55.28,0,0,0-4.83,7.5c-.17.43-.62,1.45-1.34,3.06a50.85,50.85,0,0,0-2,5.4,18.24,18.24,0,0,0-1,5.54,5.5,5.5,0,0,0,.83,3.05,3.14,3.14,0,0,0,2.86,1.27,9.12,9.12,0,0,0,5-2,47.07,47.07,0,0,0,5.85-5q3-3,5.4-5.79t3.56-4.32a22.67,22.67,0,0,0,1.47-2.23,21.86,21.86,0,0,1,1.46-2.22,1.82,1.82,0,0,1,1.53-.51,4.48,4.48,0,0,1,2.09.57,1.33,1.33,0,0,1,.83,1.59c-.34.59-1,1.89-1.84,3.88a66.26,66.26,0,0,0-2.48,6.49,20,20,0,0,0-1.15,6.17q0,3.3,2,3.81a3.74,3.74,0,0,0,3-1,18.75,18.75,0,0,0,2.92-2.92l2-2.42q2.67-3.56,5-7.31c1.57-2.5,3.16-4.86,4.77-7.06a2.2,2.2,0,0,1,1.78-1c1.19,0,1.78.64,1.78,1.91a10.27,10.27,0,0,1-1.65,3.24c-1.11,1.74-2.44,3.71-4,5.92s-3,4.19-4.39,6a51,51,0,0,1-4.58,5.21,8.78,8.78,0,0,1-6.49,2.54q-3.69,0-5-1.65a5.71,5.71,0,0,1-1.33-3.69,19.39,19.39,0,0,1,.38-3.75c.25-1.31.5-2.44.76-3.37l-.51-.38a41.37,41.37,0,0,1-3.43,3.56q-2.29,2.16-5.09,4.39a42.22,42.22,0,0,1-5.53,3.75A10.31,10.31,0,0,1,1010.28,293.32Z"/><path class="d" d="M1064.08,264.06a2.08,2.08,0,0,1-1.27-.38,2,2,0,0,1-.51-1.65c0-1.11.68-2,2-2.68a18.29,18.29,0,0,1,5.09-1.52,57.6,57.6,0,0,1,6-.7c1.95-.13,3.48-.19,4.58-.19a43.42,43.42,0,0,1,8,.76,49.54,49.54,0,0,1,7.88,2.16,3.07,3.07,0,0,1,.64.19q.51.19.51.45,0,1.65-2.67,1.65a7.32,7.32,0,0,1-2-.38,26.7,26.7,0,0,0-4.26-.7q-3-.31-9.09-.32a28.93,28.93,0,0,0-7.64.83,27.39,27.39,0,0,0-4.58,1.65A6.29,6.29,0,0,1,1064.08,264.06Z"/><path class="d" d="M1204.77,304.51a65.42,65.42,0,0,1-16.09-2,124.73,124.73,0,0,1-16-5.21q-8-3.18-15.52-6.74T1142.44,284a77.26,77.26,0,0,1-8.14,7.25,45,45,0,0,1-9.92,5.85,28.43,28.43,0,0,1-11.33,2.29,24.07,24.07,0,0,1-8.39-1.46,14.7,14.7,0,0,1-6.36-4.39,11.56,11.56,0,0,1,.44-14.69,17.51,17.51,0,0,1,7.25-4.45,28.48,28.48,0,0,1,9.1-1.47,49,49,0,0,1,13.48,2q7.13,2,13,4.2,3.69-4.45,6.93-9.16t6-9.54a32,32,0,0,1-15.71-5.6q-6.3-4.58-6.29-13.35a22,22,0,0,1,3.75-12.15,25,25,0,0,1,10.24-9,33.14,33.14,0,0,1,4.32-1.72,14.72,14.72,0,0,1,4.45-.82c1.36,0,2,.59,2,1.78,0,1-.59,1.65-1.78,1.9s-2.35.62-3.5.83a13.38,13.38,0,0,0-3.5,1.21,21.33,21.33,0,0,0-8.84,7.57,18.54,18.54,0,0,0-3.37,10.49,12.12,12.12,0,0,0,2.93,8.53,17,17,0,0,0,7.57,4.64,48.75,48.75,0,0,0,10,2q5-9.28,10.24-18.57a200.18,200.18,0,0,1,11.51-17.94q1.79-2.53,4.45-5.66a59.48,59.48,0,0,1,6-6,33.74,33.74,0,0,1,7.06-4.77,16.57,16.57,0,0,1,7.5-1.84q6,0,8.9,3.24a11.62,11.62,0,0,1,2.93,8.08,27.23,27.23,0,0,1-2.54,11.06,55.37,55.37,0,0,1-6.43,10.88,70.36,70.36,0,0,1-8,9,65,65,0,0,1-17.55,11.7,50.32,50.32,0,0,1-21.37,4.71q-3.18,5.21-6.61,10.3a103.34,103.34,0,0,1-7.51,9.79q6.73,3.06,13.86,6.49t14.63,6.55a111.61,111.61,0,0,0,15.27,5.09,63,63,0,0,0,15.52,2,29.89,29.89,0,0,0,7.31-.95,17.8,17.8,0,0,0,6.42-3,2.07,2.07,0,0,1,1.53-.64,2.23,2.23,0,0,1,1.53.57,1.67,1.67,0,0,1,.63,1.21,1.82,1.82,0,0,1-.63,1.27,15.88,15.88,0,0,1-4.14,2.61,30.4,30.4,0,0,1-5.4,1.91,20.6,20.6,0,0,1-5,.7Zm-91.33-8.78a24.4,24.4,0,0,0,9.79-2,41,41,0,0,0,8.59-5,70.38,70.38,0,0,0,7.18-6.24q-5.34-2.16-11.7-4.07a42.89,42.89,0,0,0-12.34-1.9,22.8,22.8,0,0,0-6.87,1.08,14,14,0,0,0-5.66,3.24,7.63,7.63,0,0,0-2.22,5.73,7,7,0,0,0,2,5.15,12.66,12.66,0,0,0,5,3A19.84,19.84,0,0,0,1113.44,295.73ZM1162,256.68a49.83,49.83,0,0,0,18.25-4.7,60.62,60.62,0,0,0,15.2-10.18,45.35,45.35,0,0,0,5.09-5.91,75.56,75.56,0,0,0,5-7.83,56.88,56.88,0,0,0,3.82-8.2,21.12,21.12,0,0,0,1.46-7.06,7.22,7.22,0,0,0-1.84-5.15c-1.23-1.32-3.12-2-5.66-2a12.89,12.89,0,0,0-6.36,1.78,29.21,29.21,0,0,0-6,4.45,60,60,0,0,0-5.09,5.47c-1.53,1.86-2.8,3.48-3.82,4.83a175.55,175.55,0,0,0-10.49,17Q1166.61,248.42,1162,256.68Z"/><path class="d" d="M1203.62,294.08q-6.61,0-9.22-3.88a15.91,15.91,0,0,1-2.61-9.09,27.55,27.55,0,0,1,1.91-9.1,48.8,48.8,0,0,1,5.28-10.37,34,34,0,0,1,7.82-8.46,15.56,15.56,0,0,1,9.54-3.37,7.44,7.44,0,0,1,5.28,1.85,6.11,6.11,0,0,1,2,4.64,17.84,17.84,0,0,1-3.44,10.3,27.26,27.26,0,0,1-8.9,8.15,22.91,22.91,0,0,1-11.7,3.17c-.51,0-1,0-1.53-.06s-1-.1-1.52-.19a16.76,16.76,0,0,0-.39,3.82,12.13,12.13,0,0,0,1.59,6.1q1.59,2.81,6.17,2.8a15.43,15.43,0,0,0,7.38-1.91,25.26,25.26,0,0,0,6-4.32q2.41-2.42,4.07-4.33c1.1-1.27,2.25-2.73,3.43-4.39s2.68-3.83,4.46-6.55a1.64,1.64,0,0,1,1.52-.89c1.19,0,1.78.64,1.78,1.91a1.81,1.81,0,0,1-.25,1,95.63,95.63,0,0,1-7.63,11.13,40,40,0,0,1-9.35,8.65A20.79,20.79,0,0,1,1203.62,294.08Zm-3.18-20.1a17.11,17.11,0,0,0,9.09-2.61,22.88,22.88,0,0,0,7-6.55,13.92,13.92,0,0,0,2.74-8,3.58,3.58,0,0,0-.71-2.29,2.82,2.82,0,0,0-2.35-.89,10.64,10.64,0,0,0-6.36,2.23,25.75,25.75,0,0,0-5.53,5.59,52.35,52.35,0,0,0-4.2,6.68,41.16,41.16,0,0,0-2.48,5.6,13.1,13.1,0,0,0,1.34.19C1199.44,274,1199.93,274,1200.44,274Z"/></svg>