<?xml version="1.0" encoding="UTF-8" standalone="no"?>
<!-- Generator: Adobe Illustrator 24.3.0, SVG Export Plug-In . SVG Version: 6.00 Build 0)  -->

<svg
   version="1.1"
   id="Слой_1"
   x="0px"
   y="0px"
   width="3987.5801"
   height="1998.5959"
   viewBox="0 0 3987.5801 1998.5959"
   enable-background="new 0 0 5000 3500"
   xml:space="preserve"
   sodipodi:docname="wynos.svg"
   inkscape:version="1.1.1 (3bf5ae0d25, 2021-09-20)"
   xmlns:inkscape="http://www.inkscape.org/namespaces/inkscape"
   xmlns:sodipodi="http://sodipodi.sourceforge.net/DTD/sodipodi-0.dtd"
   xmlns="http://www.w3.org/2000/svg"
   xmlns:svg="http://www.w3.org/2000/svg"
   xmlns:i="&amp;ns_ai;"><defs
   id="defs568">
	
	

		
		
		
		
		
		
		
	</defs><sodipodi:namedview
   id="namedview566"
   pagecolor="#ffffff"
   bordercolor="#666666"
   borderopacity="1.0"
   inkscape:pageshadow="2"
   inkscape:pageopacity="0.0"
   inkscape:pagecheckerboard="0"
   showgrid="false"
   inkscape:zoom="0.20514286"
   inkscape:cx="1991.2953"
   inkscape:cy="1001.7409"
   inkscape:window-width="1920"
   inkscape:window-height="991"
   inkscape:window-x="-9"
   inkscape:window-y="-9"
   inkscape:window-maximized="1"
   inkscape:current-layer="Слой_1" />
<g
   id="DRINK_1_"
   transform="translate(-507.45999,-751.95)">
			<polygon
   fill="#ff6e00"
   points="4054.13,1213.55 4105.34,1213.55 4188.17,1934.15 4136.96,1934.15 "
   id="polygon3" />
			<polygon
   fill="#ffffff"
   points="4063.016,1290.783 4108.346,1239.603 4111.246,1264.903 4065.926,1316.083 "
   id="polygon5" />
			<polygon
   fill="#ffffff"
   points="4070.336,1354.513 4115.666,1303.333 4118.576,1328.633 4073.246,1379.813 "
   id="polygon7" />
			<polygon
   fill="#ffffff"
   points="4077.666,1418.243 4122.996,1367.063 4125.896,1392.363 4080.576,1443.544 "
   id="polygon9" />
			<polygon
   fill="#ffffff"
   points="4084.986,1481.974 4130.316,1430.794 4133.226,1456.093 4087.896,1507.274 "
   id="polygon11" />
			<polygon
   fill="#ffffff"
   points="4092.316,1545.703 4137.646,1494.524 4140.546,1519.823 4095.226,1570.993 "
   id="polygon13" />
			<polygon
   fill="#ffffff"
   points="4099.636,1609.433 4144.966,1558.254 4147.876,1583.553 4102.546,1634.724 "
   id="polygon15" />
			<polygon
   fill="#ffffff"
   points="4106.966,1673.163 4152.296,1621.984 4155.206,1647.283 4109.876,1698.453 "
   id="polygon17" />
			<polygon
   fill="#ffffff"
   points="4114.296,1736.893 4159.616,1685.714 4162.526,1711.004 4117.196,1762.183 "
   id="polygon19" />
			<polygon
   fill="#ffffff"
   points="4121.616,1800.613 4166.946,1749.443 4169.856,1774.734 4124.526,1825.913 "
   id="polygon21" />
			<polygon
   fill="#ffffff"
   points="4128.946,1864.343 4174.266,1813.173 4177.176,1838.464 4131.846,1889.643 "
   id="polygon23" />
			<path
   fill="#a9d8d5"
   d="m 4444.22,1934.15 -84.62,742 c -4.71,40.97 -39.39,71.89 -80.63,71.89 h -276.26 c -41.24,0 -75.92,-30.92 -80.63,-71.89 l -85.12,-742 z"
   id="path25" />
			<polygon
   fill="#ffffff"
   points="4156.2,1934.15 4136.97,1934.15 4136.27,1928.07 4181.6,1876.9 4184.51,1902.19 "
   id="polygon27" />
			<path
   fill="none"
   stroke="#a9d8d5"
   stroke-width="5"
   stroke-miterlimit="10"
   d="M 4458.656,1814.373 4359.6,2676.15 c -4.709,40.969 -39.392,71.893 -80.63,71.893 h -276.267 c -41.238,0 -75.921,-30.925 -80.63,-71.893 l -99.056,-861.777 z"
   id="path29" />
			<g
   id="g43">
				<path
   fill="#f1b104"
   d="m 4068.659,2263.65 263.756,-189.228 c 33.825,73.775 14.492,161.353 -50.524,207.998 -65.016,46.644 -154.182,36.907 -213.232,-18.77 z"
   id="path31" />
				<path
   fill="#ff6e00"
   d="m 4236.705,2281.885 -23.473,-95.542 82.894,52.768 c -7.561,9.573 -16.548,18.239 -26.896,25.663 -10.229,7.337 -21.172,13.024 -32.525,17.111 z"
   id="path33" />
				<path
   fill="#ff6e00"
   d="m 4223.39,2172.923 102.328,-22.714 c 0.327,25.846 -6.106,51.221 -18.926,73.224 z"
   id="path35" />
				<path
   fill="#ff6e00"
   d="m 4142.854,2281.671 54.589,-90.135 21.188,95.45 c -25.046,5.237 -51.272,3.275 -75.777,-5.315 z"
   id="path37" />
				<path
   fill="#ff6e00"
   d="m 4120.768,2271.852 c -11.257,-6.136 -21.902,-13.811 -31.586,-22.934 l 91.21,-65.437 z"
   id="path39" />
				<path
   fill="#ff6e00"
   d="m 4219.732,2155.256 92.151,-66.112 c 5.604,12.212 9.484,24.885 11.667,37.657 z"
   id="path41" />
			</g>
			<path
   fill="none"
   stroke="#573240"
   stroke-width="5"
   stroke-linecap="round"
   stroke-miterlimit="10"
   d="m 4443.287,1765.12 h -604.902 c -27.202,0 -49.253,22.052 -49.253,49.254 v 0 h 703.408 v 0 c 0,-27.203 -22.051,-49.254 -49.253,-49.254 z"
   id="path45" />
			<path
   fill="none"
   stroke="#573240"
   stroke-width="5"
   stroke-linecap="round"
   stroke-miterlimit="10"
   d="M 4444.708,1765.12 C 4415.416,1640.268 4304.042,1552 4175.801,1552 h -69.931 c -128.241,0 -239.615,88.268 -268.906,213.119 h 607.744 z"
   id="path47" />
			<path
   fill="#e0f1f0"
   d="m 4232.025,2695.934 h -105.37 c -13.167,0 -23.84,-10.674 -23.84,-23.84 v -105.37 c 0,-13.167 10.673,-23.84 23.84,-23.84 h 105.37 c 13.167,0 23.84,10.674 23.84,23.84 v 105.37 c 0,13.166 -10.673,23.84 -23.84,23.84 z"
   id="path49" />
			<path
   fill="#e0f1f0"
   d="m 4316.496,2506.259 h -82.92 c -13.167,0 -23.84,-10.674 -23.84,-23.84 V 2399.5 c 0,-13.167 10.673,-23.84 23.84,-23.84 h 82.92 c 13.167,0 23.84,10.674 23.84,23.84 v 82.919 c 0,13.166 -10.674,23.84 -23.84,23.84 z"
   id="path51" />
			<path
   fill="#e0f1f0"
   d="m 4034.913,2569.996 h -82.92 c -13.167,0 -23.84,-10.674 -23.84,-23.84 v -82.919 c 0,-13.167 10.673,-23.84 23.84,-23.84 h 82.92 c 13.167,0 23.84,10.674 23.84,23.84 v 82.919 c 0,13.167 -10.674,23.84 -23.84,23.84 z"
   id="path53" />
			<circle
   fill="none"
   stroke="#ffffff"
   stroke-width="5"
   stroke-miterlimit="10"
   cx="4090.8291"
   cy="2170.2539"
   r="14.132"
   id="circle55" />
			<circle
   fill="none"
   stroke="#ffffff"
   stroke-width="5"
   stroke-miterlimit="10"
   cx="4016.488"
   cy="2377.0371"
   r="14.132"
   id="circle57" />
			<circle
   fill="none"
   stroke="#ffffff"
   stroke-width="5"
   stroke-miterlimit="10"
   cx="3982.355"
   cy="2048.0601"
   r="20"
   id="circle59" />
			<circle
   fill="none"
   stroke="#ffffff"
   stroke-width="5"
   stroke-miterlimit="10"
   cx="4322.5508"
   cy="2254.114"
   r="20"
   id="circle61" />
			<circle
   fill="none"
   stroke="#ffffff"
   stroke-width="5"
   stroke-miterlimit="10"
   cx="4160.1631"
   cy="2388.5371"
   r="11.5"
   id="circle63" />
			<circle
   fill="none"
   stroke="#ffffff"
   stroke-width="5"
   stroke-miterlimit="10"
   cx="4350.3071"
   cy="2294.3721"
   r="7.5"
   id="circle65" />
			<circle
   fill="none"
   stroke="#ffffff"
   stroke-width="5"
   stroke-miterlimit="10"
   cx="4273.0029"
   cy="2042.647"
   r="12.5"
   id="circle67" />
			<circle
   fill="none"
   stroke="#ffffff"
   stroke-width="5"
   stroke-miterlimit="10"
   cx="3944.5669"
   cy="2089.6919"
   r="7.5"
   id="circle69" />
			<circle
   fill="none"
   stroke="#ffffff"
   stroke-width="5"
   stroke-miterlimit="10"
   cx="3952.0669"
   cy="2323.3469"
   r="7.5"
   id="circle71" />
		</g><g
   id="PACKAGE"
   transform="translate(-507.45999,-751.95)">
			<polygon
   fill="#573240"
   points="2461.176,1008.103 2461.176,832.133 2541.346,751.954 2912.076,751.954 2992.256,832.133 2992.256,1008.103 2915.176,1008.103 2915.176,829.664 2538.256,829.664 2538.256,1008.103 "
   id="polygon74" />
			<path
   fill="#f1b104"
   d="M 2961.26,1008.11 V 832.13 l -80.18,-80.18 h -370.73 l -80.17,80.18 v 175.98 H 2121.8 l -200,1739.94 H 3266.5 V 1008.11 Z m -77.08,0 H 2507.26 V 829.66 h 376.92 z"
   id="path76" />
			<polygon
   fill="#573240"
   points="3266.496,1008.103 3307.496,1008.103 3507.496,2748.044 3266.496,2748.044 "
   id="polygon78" />
			<g
   id="g82">
				<path
   fill="#ffffff"
   d="m 2917.56,1583.73 c 0,131.2 -81.02,242.49 -193.3,281.52 v -213.32 c 0,-19.38 9.58,-37.56 25.71,-49.81 16.95,-12.87 28.17,-35.31 28.17,-60.84 0,-39.96 -27.48,-72.32 -61.37,-72.32 -33.89,0 -61.37,32.36 -61.37,72.32 0,25.53 11.22,47.97 28.17,60.84 16.13,12.25 25.71,30.43 25.71,49.81 v 218.05 c -23.44,6.65 -48.08,10.19 -73.51,10.19 -25.25,0 -49.72,-3.49 -73.01,-10.05 v -189.86 c 0,-19.38 9.58,-37.56 25.71,-49.81 9.42,-7.15 17.08,-17.28 22.02,-29.24 3.94,-9.54 6.15,-20.26 6.15,-31.59 v -93.17 c 0,-4.14 -3.35,-7.49 -7.49,-7.49 h -0.01 c -4.13,0 -7.49,3.35 -7.49,7.49 v 101.01 c 0,5.37 -2.17,10.23 -5.69,13.75 -3.52,3.52 -8.38,5.7 -13.75,5.7 -10.74,0 -19.45,-8.71 -19.45,-19.45 v -101.01 c 0,-2.07 -0.84,-3.94 -2.19,-5.3 -1.36,-1.35 -3.23,-2.19 -5.3,-2.19 -4.14,0 -7.49,3.35 -7.49,7.49 v 101.01 c 0,10.74 -8.7,19.45 -19.44,19.45 h -0.01 c -10.74,0 -19.45,-8.71 -19.45,-19.45 v -101.01 c 0,-2.07 -0.84,-3.94 -2.19,-5.3 -1.36,-1.35 -3.23,-2.19 -5.3,-2.19 -4.14,0 -7.49,3.35 -7.49,7.49 v 93.17 c 0,11.33 2.21,22.05 6.15,31.59 4.94,11.96 12.59,22.09 22.01,29.24 16.14,12.25 25.72,30.43 25.72,49.81 v 185.17 c -112.54,-38.88 -193.8,-150.31 -193.8,-281.7 0,-163.72 126.16,-296.45 281.79,-296.45 155.63,0 281.79,132.73 281.79,296.45 z"
   id="path80" />
			</g>
			
				<line
   fill="none"
   stroke="#573240"
   stroke-width="5"
   stroke-linecap="round"
   stroke-miterlimit="10"
   x1="2430.176"
   y1="831.133"
   x2="2961.2561"
   y2="831.133"
   id="line84" />
		</g><g
   id="SALAD"
   transform="translate(-507.45999,-751.95)">
			<g
   id="g89">
				<path
   fill="#f1b104"
   stroke="#573240"
   stroke-width="5"
   stroke-linecap="round"
   stroke-miterlimit="10"
   d="m 3635.033,2445.774 -108.58,-218.08 c -25.38,-50.97 -77.41,-83.19 -134.35,-83.19 h -705.69 c -56.94,0 -108.97,32.22 -134.35,83.19 l -108.58,218.08 z"
   id="path87" />
			</g>
			<g
   id="g95">
				<path
   fill="#ffffff"
   d="m 3427.913,2514.264 c -56.237,60.029 -128.912,83.317 -182.042,33.542 -53.131,-49.774 -34.628,-123.812 21.609,-183.842 56.237,-60.029 147.545,-85.512 191.847,-44.008 44.303,41.504 24.823,134.279 -31.414,194.308 z"
   id="path91" />
				
					<circle
   transform="matrix(0.1922,-0.9813,0.9813,0.1922,283.7111,5251.7959)"
   fill="#f1b104"
   cx="3332.0869"
   cy="2453.5559"
   id="ellipse93"
   r="68.883003" />
			</g>
			<g
   id="g101">
				<path
   fill="#ffffff"
   d="m 4056.549,2395.163 c 19.978,63.583 7.483,124.142 -48.793,141.823 -56.276,17.682 -101.161,-24.848 -121.139,-88.431 -19.978,-63.583 -1.615,-138.165 45.31,-152.909 46.925,-14.743 104.644,35.934 124.622,99.517 z"
   id="path97" />
				
					<circle
   transform="matrix(0.7071,-0.7071,0.7071,0.7071,-559.9526,3525.4026)"
   fill="#f1b104"
   cx="3975.561"
   cy="2438.624"
   id="ellipse99"
   r="55.812" />
			</g>
			<g
   id="g113">
				<path
   fill="#ff6e00"
   d="m 2974.27,2523.483 -243.051,-133.998 c 40.691,-46.318 112.531,-58.4 172.443,-25.37 59.912,33.031 88.054,100.234 70.608,159.368 z"
   id="path103" />
				
					<path
   fill="none"
   stroke="#573240"
   stroke-width="4"
   stroke-linecap="round"
   stroke-linejoin="round"
   stroke-miterlimit="10"
   d="m 2883.756,2423.483 c -4.24,7.691 -23.339,19.085 -23.339,19.085 0,0 -0.56,-22.233 3.68,-29.924 4.24,-7.691 12.078,-11.499 17.507,-8.506 5.428,2.993 6.392,11.654 2.152,19.345 z"
   id="path105" />
				<g
   id="g111">
					
						<path
   fill="none"
   stroke="#573240"
   stroke-width="4"
   stroke-linecap="round"
   stroke-linejoin="round"
   stroke-miterlimit="10"
   d="m 2908.437,2462.686 c -8.711,1.111 -29.177,-7.594 -29.177,-7.594 0,0 17.625,-13.563 26.337,-14.674 8.712,-1.111 16.409,2.973 17.194,9.123 0.784,6.148 -5.643,12.034 -14.354,13.145 z"
   id="path107" />
					
						<path
   fill="none"
   stroke="#573240"
   stroke-width="4"
   stroke-linecap="round"
   stroke-linejoin="round"
   stroke-miterlimit="10"
   d="m 2817.771,2412.701 c 3.711,7.96 21.997,20.618 21.997,20.618 0,0 2.061,-22.144 -1.65,-30.104 -3.711,-7.96 -11.274,-12.289 -16.892,-9.669 -5.618,2.62 -7.166,11.195 -3.455,19.155 z"
   id="path109" />
				</g>
			</g>
			<g
   id="g125">
				<path
   fill="#ff6e00"
   d="m 3637.531,2477.123 201.474,-172.266 c 27.41,52.616 13.825,121.407 -35.838,163.871 -49.664,42.464 -118.957,44.535 -165.636,8.395 z"
   id="path115" />
				
					<path
   fill="none"
   stroke="#573240"
   stroke-width="4"
   stroke-linecap="round"
   stroke-linejoin="round"
   stroke-miterlimit="10"
   d="m 3757.113,2430.294 c -5.404,-6.473 -9.068,-27.592 -9.068,-27.592 0,0 19.961,7.185 25.365,13.658 5.403,6.473 6.135,14.84 1.635,18.688 -4.5,3.848 -12.529,1.72 -17.932,-4.754 z"
   id="path117" />
				<g
   id="g123">
					
						<path
   fill="none"
   stroke="#573240"
   stroke-width="4"
   stroke-linecap="round"
   stroke-linejoin="round"
   stroke-miterlimit="10"
   d="m 3713.891,2438.936 c 1.962,-8.219 16.635,-23.616 16.635,-23.616 0,0 6.093,20.543 4.131,28.762 -1.962,8.219 -8.201,13.731 -13.935,12.31 -5.735,-1.421 -8.793,-9.236 -6.831,-17.456 z"
   id="path119" />
					
						<path
   fill="none"
   stroke="#573240"
   stroke-width="4"
   stroke-linecap="round"
   stroke-linejoin="round"
   stroke-miterlimit="10"
   d="m 3789.048,2374.675 c -8.335,0.585 -25.785,12.654 -25.785,12.654 0,0 18.995,9.511 27.33,8.927 8.335,-0.585 14.746,-5.89 14.32,-11.849 -0.426,-5.959 -7.53,-10.317 -15.865,-9.732 z"
   id="path121" />
				</g>
			</g>
			<g
   id="g133">
				<path
   fill="#a9d8d5"
   d="m 3286.187,2480.888 c 0,0 -77.31,-35.442 -73.784,-140.338 3.526,-104.896 97.254,-138.396 114.773,-105.595 11.515,21.559 -1.99,48.356 -39.524,62.222 -42.508,15.705 -67.791,28.813 -61.648,78.814 5.55,45.179 26.466,79.334 60.183,104.897 z"
   id="path127" />
				
					<path
   fill="none"
   stroke="#573240"
   stroke-width="4"
   stroke-linecap="round"
   stroke-linejoin="round"
   stroke-miterlimit="10"
   d="m 3286.187,2480.888 c 0,0 -89.03,-60.161 -55.983,-158.195 27.504,-81.591 82.143,-74.433 82.143,-74.433"
   id="path129" />
				
					<path
   fill="none"
   stroke="#573240"
   stroke-width="4"
   stroke-linecap="round"
   stroke-linejoin="round"
   stroke-miterlimit="10"
   d="m 3244.368,2291.482 c 5.729,-8.103 10.855,-21.582 8.156,-37.512"
   id="path131" />
			</g>
			<g
   id="g151">
				<circle
   fill="#a9d8d5"
   cx="3106.168"
   cy="2431.959"
   r="81.931999"
   id="circle135" />
				<g
   id="g149">
					<g
   id="g141">
						
							<path
   fill="none"
   stroke="#573240"
   stroke-width="4"
   stroke-linecap="round"
   stroke-linejoin="round"
   stroke-miterlimit="10"
   d="m 3118.436,2400.525 c -0.795,6.065 -10.284,18.307 -10.284,18.307 0,0 -6.014,-14.274 -5.219,-20.339 0.795,-6.064 4.91,-10.526 9.19,-9.965 4.282,0.561 7.107,5.933 6.313,11.997 z"
   id="path137" />
						
							<path
   fill="none"
   stroke="#573240"
   stroke-width="4"
   stroke-linecap="round"
   stroke-linejoin="round"
   stroke-miterlimit="10"
   d="m 3094.285,2464.482 c 0.795,-6.065 10.284,-18.307 10.284,-18.307 0,0 6.014,14.274 5.219,20.339 -0.795,6.064 -4.91,10.526 -9.19,9.965 -4.282,-0.561 -7.108,-5.932 -6.313,-11.997 z"
   id="path139" />
					</g>
					<g
   id="g147">
						
							<path
   fill="none"
   stroke="#573240"
   stroke-width="4"
   stroke-linecap="round"
   stroke-linejoin="round"
   stroke-miterlimit="10"
   d="m 3074.382,2420.428 c 6.064,0.795 18.307,10.284 18.307,10.284 0,0 -14.274,6.014 -20.339,5.219 -6.065,-0.795 -10.526,-4.909 -9.965,-9.19 0.561,-4.282 5.932,-7.108 11.997,-6.313 z"
   id="path143" />
						
							<path
   fill="none"
   stroke="#573240"
   stroke-width="4"
   stroke-linecap="round"
   stroke-linejoin="round"
   stroke-miterlimit="10"
   d="m 3138.339,2444.579 c -6.064,-0.795 -18.307,-10.284 -18.307,-10.284 0,0 14.274,-6.014 20.339,-5.219 6.065,0.795 10.526,4.909 9.965,9.19 -0.562,4.282 -5.933,7.108 -11.997,6.313 z"
   id="path145" />
					</g>
				</g>
			</g>
			<circle
   fill="#ffffff"
   cx="2555.866"
   cy="2450.959"
   r="48.669998"
   id="circle153" />
			<g
   id="g167">
				<g
   id="g159">
					<path
   fill="#a9d8d5"
   d="m 2732.951,2445.919 c -19.967,-0.669 -42.176,-6.58 -67.038,-15.26 -99.134,-34.639 -98.525,-124.601 -66.841,-132.188 24.803,-5.947 43.434,17.544 45.482,57.53 2.332,45.281 10.647,77.322 60.229,86.362 9.431,1.714 18.855,2.936 28.168,3.556 z"
   id="path155" />
					
						<path
   fill="none"
   stroke="#573240"
   stroke-width="4"
   stroke-linecap="round"
   stroke-linejoin="round"
   stroke-miterlimit="10"
   d="m 2746.95,2446.125 c -28.163,1.555 -60.623,-4.169 -92.394,-26.468 -52.213,-36.647 -50.067,-103.945 -50.067,-103.945"
   id="path157" />
				</g>
				<g
   id="g165">
					<path
   fill="#a9d8d5"
   d="m 2740.113,2444.899 c 3.671,0.602 -55.733,-4.815 -71.962,-56.55 -12.077,-38.5 17.832,-47.422 29.825,-35.309 13.373,13.506 2.968,50.538 19.939,75.104 4.922,7.122 4.249,13.81 22.198,16.755 z"
   id="path161" />
					
						<path
   fill="none"
   stroke="#573240"
   stroke-width="4"
   stroke-linecap="round"
   stroke-linejoin="round"
   stroke-miterlimit="10"
   d="m 2687.123,2364.437 c 0,0 -8.735,65.359 59.827,81.687"
   id="path163" />
				</g>
			</g>
			<g
   id="g181">
				<g
   id="g173">
					<path
   fill="#a9d8d5"
   d="m 3586.545,2447.419 c -4.345,0.891 -8.163,0.694 -11.582,-0.321 32.09,-14.511 42.834,-46.02 50.491,-87.162 8.979,-48.299 36.252,-73.987 66.611,-62.935 38.79,14.108 25.165,123.581 -105.52,150.418 z"
   id="path169" />
					
						<path
   fill="none"
   stroke="#573240"
   stroke-width="4"
   stroke-linecap="round"
   stroke-linejoin="round"
   stroke-miterlimit="10"
   d="m 3467.207,2461.913 c 35.709,3.479 98.811,-1.713 140.491,-27.238 68.499,-41.948 68.603,-117.21 68.603,-117.21"
   id="path171" />
				</g>
				<g
   id="g179">
					<path
   fill="#a9d8d5"
   d="m 3475.969,2460.795 c -4.702,0.532 71.125,-2.777 94.758,-65.21 17.587,-46.461 -19.914,-59.057 -35.862,-44.898 -17.783,15.788 -6.707,61.709 -29.707,90.835 -6.669,8.446 -6.202,16.671 -29.189,19.273 z"
   id="path175" />
					
						<path
   fill="none"
   stroke="#573240"
   stroke-width="4"
   stroke-linecap="round"
   stroke-linejoin="round"
   stroke-miterlimit="10"
   d="m 3548,2365.249 c 0,0 7.308,80.508 -80.793,96.664"
   id="path177" />
				</g>
			</g>
			<g
   id="g187">
				<path
   fill="none"
   stroke="#573240"
   stroke-width="5"
   stroke-linecap="round"
   stroke-miterlimit="10"
   d="m 4116.033,2445.774 -108.58,-218.08 c -25.38,-50.97 -77.41,-83.19 -134.35,-83.19 h -481 c 56.94,0 108.97,32.22 134.35,83.19 l 108.58,218.08 z"
   id="path183" />
				<path
   fill="none"
   stroke="#573240"
   stroke-width="5"
   stroke-linecap="round"
   stroke-miterlimit="10"
   d="m 3635.033,2445.774 -108.58,-218.08 c -25.38,-50.97 -77.41,-83.19 -134.35,-83.19 h -705.69 c -56.94,0 -108.97,32.22 -134.35,83.19 l -108.58,218.08 z"
   id="path185" />
			</g>
			<rect
   x="2827.814"
   y="2144.5039"
   fill="#573240"
   width="345.82401"
   height="165.94"
   id="rect189" />
			<g
   id="g197">
				<path
   fill="#ffffff"
   d="m 3635.033,2446.774 -108.583,218.084 c -25.376,50.967 -77.408,83.186 -134.344,83.186 h -705.698 c -56.935,0 -108.968,-32.219 -134.344,-83.186 l -108.582,-218.084 z"
   id="path191" />
				<path
   fill="#ffffff"
   d="m 4116.033,2445.774 -108.58,218.08 c -25.38,50.97 -77.41,83.19 -134.35,83.19 h -481 c 56.94,0 108.97,-32.22 134.35,-83.19 l 108.58,-218.08 z"
   id="path193" />
				<path
   fill="#ffffff"
   d="m 4116.03,2445.77 -108.58,218.08 c -25.38,50.97 -77.41,83.19 -134.35,83.19 H 2686.41 c -56.94,0 -108.97,-32.22 -134.35,-83.19 l -108.58,-218.08 z"
   id="path195" />
			</g>
			<path
   fill="none"
   stroke="#573240"
   stroke-width="5"
   stroke-linecap="round"
   stroke-miterlimit="10"
   d="m 4007.453,2663.854 c -25.38,50.97 -77.41,83.19 -134.35,83.19 h -481 c 56.94,0 108.97,-32.22 134.35,-83.19 l 108.58,-218.08"
   id="path199" />
			<path
   fill="none"
   stroke="#573240"
   stroke-width="5"
   stroke-linecap="round"
   stroke-miterlimit="10"
   d="m 3635.033,2445.774 -108.58,218.08 c -25.38,50.97 -77.41,83.19 -134.35,83.19 h -735.69"
   id="path201" />
			
				<line
   fill="none"
   stroke="#573240"
   stroke-width="5"
   stroke-linecap="round"
   stroke-miterlimit="10"
   x1="2409.124"
   y1="2446.7739"
   x2="4150.3921"
   y2="2446.7739"
   id="line203" />
			<g
   id="g223">
				<g
   id="g213">
					<path
   fill="none"
   stroke="#a9d8d5"
   stroke-width="4"
   stroke-miterlimit="10"
   d="m 3031.292,2251.927 h -29.762 v -29.762 c 0,-30.893 25.044,-55.937 55.937,-55.937 h 29.762 v 29.762 c 0,30.893 -25.044,55.937 -55.937,55.937 z"
   id="path205" />
					
						<line
   fill="none"
   stroke="#a9d8d5"
   stroke-width="4"
   stroke-miterlimit="10"
   x1="3087.229"
   y1="2166.228"
   x2="2981.842"
   y2="2271.615"
   id="line207" />
					<polyline
   fill="none"
   stroke="#a9d8d5"
   stroke-width="4"
   stroke-miterlimit="10"
   points="3055.302,2167.228 3055.302,2198.155        3086.229,2198.155      "
   id="polyline209" />
					<polyline
   fill="none"
   stroke="#a9d8d5"
   stroke-width="4"
   stroke-miterlimit="10"
   points="3025.967,2176.422 3025.967,2227.49        3077.035,2227.49      "
   id="polyline211" />
				</g>
				<g
   id="g221">
					<path
   fill="none"
   stroke="#a9d8d5"
   stroke-width="4"
   stroke-miterlimit="10"
   d="m 2976.355,2254.081 h 7.811 v -7.811 c 0,-30.893 -25.044,-55.937 -55.937,-55.937 h -7.811 v 7.811 c 0,30.893 25.044,55.937 55.937,55.937 z"
   id="path215" />
					
						<line
   fill="none"
   stroke="#a9d8d5"
   stroke-width="4"
   stroke-miterlimit="10"
   x1="2920.418"
   y1="2190.334"
   x2="2991.771"
   y2="2261.686"
   id="line217" />
					<polyline
   fill="none"
   stroke="#a9d8d5"
   stroke-width="4"
   stroke-miterlimit="10"
   points="2960.988,2200.916 2960.988,2230.903        2931.001,2230.903      "
   id="polyline219" />
				</g>
			</g>
		</g><g
   id="SMALL_BOX"
   transform="translate(-507.45999,-751.95)">
			<g
   id="g228">
				<path
   fill="#573240"
   d="m 3759.125,1919.405 -76.8,154.257 c -20.816,41.804 -63.489,68.229 -110.189,68.229 h -203.591 c 46.7,0 89.374,-26.426 110.189,-68.229 l 76.8,-154.257 z"
   id="path226" />
			</g>
			<g
   id="g234">
				<path
   fill="#ff6e00"
   d="m 3555.534,1919.405 -8.169,16.403 -68.631,137.854 c -20.816,41.804 -63.489,68.229 -110.189,68.229 H 3076.82 c -46.7,0 -89.374,-26.426 -110.189,-68.229 L 2898,1935.808 l -8.169,-16.403 z"
   id="path230" />
				<polygon
   fill="#573240"
   points="2902.166,1943.772 2889.83,1919.405 3555.534,1919.405 3543.532,1943.772 "
   id="polygon232" />
			</g>
			<g
   id="g240">
				<path
   fill="#fcd4d0"
   d="m 3787.901,1919.407 -92.309,-185.401 c -21.577,-43.332 -65.81,-70.724 -114.218,-70.724 h -211.4 c 48.408,0 92.641,27.392 114.218,70.724 l 92.309,185.401 z"
   id="path236" />
				<path
   fill="#ffffff"
   d="m 3576.501,1919.407 -92.309,-185.401 c -21.577,-43.332 -65.81,-70.724 -114.218,-70.724 h -302.39 c -48.407,0 -92.641,27.392 -114.218,70.724 l -92.309,185.401 z"
   id="path238" />
			</g>
		</g><g
   id="DONUTS"
   transform="translate(-507.45999,-751.95)">
			<path
   fill="#f6acc1"
   d="m 1990.513,1731.204 -68.057,592.14 h -927 l 69.82,-607.48 h 911.559 c 8.226,-10e-4 14.617,7.167 13.678,15.34 z"
   id="path243" />
			<path
   fill="#fcd4d0"
   d="m 1850.576,1715.863 c -10.998,0 -20.248,8.248 -21.504,19.174 l -7.034,61.194 c -5.489,47.749 -45.912,83.792 -93.976,83.792 H 991.497 c -56.523,0 -100.431,-49.244 -93.976,-105.397 l 5.068,-44.087 c 0.961,-8.363 8.042,-14.676 16.46,-14.676 z"
   id="path245" />
			<g
   id="g341">
				<g
   id="g251">
					<ellipse
   fill="#573240"
   cx="1563.6379"
   cy="2439.4729"
   rx="288.65302"
   ry="294.35001"
   id="ellipse247" />
					<path
   fill="#a9d8d5"
   d="m 1512.64,2145.12 c -159.42,0 -288.66,131.79 -288.66,294.35 0,162.57 129.24,294.35 288.66,294.35 159.42,0 288.65,-131.78 288.65,-294.35 0,-162.56 -129.23,-294.35 -288.65,-294.35 z m 0,395.64 c -53.67,0 -97.17,-44.37 -97.17,-99.09 0,-54.72 43.5,-99.09 97.17,-99.09 53.66,0 97.17,44.37 97.17,99.09 0,54.72 -43.51,99.09 -97.17,99.09 z"
   id="path249" />
				</g>
				<g
   id="g339">
					<g
   id="g279">
						<path
   fill="#ffffff"
   d="m 1555.259,2197.113 h -24.64 c -2.749,0 -4.977,-2.228 -4.977,-4.977 v -0.34 c 0,-2.749 2.228,-4.977 4.977,-4.977 h 24.64 c 2.749,0 4.977,2.228 4.977,4.977 v 0.34 c 0,2.748 -2.228,4.977 -4.977,4.977 z"
   id="path253" />
						<path
   fill="#573240"
   d="m 1594.974,2302.423 h -24.64 c -2.749,0 -4.977,-2.228 -4.977,-4.977 v -0.34 c 0,-2.749 2.228,-4.977 4.977,-4.977 h 24.64 c 2.749,0 4.977,2.228 4.977,4.977 v 0.34 c 0,2.749 -2.228,4.977 -4.977,4.977 z"
   id="path255" />
						<path
   fill="#ffffff"
   d="m 1389.374,2239.625 -20.834,13.156 c -2.324,1.468 -5.398,0.773 -6.865,-1.551 l -0.182,-0.288 c -1.468,-2.324 -0.773,-5.398 1.551,-6.865 l 20.834,-13.156 c 2.324,-1.468 5.398,-0.773 6.865,1.551 l 0.182,0.288 c 1.468,2.324 0.773,5.398 -1.551,6.865 z"
   id="path257" />
						<path
   fill="#ffffff"
   d="m 1710.268,2289.761 -13.446,20.648 c -1.5,2.303 -4.583,2.955 -6.886,1.455 l -0.285,-0.186 c -2.303,-1.5 -2.955,-4.583 -1.455,-6.886 l 13.446,-20.648 c 1.5,-2.303 4.583,-2.955 6.886,-1.455 l 0.285,0.186 c 2.304,1.499 2.955,4.582 1.455,6.886 z"
   id="path259" />
						<path
   fill="#ffffff"
   d="m 1504.247,2286.815 -20.834,13.156 c -2.324,1.468 -5.398,0.773 -6.865,-1.551 l -0.182,-0.288 c -1.468,-2.324 -0.773,-5.398 1.551,-6.865 l 20.834,-13.156 c 2.324,-1.468 5.398,-0.773 6.865,1.551 l 0.182,0.288 c 1.467,2.324 0.773,5.398 -1.551,6.865 z"
   id="path261" />
						<path
   fill="#573240"
   d="m 1451.714,2218.431 -14.364,-20.021 c -1.602,-2.233 -1.091,-5.343 1.143,-6.945 l 0.277,-0.198 c 2.233,-1.602 5.343,-1.091 6.945,1.143 l 14.364,20.021 c 1.602,2.233 1.091,5.343 -1.143,6.945 l -0.277,0.198 c -2.233,1.602 -5.343,1.09 -6.945,-1.143 z"
   id="path263" />
						<path
   fill="#ff6e00"
   d="m 1651.172,2295.2 -14.364,-20.021 c -1.602,-2.233 -1.091,-5.343 1.143,-6.945 l 0.277,-0.198 c 2.233,-1.602 5.343,-1.091 6.945,1.143 l 14.364,20.021 c 1.602,2.233 1.091,5.343 -1.143,6.945 l -0.277,0.198 c -2.233,1.602 -5.343,1.09 -6.945,-1.143 z"
   id="path265" />
						<path
   fill="#ff6e00"
   d="m 1341.636,2302.987 -19.158,-15.495 c -2.137,-1.729 -2.468,-4.862 -0.74,-7 l 0.214,-0.265 c 1.729,-2.137 4.862,-2.469 6.999,-0.74 l 19.158,15.495 c 2.137,1.729 2.469,4.862 0.74,7 l -0.214,0.265 c -1.728,2.137 -4.861,2.469 -6.999,0.74 z"
   id="path267" />
						<path
   fill="#ffffff"
   d="m 1638.858,2232.931 -19.158,-15.495 c -2.137,-1.729 -2.469,-4.862 -0.74,-6.999 l 0.214,-0.265 c 1.729,-2.137 4.862,-2.469 7,-0.74 l 19.158,15.495 c 2.137,1.729 2.469,4.862 0.74,7 l -0.214,0.265 c -1.729,2.136 -4.863,2.468 -7,0.739 z"
   id="path269" />
						<path
   fill="#f1b104"
   d="m 1413.603,2297.001 4.195,-24.281 c 0.468,-2.708 3.043,-4.525 5.752,-4.057 l 0.335,0.058 c 2.709,0.468 4.525,3.043 4.057,5.752 l -4.195,24.28 c -0.468,2.708 -3.043,4.525 -5.752,4.057 l -0.335,-0.058 c -2.709,-0.467 -4.525,-3.042 -4.057,-5.751 z"
   id="path271" />
						<path
   fill="#f1b104"
   d="m 1383.696,2382.855 4.195,-24.281 c 0.468,-2.708 3.043,-4.525 5.752,-4.057 l 0.335,0.058 c 2.709,0.468 4.525,3.043 4.057,5.752 l -4.195,24.28 c -0.468,2.708 -3.043,4.525 -5.752,4.057 l -0.335,-0.058 c -2.709,-0.468 -4.525,-3.043 -4.057,-5.751 z"
   id="path273" />
						<path
   fill="#ff6e00"
   d="m 1494.385,2238.203 19.354,-15.25 c 2.159,-1.701 5.288,-1.33 6.99,0.829 l 0.211,0.268 c 1.701,2.159 1.33,5.288 -0.829,6.99 l -19.354,15.25 c -2.159,1.701 -5.288,1.33 -6.99,-0.829 l -0.211,-0.267 c -1.701,-2.16 -1.33,-5.289 0.829,-6.991 z"
   id="path275" />
						<path
   fill="#f1b104"
   d="m 1571.708,2249.454 4.195,-24.28 c 0.468,-2.708 3.043,-4.525 5.752,-4.057 l 0.335,0.058 c 2.709,0.468 4.525,3.043 4.057,5.752 l -4.195,24.28 c -0.468,2.708 -3.043,4.525 -5.752,4.057 l -0.335,-0.058 c -2.709,-0.469 -4.525,-3.044 -4.057,-5.752 z"
   id="path277" />
					</g>
					<g
   id="g311">
						<path
   fill="#ffffff"
   d="m 1686.799,2596.906 14.658,-19.806 c 1.635,-2.209 4.752,-2.675 6.961,-1.04 l 0.274,0.203 c 2.209,1.635 2.675,4.752 1.04,6.961 l -14.658,19.806 c -1.635,2.209 -4.752,2.675 -6.961,1.04 l -0.274,-0.202 c -2.209,-1.636 -2.675,-4.752 -1.04,-6.962 z"
   id="path281" />
						<path
   fill="#573240"
   d="m 1589.989,2559.342 14.658,-19.806 c 1.635,-2.209 4.752,-2.675 6.961,-1.04 l 0.274,0.203 c 2.209,1.635 2.675,4.752 1.04,6.961 l -14.658,19.806 c -1.635,2.209 -4.752,2.675 -6.961,1.04 l -0.274,-0.202 c -2.209,-1.637 -2.675,-4.753 -1.04,-6.962 z"
   id="path283" />
						<path
   fill="#ffffff"
   d="m 1751.308,2438.276 1.819,-24.573 c 0.203,-2.741 2.589,-4.799 5.331,-4.596 l 0.34,0.025 c 2.741,0.203 4.799,2.589 4.596,5.331 l -1.819,24.573 c -0.203,2.741 -2.59,4.799 -5.331,4.596 l -0.339,-0.025 c -2.742,-0.204 -4.8,-2.59 -4.597,-5.331 z"
   id="path285" />
						<path
   fill="#ffffff"
   d="m 1615.451,2360.915 1.819,-24.573 c 0.203,-2.741 2.59,-4.799 5.331,-4.596 l 0.339,0.025 c 2.741,0.203 4.799,2.59 4.596,5.331 l -1.819,24.573 c -0.203,2.741 -2.589,4.799 -5.331,4.596 l -0.34,-0.025 c -2.74,-0.203 -4.798,-2.59 -4.595,-5.331 z"
   id="path287" />
						<path
   fill="#ffffff"
   d="m 1534.555,2682.608 -8.599,-23.091 c -0.959,-2.576 0.351,-5.442 2.927,-6.401 l 0.319,-0.119 c 2.576,-0.959 5.442,0.351 6.401,2.927 l 8.599,23.091 c 0.959,2.576 -0.351,5.442 -2.927,6.401 l -0.319,0.119 c -2.576,0.959 -5.441,-0.351 -6.401,-2.927 z"
   id="path289" />
						<path
   fill="#ffffff"
   d="m 1645.04,2502.54 1.819,-24.573 c 0.203,-2.741 2.59,-4.799 5.331,-4.596 l 0.339,0.025 c 2.741,0.203 4.799,2.59 4.596,5.331 l -1.819,24.573 c -0.203,2.741 -2.589,4.799 -5.331,4.596 l -0.339,-0.025 c -2.741,-0.204 -4.798,-2.59 -4.596,-5.331 z"
   id="path291" />
						<path
   fill="#573240"
   d="m 1731.26,2500.993 24.637,0.364 c 2.748,0.041 4.943,2.302 4.903,5.05 v 0.34 c -0.041,2.748 -2.302,4.944 -5.05,4.903 l -24.637,-0.364 c -2.748,-0.041 -4.943,-2.302 -4.903,-5.05 l 0.01,-0.341 c 0.04,-2.747 2.301,-4.942 5.05,-4.902 z"
   id="path293" />
						<path
   fill="#573240"
   d="m 1493.343,2584.737 24.637,0.364 c 2.748,0.041 4.943,2.302 4.903,5.05 l -0.01,0.341 c -0.041,2.748 -2.302,4.943 -5.05,4.903 l -24.638,-0.364 c -2.748,-0.041 -4.943,-2.302 -4.903,-5.05 v -0.34 c 0.041,-2.75 2.302,-4.945 5.051,-4.904 z"
   id="path295" />
						<path
   fill="#ff6e00"
   d="m 1550.898,2615.653 24.637,0.364 c 2.748,0.041 4.943,2.302 4.903,5.05 l -0.01,0.34 c -0.041,2.749 -2.302,4.944 -5.05,4.903 l -24.638,-0.364 c -2.748,-0.041 -4.943,-2.302 -4.903,-5.05 v -0.34 c 0.042,-2.749 2.303,-4.944 5.051,-4.903 z"
   id="path297" />
						<path
   fill="#ff6e00"
   d="m 1728.775,2362.21 23.852,-6.182 c 2.661,-0.69 5.377,0.908 6.067,3.569 l 0.085,0.33 c 0.69,2.661 -0.908,5.377 -3.569,6.066 l -23.852,6.182 c -2.661,0.69 -5.377,-0.908 -6.066,-3.569 l -0.085,-0.33 c -0.691,-2.66 0.907,-5.376 3.568,-6.066 z"
   id="path299" />
						<path
   fill="#ff6e00"
   d="m 1645.142,2390.439 23.852,-6.182 c 2.661,-0.69 5.377,0.908 6.067,3.569 l 0.085,0.33 c 0.69,2.661 -0.908,5.377 -3.569,6.066 l -23.852,6.182 c -2.661,0.689 -5.377,-0.908 -6.066,-3.569 l -0.085,-0.33 c -0.691,-2.66 0.907,-5.376 3.568,-6.066 z"
   id="path301" />
						<path
   fill="#ffffff"
   d="m 1608.276,2642.797 23.852,-6.182 c 2.661,-0.689 5.377,0.908 6.067,3.569 l 0.085,0.33 c 0.69,2.661 -0.908,5.377 -3.569,6.066 l -23.852,6.182 c -2.661,0.69 -5.377,-0.908 -6.066,-3.569 l -0.085,-0.33 c -0.69,-2.661 0.908,-5.377 3.568,-6.066 z"
   id="path303" />
						<path
   fill="#f1b104"
   d="m 1690.775,2423.619 17.021,17.816 c 1.899,1.988 1.827,5.138 -0.161,7.037 l -0.246,0.235 c -1.988,1.899 -5.138,1.827 -7.037,-0.16 l -17.021,-17.816 c -1.899,-1.987 -1.827,-5.138 0.161,-7.037 l 0.246,-0.235 c 1.988,-1.899 5.138,-1.828 7.037,0.16 z"
   id="path305" />
						<path
   fill="#ff6e00"
   d="m 1689.982,2523.531 0.746,24.629 c 0.083,2.747 -2.077,5.042 -4.824,5.125 l -0.34,0.01 c -2.747,0.083 -5.042,-2.077 -5.125,-4.824 l -0.746,-24.629 c -0.083,-2.748 2.077,-5.042 4.824,-5.125 l 0.34,-0.01 c 2.747,-0.083 5.042,2.076 5.125,4.824 z"
   id="path307" />
						<path
   fill="#f1b104"
   d="m 1634.942,2578.991 17.021,17.816 c 1.899,1.988 1.827,5.138 -0.161,7.037 l -0.246,0.235 c -1.988,1.899 -5.138,1.827 -7.037,-0.161 l -17.021,-17.816 c -1.899,-1.988 -1.827,-5.138 0.161,-7.037 l 0.246,-0.235 c 1.987,-1.898 5.138,-1.826 7.037,0.161 z"
   id="path309" />
					</g>
					<g
   id="g337">
						<path
   fill="#ffffff"
   d="m 1292.865,2513.212 10.849,22.123 c 1.21,2.468 0.191,5.45 -2.277,6.66 l -0.306,0.15 c -2.468,1.21 -5.45,0.191 -6.66,-2.277 l -10.849,-22.123 c -1.21,-2.468 -0.191,-5.45 2.277,-6.66 l 0.306,-0.15 c 2.468,-1.21 5.45,-0.191 6.66,2.277 z"
   id="path313" />
						<path
   fill="#573240"
   d="m 1370.735,2444.514 10.849,22.123 c 1.21,2.468 0.191,5.45 -2.277,6.66 l -0.306,0.15 c -2.468,1.21 -5.45,0.191 -6.66,-2.277 l -10.849,-22.123 c -1.21,-2.468 -0.191,-5.45 2.277,-6.66 l 0.306,-0.15 c 2.468,-1.21 5.45,-0.191 6.66,2.277 z"
   id="path315" />
						<path
   fill="#ffffff"
   d="m 1404.073,2643.434 20.985,12.914 c 2.341,1.441 3.071,4.506 1.63,6.847 l -0.178,0.29 c -1.441,2.341 -4.506,3.071 -6.847,1.63 l -20.985,-12.914 c -2.341,-1.44 -3.071,-4.506 -1.63,-6.847 l 0.178,-0.29 c 1.441,-2.34 4.506,-3.07 6.847,-1.63 z"
   id="path317" />
						<path
   fill="#ffffff"
   d="m 1294.948,2336.863 24.459,2.981 c 2.729,0.333 4.671,2.814 4.338,5.542 l -0.041,0.338 c -0.333,2.729 -2.814,4.671 -5.542,4.338 l -24.459,-2.981 c -2.729,-0.333 -4.671,-2.814 -4.338,-5.542 l 0.041,-0.338 c 0.332,-2.728 2.813,-4.67 5.542,-4.338 z"
   id="path319" />
						<path
   fill="#ffffff"
   d="m 1395.865,2519.518 20.985,12.914 c 2.341,1.44 3.071,4.506 1.63,6.847 l -0.178,0.29 c -1.441,2.341 -4.506,3.071 -6.847,1.63 l -20.985,-12.914 c -2.341,-1.441 -3.071,-4.506 -1.63,-6.847 l 0.178,-0.29 c 1.441,-2.341 4.506,-3.071 6.847,-1.63 z"
   id="path321" />
						<path
   fill="#573240"
   d="m 1357.596,2596.794 -11.651,21.711 c -1.3,2.422 -4.317,3.332 -6.739,2.032 l -0.3,-0.161 c -2.422,-1.3 -3.332,-4.317 -2.032,-6.739 l 11.651,-21.711 c 1.3,-2.422 4.317,-3.332 6.739,-2.032 l 0.3,0.161 c 2.422,1.3 3.332,4.317 2.032,6.739 z"
   id="path323" />
						<path
   fill="#ff6e00"
   d="m 1338.703,2383.909 -11.651,21.711 c -1.3,2.422 -4.317,3.332 -6.739,2.032 l -0.3,-0.161 c -2.422,-1.3 -3.332,-4.317 -2.032,-6.739 l 11.651,-21.711 c 1.3,-2.422 4.317,-3.332 6.739,-2.032 l 0.3,0.161 c 2.422,1.3 3.332,4.317 2.032,6.739 z"
   id="path325" />
						<path
   fill="#ff6e00"
   d="m 1481.981,2658.398 -5.477,24.024 c -0.611,2.68 -3.279,4.357 -5.959,3.746 l -0.332,-0.076 c -2.68,-0.611 -4.357,-3.279 -3.746,-5.958 l 5.477,-24.024 c 0.611,-2.68 3.279,-4.357 5.959,-3.746 l 0.332,0.076 c 2.68,0.61 4.357,3.278 3.746,5.958 z"
   id="path327" />
						<path
   fill="#ffffff"
   d="m 1281.361,2415.501 -5.477,24.024 c -0.611,2.68 -3.279,4.357 -5.959,3.746 l -0.332,-0.076 c -2.68,-0.611 -4.357,-3.279 -3.746,-5.959 l 5.477,-24.024 c 0.611,-2.68 3.279,-4.357 5.959,-3.746 l 0.332,0.076 c 2.68,0.612 4.357,3.279 3.746,5.959 z"
   id="path329" />
						<path
   fill="#f1b104"
   d="m 1444.921,2596.418 -23.647,6.924 c -2.638,0.772 -5.403,-0.74 -6.175,-3.378 l -0.096,-0.327 c -0.772,-2.638 0.74,-5.403 3.378,-6.175 l 23.647,-6.924 c 2.638,-0.772 5.402,0.74 6.175,3.378 l 0.096,0.327 c 0.772,2.639 -0.74,5.403 -3.378,6.175 z"
   id="path331" />
						<path
   fill="#ff6e00"
   d="m 1356.561,2549.776 -22.214,-10.662 c -2.478,-1.189 -3.523,-4.162 -2.333,-6.64 l 0.147,-0.307 c 1.189,-2.478 4.162,-3.523 6.641,-2.333 l 22.214,10.662 c 2.478,1.189 3.523,4.162 2.333,6.64 l -0.147,0.307 c -1.19,2.477 -4.163,3.522 -6.641,2.333 z"
   id="path333" />
						
							<rect
   x="1302.05"
   y="2468.7729"
   transform="matrix(0.9597,-0.281,0.281,0.9597,-641.9859,470.3907)"
   fill="#f1b104"
   width="34.594002"
   height="10.294"
   id="rect335" />
					</g>
				</g>
			</g>
			<g
   id="g445">
				<g
   id="g345">
					<path
   fill="#573240"
   d="m 914.456,2009.464 c -167.12,0 -302.6,138.16 -302.6,308.57 0,170.42 135.48,308.58 302.6,308.58 167.12,0 302.6,-138.16 302.6,-308.58 0,-170.41 -135.48,-308.57 -302.6,-308.57 z m 0,404.375 c -50.632,0 -91.686,-41.856 -91.686,-93.496 0,-51.64 41.055,-93.504 91.686,-93.504 50.641,0 91.695,41.865 91.695,93.504 0,51.639 -41.054,93.496 -91.695,93.496 z"
   id="path343" />
				</g>
				<g
   id="g349">
					<path
   fill="#ff6e00"
   d="m 873.456,2009.464 c -167.12,0 -302.6,138.16 -302.6,308.57 0,170.42 135.48,308.58 302.6,308.58 167.12,0 302.6,-138.16 302.6,-308.58 0,-170.41 -135.48,-308.57 -302.6,-308.57 z m 0,414.75 c -56.25,0 -101.86,-46.5 -101.86,-103.87 0,-57.37 45.61,-103.88 101.86,-103.88 56.26,0 101.87,46.51 101.87,103.88 0,57.37 -45.61,103.87 -101.87,103.87 z"
   id="path347" />
				</g>
				<g
   id="g443">
					<g
   id="g395">
						<path
   fill="#ffffff"
   d="M 913.671,2073.032 H 886.66 c -2.749,0 -4.977,-2.228 -4.977,-4.977 v -1.046 c 0,-2.749 2.228,-4.977 4.977,-4.977 h 27.012 c 2.749,0 4.977,2.228 4.977,4.977 v 1.046 c -10e-4,2.748 -2.229,4.977 -4.978,4.977 z"
   id="path351" />
						<path
   fill="#a9d8d5"
   d="m 1073.246,2301.073 h -27.011 c -2.749,0 -4.977,-2.228 -4.977,-4.977 v -1.046 c 0,-2.749 2.228,-4.977 4.977,-4.977 h 27.011 c 2.749,0 4.977,2.228 4.977,4.977 v 1.046 c 0,2.748 -2.228,4.977 -4.977,4.977 z"
   id="path353" />
						<path
   fill="#573240"
   d="m 1134.186,2267.769 -25.927,7.576 c -2.638,0.771 -5.402,-0.743 -6.173,-3.382 l -0.293,-1.004 c -0.771,-2.638 0.743,-5.402 3.381,-6.173 l 25.927,-7.575 c 2.638,-0.771 5.402,0.743 6.173,3.381 l 0.293,1.004 c 0.771,2.639 -0.743,5.403 -3.381,6.173 z"
   id="path355" />
						<path
   fill="#ffffff"
   d="m 735.933,2291.238 h -27.012 c -2.749,0 -4.977,-2.228 -4.977,-4.977 v -1.046 c 0,-2.749 2.228,-4.977 4.977,-4.977 h 27.012 c 2.749,0 4.977,2.228 4.977,4.977 v 1.046 c 0,2.748 -2.228,4.977 -4.977,4.977 z"
   id="path357" />
						<path
   fill="#f1b104"
   d="m 1028.821,2257.957 -25.981,-7.39 c -2.644,-0.752 -4.177,-3.505 -3.425,-6.149 l 0.286,-1.006 c 0.752,-2.644 3.505,-4.177 6.149,-3.426 l 25.981,7.39 c 2.644,0.752 4.177,3.505 3.425,6.149 l -0.286,1.006 c -0.753,2.645 -3.506,4.178 -6.149,3.426 z"
   id="path359" />
						<path
   fill="#f1b104"
   d="m 654.31,2216.464 h -27.012 c -2.749,0 -4.977,-2.228 -4.977,-4.977 v -1.046 c 0,-2.749 2.228,-4.977 4.977,-4.977 h 27.012 c 2.749,0 4.977,2.228 4.977,4.977 v 1.046 c -0.001,2.748 -2.229,4.977 -4.977,4.977 z"
   id="path361" />
						<path
   fill="#573240"
   d="m 942.944,2177.924 h -27.012 c -2.749,0 -4.977,-2.228 -4.977,-4.977 v -1.046 c 0,-2.749 2.228,-4.977 4.977,-4.977 h 27.012 c 2.749,0 4.977,2.228 4.977,4.977 v 1.046 c 0,2.749 -2.229,4.977 -4.977,4.977 z"
   id="path363" />
						<path
   fill="#f6acc1"
   d="m 1072.343,2149.942 -23.393,-13.506 c -2.38,-1.374 -3.196,-4.418 -1.822,-6.799 l 0.523,-0.906 c 1.374,-2.38 4.418,-3.196 6.799,-1.822 l 23.393,13.506 c 2.38,1.374 3.196,4.418 1.822,6.799 l -0.523,0.906 c -1.374,2.381 -4.418,3.196 -6.799,1.822 z"
   id="path365" />
						<path
   fill="#ffffff"
   d="m 750.669,2121.236 -22.839,14.422 c -2.324,1.468 -5.398,0.773 -6.865,-1.551 l -0.559,-0.885 c -1.468,-2.324 -0.773,-5.398 1.551,-6.865 l 22.839,-14.422 c 2.324,-1.468 5.398,-0.773 6.865,1.551 l 0.559,0.885 c 1.468,2.324 0.773,5.398 -1.551,6.865 z"
   id="path367" />
						<path
   fill="#ffffff"
   d="m 1091.806,2191.566 -14.74,22.636 c -1.5,2.303 -4.583,2.955 -6.886,1.455 l -0.877,-0.571 c -2.303,-1.5 -2.955,-4.583 -1.455,-6.886 l 14.74,-22.636 c 1.5,-2.303 4.583,-2.955 6.886,-1.455 l 0.877,0.571 c 2.303,1.5 2.955,4.583 1.455,6.886 z"
   id="path369" />
						<path
   fill="#ffffff"
   d="m 869.795,2179.387 -22.839,14.422 c -2.324,1.468 -5.398,0.773 -6.865,-1.551 l -0.559,-0.885 c -1.468,-2.324 -0.773,-5.398 1.551,-6.865 l 22.839,-14.422 c 2.324,-1.468 5.398,-0.773 6.865,1.551 l 0.559,0.885 c 1.467,2.323 0.773,5.397 -1.551,6.865 z"
   id="path371" />
						<path
   fill="#f1b104"
   d="m 794.269,2174.869 -9.338,-25.346 c -0.95,-2.579 0.37,-5.44 2.949,-6.391 l 0.982,-0.362 c 2.579,-0.95 5.44,0.37 6.391,2.949 l 9.338,25.346 c 0.95,2.579 -0.37,5.44 -2.949,6.391 l -0.982,0.362 c -2.579,0.951 -5.44,-0.369 -6.391,-2.949 z"
   id="path373" />
						<path
   fill="#573240"
   d="m 802.886,2096.088 -15.746,-21.947 c -1.602,-2.233 -1.091,-5.343 1.143,-6.945 l 0.85,-0.61 c 2.233,-1.602 5.343,-1.091 6.945,1.143 l 15.746,21.948 c 1.602,2.233 1.091,5.343 -1.143,6.945 l -0.85,0.61 c -2.234,1.601 -5.343,1.09 -6.945,-1.144 z"
   id="path375" />
						<path
   fill="#573240"
   d="m 1032.002,2192.104 -15.746,-21.948 c -1.602,-2.233 -1.091,-5.343 1.143,-6.945 l 0.85,-0.61 c 2.233,-1.602 5.343,-1.091 6.945,1.143 l 15.746,21.948 c 1.602,2.233 1.091,5.343 -1.143,6.945 l -0.85,0.61 c -2.234,1.602 -5.343,1.091 -6.945,-1.143 z"
   id="path377" />
						<path
   fill="#a9d8d5"
   d="m 685.329,2177.675 -21.002,-16.986 c -2.137,-1.729 -2.468,-4.862 -0.74,-7 l 0.658,-0.813 c 1.729,-2.137 4.862,-2.469 6.999,-0.74 l 21.002,16.986 c 2.137,1.729 2.468,4.862 0.74,7 l -0.658,0.813 c -1.728,2.137 -4.862,2.468 -6.999,0.74 z"
   id="path379" />
						<path
   fill="#f1b104"
   d="m 1002.925,2111.52 -21.002,-16.986 c -2.137,-1.729 -2.468,-4.862 -0.74,-7 l 0.658,-0.813 c 1.729,-2.137 4.862,-2.469 7,-0.74 l 21.002,16.986 c 2.137,1.729 2.468,4.862 0.74,7 l -0.658,0.813 c -1.729,2.137 -4.863,2.469 -7,0.74 z"
   id="path381" />
						<path
   fill="#a9d8d5"
   d="m 639.19,2293.596 -16.718,-21.216 c -1.701,-2.159 -1.33,-5.288 0.829,-6.99 l 0.822,-0.647 c 2.159,-1.701 5.288,-1.33 6.99,0.829 l 16.718,21.216 c 1.701,2.159 1.33,5.288 -0.829,6.99 l -0.822,0.647 c -2.16,1.701 -5.289,1.33 -6.99,-0.829 z"
   id="path383" />
						<path
   fill="#f6acc1"
   d="m 733.064,2209.201 4.599,-26.617 c 0.468,-2.708 3.043,-4.525 5.752,-4.057 l 1.031,0.178 c 2.709,0.468 4.525,3.043 4.057,5.752 l -4.599,26.617 c -0.468,2.709 -3.043,4.525 -5.752,4.057 l -1.031,-0.178 c -2.709,-0.469 -4.525,-3.044 -4.057,-5.752 z"
   id="path385" />
						<path
   fill="#a9d8d5"
   d="m 837.33,2127.836 21.216,-16.718 c 2.159,-1.701 5.288,-1.33 6.99,0.829 l 0.647,0.822 c 1.701,2.159 1.33,5.288 -0.829,6.99 l -21.216,16.718 c -2.159,1.701 -5.288,1.33 -6.99,-0.829 l -0.647,-0.822 c -1.701,-2.159 -1.33,-5.289 0.829,-6.99 z"
   id="path387" />
						<path
   fill="#573240"
   d="m 672.284,2250.89 21.216,-16.718 c 2.159,-1.701 5.288,-1.33 6.99,0.829 l 0.647,0.822 c 1.701,2.159 1.33,5.288 -0.829,6.99 l -21.216,16.718 c -2.159,1.701 -5.288,1.33 -6.99,-0.829 l -0.647,-0.822 c -1.701,-2.159 -1.33,-5.288 0.829,-6.99 z"
   id="path389" />
						<path
   fill="#f6acc1"
   d="m 930.848,2129.297 4.599,-26.617 c 0.468,-2.708 3.043,-4.525 5.752,-4.057 l 1.031,0.178 c 2.709,0.468 4.525,3.043 4.057,5.752 l -4.599,26.617 c -0.468,2.709 -3.043,4.525 -5.752,4.057 l -1.031,-0.178 c -2.709,-0.468 -4.525,-3.043 -4.057,-5.752 z"
   id="path391" />
						<path
   fill="#a9d8d5"
   d="m 962.701,2211.823 17.981,-20.157 c 1.83,-2.051 4.976,-2.23 7.027,-0.401 l 0.781,0.697 c 2.051,1.83 2.231,4.976 0.401,7.027 l -17.981,20.157 c -1.83,2.051 -4.976,2.231 -7.027,0.401 l -0.781,-0.697 c -2.051,-1.829 -2.231,-4.976 -0.401,-7.027 z"
   id="path393" />
					</g>
					<g
   id="g441">
						<path
   fill="#ffffff"
   d="m 837.465,2567.957 27.008,0.412 c 2.748,0.042 4.942,2.304 4.9,5.052 l -0.016,1.046 c -0.042,2.749 -2.304,4.942 -5.052,4.9 l -27.008,-0.412 c -2.748,-0.042 -4.942,-2.304 -4.9,-5.052 l 0.016,-1.046 c 0.042,-2.748 2.304,-4.942 5.052,-4.9 z"
   id="path397" />
						<path
   fill="#a9d8d5"
   d="m 681.387,2337.509 27.008,0.412 c 2.748,0.042 4.942,2.304 4.9,5.052 l -0.016,1.046 c -0.042,2.749 -2.304,4.942 -5.052,4.901 l -27.008,-0.412 c -2.748,-0.042 -4.942,-2.304 -4.9,-5.052 l 0.016,-1.046 c 0.041,-2.749 2.303,-4.943 5.052,-4.901 z"
   id="path399" />
						<path
   fill="#573240"
   d="m 619.946,2369.878 26.04,-7.179 c 2.65,-0.731 5.39,0.825 6.121,3.475 l 0.278,1.009 c 0.731,2.65 -0.825,5.39 -3.475,6.121 l -26.04,7.179 c -2.65,0.73 -5.39,-0.825 -6.121,-3.475 L 616.471,2376 c -0.73,-2.651 0.826,-5.391 3.475,-6.122 z"
   id="path401" />
						<path
   fill="#ffffff"
   d="m 1018.511,2352.487 27.008,0.412 c 2.748,0.042 4.942,2.304 4.9,5.052 l -0.016,1.046 c -0.042,2.748 -2.304,4.942 -5.052,4.9 l -27.008,-0.412 c -2.748,-0.042 -4.942,-2.304 -4.9,-5.052 l 0.016,-1.046 c 0.041,-2.748 2.303,-4.941 5.052,-4.9 z"
   id="path403" />
						<path
   fill="#f1b104"
   d="m 725.15,2381.296 25.865,7.785 c 2.632,0.792 4.124,3.568 3.331,6.2 l -0.302,1.002 c -0.792,2.632 -3.568,4.123 -6.2,3.331 l -25.865,-7.785 c -2.632,-0.792 -4.124,-3.568 -3.331,-6.2 l 0.302,-1.002 c 0.792,-2.631 3.568,-4.123 6.2,-3.331 z"
   id="path405" />
						<path
   fill="#f1b104"
   d="m 1098.984,2428.498 27.008,0.412 c 2.748,0.042 4.942,2.304 4.9,5.052 l -0.016,1.046 c -0.042,2.748 -2.304,4.942 -5.052,4.9 l -27.008,-0.412 c -2.748,-0.042 -4.942,-2.304 -4.9,-5.052 l 0.016,-1.046 c 0.042,-2.748 2.304,-4.942 5.052,-4.9 z"
   id="path407" />
						<path
   fill="#573240"
   d="m 809.796,2462.63 27.008,0.412 c 2.748,0.042 4.942,2.304 4.9,5.052 l -0.016,1.046 c -0.042,2.748 -2.304,4.942 -5.052,4.9 l -27.008,-0.412 c -2.748,-0.042 -4.942,-2.304 -4.9,-5.052 l 0.016,-1.046 c 0.042,-2.748 2.303,-4.942 5.052,-4.9 z"
   id="path409" />
						<path
   fill="#f6acc1"
   d="m 679.984,2488.635 23.184,13.861 c 2.359,1.41 3.128,4.466 1.718,6.826 l -0.537,0.898 c -1.411,2.359 -4.466,3.128 -6.826,1.718 l -23.184,-13.861 c -2.359,-1.411 -3.128,-4.467 -1.718,-6.826 l 0.537,-0.898 c 1.411,-2.359 4.467,-3.128 6.826,-1.718 z"
   id="path411" />
						<path
   fill="#ffffff"
   d="m 1001.183,2522.244 23.057,-14.072 c 2.346,-1.432 5.409,-0.691 6.841,1.655 l 0.545,0.893 c 1.432,2.346 0.691,5.409 -1.655,6.841 l -23.057,14.072 c -2.346,1.432 -5.409,0.691 -6.841,-1.656 l -0.545,-0.893 c -1.432,-2.345 -0.691,-5.408 1.655,-6.84 z"
   id="path413" />
						<path
   fill="#ffffff"
   d="m 661.159,2446.719 15.083,-22.408 c 1.535,-2.28 4.628,-2.885 6.908,-1.35 l 0.868,0.584 c 2.28,1.535 2.885,4.627 1.35,6.908 l -15.083,22.408 c -1.535,2.28 -4.628,2.885 -6.908,1.35 l -0.868,-0.584 c -2.28,-1.535 -2.885,-4.628 -1.35,-6.908 z"
   id="path415" />
						<path
   fill="#ffffff"
   d="m 882.958,2462.283 23.057,-14.072 c 2.346,-1.432 5.409,-0.691 6.841,1.656 l 0.545,0.893 c 1.432,2.346 0.691,5.409 -1.655,6.841 l -23.057,14.072 c -2.346,1.432 -5.409,0.691 -6.841,-1.656 l -0.545,-0.893 c -1.432,-2.346 -0.691,-5.409 1.655,-6.841 z"
   id="path417" />
						<path
   fill="#f1b104"
   d="m 958.406,2467.952 8.951,25.486 c 0.911,2.593 -0.453,5.434 -3.047,6.345 l -0.987,0.346 c -2.593,0.911 -5.434,-0.453 -6.345,-3.046 l -8.951,-25.486 c -0.911,-2.593 0.453,-5.434 3.047,-6.345 l 0.987,-0.347 c 2.594,-0.91 5.434,0.454 6.345,3.047 z"
   id="path419" />
						<path
   fill="#573240"
   d="m 948.589,2546.593 15.409,22.185 c 1.568,2.258 1.009,5.359 -1.248,6.927 l -0.859,0.597 c -2.258,1.568 -5.359,1.009 -6.927,-1.249 l -15.409,-22.185 c -1.568,-2.258 -1.009,-5.359 1.248,-6.927 l 0.859,-0.597 c 2.258,-1.568 5.359,-1.009 6.927,1.249 z"
   id="path421" />
						<path
   fill="#573240"
   d="m 720.964,2447.093 15.409,22.185 c 1.568,2.258 1.009,5.359 -1.248,6.927 l -0.859,0.597 c -2.258,1.568 -5.359,1.009 -6.927,-1.249 l -15.409,-22.185 c -1.568,-2.258 -1.009,-5.359 1.248,-6.927 l 0.859,-0.597 c 2.258,-1.567 5.359,-1.008 6.927,1.249 z"
   id="path423" />
						<path
   fill="#a9d8d5"
   d="m 1067.377,2466.809 20.741,17.305 c 2.111,1.761 2.394,4.899 0.633,7.01 l -0.67,0.803 c -1.761,2.111 -4.899,2.394 -7.01,0.633 l -20.741,-17.305 c -2.111,-1.761 -2.394,-4.899 -0.633,-7.01 l 0.67,-0.803 c 1.761,-2.11 4.899,-2.394 7.01,-0.633 z"
   id="path425" />
						<path
   fill="#f1b104"
   d="m 748.809,2528.111 20.741,17.305 c 2.111,1.761 2.394,4.899 0.633,7.01 l -0.67,0.803 c -1.761,2.111 -4.899,2.394 -7.01,0.633 l -20.741,-17.305 c -2.111,-1.761 -2.394,-4.899 -0.633,-7.01 l 0.67,-0.803 c 1.761,-2.11 4.899,-2.393 7.01,-0.633 z"
   id="path427" />
						<path
   fill="#a9d8d5"
   d="m 1115.279,2351.605 16.393,21.469 c 1.668,2.185 1.249,5.308 -0.935,6.976 l -0.831,0.635 c -2.185,1.668 -5.308,1.249 -6.976,-0.935 l -16.393,-21.469 c -1.668,-2.185 -1.249,-5.308 0.935,-6.976 l 0.831,-0.635 c 2.184,-1.669 5.308,-1.25 6.976,0.935 z"
   id="path429" />
						<path
   fill="#f6acc1"
   d="m 1020.128,2434.559 -5.005,26.544 c -0.509,2.701 -3.112,4.478 -5.813,3.969 l -1.028,-0.194 c -2.701,-0.509 -4.478,-3.112 -3.969,-5.813 l 5.005,-26.544 c 0.509,-2.701 3.112,-4.478 5.813,-3.969 l 1.028,0.194 c 2.702,0.509 4.479,3.111 3.969,5.813 z"
   id="path431" />
						<path
   fill="#a9d8d5"
   d="m 914.633,2514.323 -21.469,16.393 c -2.185,1.668 -5.308,1.25 -6.976,-0.935 l -0.635,-0.831 c -1.668,-2.185 -1.249,-5.308 0.935,-6.976 l 21.469,-16.393 c 2.185,-1.668 5.308,-1.249 6.976,0.935 l 0.635,0.831 c 1.669,2.185 1.25,5.308 -0.935,6.976 z"
   id="path433" />
						<path
   fill="#573240"
   d="m 1081.537,2393.801 -21.469,16.393 c -2.185,1.668 -5.308,1.25 -6.976,-0.935 l -0.635,-0.832 c -1.668,-2.185 -1.249,-5.308 0.935,-6.976 l 21.469,-16.393 c 2.185,-1.668 5.308,-1.249 6.976,0.935 l 0.635,0.832 c 1.669,2.185 1.25,5.308 -0.935,6.976 z"
   id="path435" />
						<path
   fill="#f6acc1"
   d="m 821.149,2511.436 -5.005,26.544 c -0.509,2.701 -3.112,4.478 -5.813,3.969 l -1.028,-0.194 c -2.701,-0.509 -4.478,-3.112 -3.969,-5.813 l 5.005,-26.544 c 0.509,-2.701 3.112,-4.478 5.813,-3.969 l 1.028,0.194 c 2.701,0.509 4.478,3.112 3.969,5.813 z"
   id="path437" />
						<path
   fill="#a9d8d5"
   d="m 790.558,2428.434 -18.286,19.88 c -1.861,2.023 -5.009,2.155 -7.032,0.294 l -0.77,-0.708 c -2.023,-1.861 -2.155,-5.009 -0.294,-7.032 l 18.286,-19.88 c 1.861,-2.023 5.009,-2.155 7.032,-0.294 l 0.77,0.708 c 2.023,1.86 2.155,5.009 0.294,7.032 z"
   id="path439" />
					</g>
				</g>
			</g>
			<g
   id="g459">
				<g
   id="g449">
					<polygon
   fill="#fde5e3"
   points="900.14,1751.83 900.95,1744.83 1827.95,1744.83 1827.14,1751.83 "
   id="polygon447" />
				</g>
				<g
   id="g453">
					<path
   fill="#fde5e3"
   d="m 1811.63,1829.77 c -1.26,2.4 -2.64,4.73 -4.1,7 H 912.04 c -1.47,-2.27 -2.85,-4.61 -4.12,-7 z"
   id="path451" />
				</g>
				<g
   id="g457">
					<path
   fill="#fde5e3"
   d="m 1823.07,1787.3 -0.81,7 H 897.3 c -0.22,-2.31 -0.35,-4.64 -0.39,-7 z"
   id="path455" />
				</g>
			</g>
			<rect
   x="1542.481"
   y="2323.3469"
   fill="#f6acc1"
   width="379.31699"
   height="424.70001"
   id="rect461" />
			<rect
   x="507.45999"
   y="2323.3469"
   fill="#fcd4d0"
   width="1035.021"
   height="424.70001"
   id="rect463" />
			<g
   id="g501">
				<g
   id="g467">
					<rect
   x="507.45999"
   y="2362.3159"
   fill="#fde5e3"
   width="1035.479"
   height="7"
   id="rect465" />
				</g>
				<g
   id="g471">
					<rect
   x="507.45999"
   y="2404.7871"
   fill="#fde5e3"
   width="1035.021"
   height="7"
   id="rect469" />
				</g>
				<g
   id="g475">
					<rect
   x="507.45999"
   y="2447.2571"
   fill="#fde5e3"
   width="1035.021"
   height="7"
   id="rect473" />
				</g>
				<g
   id="g479">
					<rect
   x="507.45999"
   y="2489.7271"
   fill="#fde5e3"
   width="1035.021"
   height="7"
   id="rect477" />
				</g>
				<g
   id="g483">
					<rect
   x="507.45999"
   y="2532.196"
   fill="#fde5e3"
   width="1035.021"
   height="7"
   id="rect481" />
				</g>
				<g
   id="g487">
					<rect
   x="507.45999"
   y="2574.667"
   fill="#fde5e3"
   width="1035.021"
   height="7"
   id="rect485" />
				</g>
				<g
   id="g491">
					<rect
   x="507.45999"
   y="2659.606"
   fill="#fde5e3"
   width="1035.021"
   height="7"
   id="rect489" />
				</g>
				<g
   id="g495">
					<rect
   x="507.45999"
   y="2617.137"
   fill="#fde5e3"
   width="1035.021"
   height="7"
   id="rect493" />
				</g>
				<g
   id="g499">
					<rect
   x="507.45999"
   y="2702.0759"
   fill="#fde5e3"
   width="1035.021"
   height="7"
   id="rect497" />
				</g>
			</g>
			<g
   id="g539">
				<g
   id="g505">
					<rect
   x="1542.939"
   y="2362.3159"
   fill="#fabfd6"
   width="378.858"
   height="7"
   id="rect503" />
				</g>
				<g
   id="g509">
					<rect
   x="1542.48"
   y="2404.7871"
   fill="#fabfd6"
   width="379.31699"
   height="7"
   id="rect507" />
				</g>
				<g
   id="g513">
					<rect
   x="1542.48"
   y="2447.2571"
   fill="#fabfd6"
   width="379.31699"
   height="7"
   id="rect511" />
				</g>
				<g
   id="g517">
					<rect
   x="1542.48"
   y="2489.7271"
   fill="#fabfd6"
   width="379.31699"
   height="7"
   id="rect515" />
				</g>
				<g
   id="g521">
					<rect
   x="1542.48"
   y="2532.196"
   fill="#fabfd6"
   width="379.31699"
   height="7"
   id="rect519" />
				</g>
				<g
   id="g525">
					<rect
   x="1542.48"
   y="2574.667"
   fill="#fabfd6"
   width="379.31699"
   height="7"
   id="rect523" />
				</g>
				<g
   id="g529">
					<rect
   x="1542.48"
   y="2659.606"
   fill="#fabfd6"
   width="379.31699"
   height="7"
   id="rect527" />
				</g>
				<g
   id="g533">
					<rect
   x="1542.48"
   y="2617.137"
   fill="#fabfd6"
   width="379.31699"
   height="7"
   id="rect531" />
				</g>
				<g
   id="g537">
					<rect
   x="1542.48"
   y="2702.0759"
   fill="#fabfd6"
   width="379.31699"
   height="7"
   id="rect535" />
				</g>
			</g>
		</g><g
   id="COFFEE"
   transform="translate(-507.45999,-751.95)">
			<g
   id="g550">
				<polygon
   fill="#ffffff"
   points="1774.639,2748.046 1684.489,1963.686 2312.569,1963.686 2222.419,2748.046 "
   id="polygon542" />
				<polygon
   fill="#e0f1f0"
   points="2312.566,1963.683 2222.416,2748.044 2124.866,2748.044 2211.566,1993.683 1687.936,1993.683 1684.486,1963.683 "
   id="polygon544" />
				<path
   fill="#573240"
   d="m 2361.186,1963.683 h -725.31 l 5.75,-32.07 c 2.46,-13.7 14.38,-23.68 28.3,-23.68 h 12.44 l 9.13,-34.81 c 6.4,-24.45 28.5,-41.5 53.78,-41.5 h 506.51 c 25.28,0 47.37,17.05 53.78,41.5 l 9.12,34.81 h 12.45 c 13.92,0 25.84,9.98 28.29,23.68 z"
   id="path546" />
				
					<line
   fill="none"
   stroke="#573240"
   stroke-width="5"
   stroke-linecap="round"
   stroke-miterlimit="10"
   x1="1774.639"
   y1="2748.0459"
   x2="2222.4189"
   y2="2748.0459"
   id="line548" />
			</g>
			<ellipse
   fill="#a9d8d5"
   cx="1981.424"
   cy="2302.8999"
   rx="140.5"
   ry="150"
   id="ellipse552" />
			<g
   id="g558">
				<path
   fill="#573240"
   d="m 2003.358,2260.275 -50.246,77.162 c -2.654,4.076 -8.53,4.334 -11.535,0.51 -12.632,-16.075 -12.96,-41.512 0.709,-62.504 13.67,-20.992 37.062,-30.975 56.872,-25.923 4.714,1.202 6.854,6.679 4.2,10.755 z"
   id="path554" />
				<path
   fill="#573240"
   d="m 2021.77,2327.199 c -13.534,20.784 -36.603,30.773 -56.28,26.077 -4.762,-1.137 -6.945,-6.67 -4.273,-10.773 l 50.053,-76.866 c 2.671,-4.103 8.615,-4.344 11.581,-0.45 12.254,16.095 12.453,41.228 -1.081,62.012 z"
   id="path556" />
			</g>
		</g>
</svg>
